<svg xmlns="http://www.w3.org/2000/svg" viewBox="0 0 500 500" width="500" height="500">
  <defs>
    <linearGradient id="dfBrickGrad" x1="0" y1="0" x2="0" y2="1">
      <stop offset="0%" style="stop-color:#8B5E3C;stop-opacity:1"/>
      <stop offset="100%" style="stop-color:#6B4226;stop-opacity:1"/>
    </linearGradient>
    <linearGradient id="dfMortar" x1="0" y1="0" x2="0" y2="1">
      <stop offset="0%" style="stop-color:#D4A76A;stop-opacity:0.5"/>
      <stop offset="100%" style="stop-color:#C5961A;stop-opacity:0.3"/>
    </linearGradient>
    <linearGradient id="dfSandTop" x1="0" y1="0" x2="1" y2="0">
      <stop offset="0%" style="stop-color:#D4A76A;stop-opacity:0.15"/>
      <stop offset="50%" style="stop-color:#C5961A;stop-opacity:0.08"/>
      <stop offset="100%" style="stop-color:#D4A76A;stop-opacity:0.15"/>
    </linearGradient>
  </defs>

  <!-- ============ OUTER BORDER FRAME ============ -->
  <!-- Background for border area (sandy base) -->
  <!-- Top border band -->
  <rect x="0" y="0" width="500" height="38" style="fill:#D4A76A;opacity:0.15;"/>
  <!-- Bottom border band -->
  <rect x="0" y="462" width="500" height="38" style="fill:#D4A76A;opacity:0.15;"/>
  <!-- Left border band -->
  <rect x="0" y="38" width="38" height="424" style="fill:#D4A76A;opacity:0.15;"/>
  <!-- Right border band -->
  <rect x="462" y="38" width="38" height="424" style="fill:#D4A76A;opacity:0.15;"/>

  <!-- ============ BRICK PATTERN - TOP ============ -->
  <!-- Row 1 (top) -->
  <rect x="2" y="2" width="40" height="11" rx="1" style="fill:#9B6B4A;stroke:#D4A76A;stroke-width:0.5;opacity:0.6;"/>
  <rect x="44" y="2" width="55" height="11" rx="1" style="fill:#8B5E3C;stroke:#D4A76A;stroke-width:0.5;opacity:0.6;"/>
  <rect x="101" y="2" width="48" height="11" rx="1" style="fill:#9B6B4A;stroke:#D4A76A;stroke-width:0.5;opacity:0.6;"/>
  <rect x="151" y="2" width="58" height="11" rx="1" style="fill:#8B5E3C;stroke:#D4A76A;stroke-width:0.5;opacity:0.6;"/>
  <rect x="211" y="2" width="45" height="11" rx="1" style="fill:#9B6B4A;stroke:#D4A76A;stroke-width:0.5;opacity:0.6;"/>
  <rect x="258" y="2" width="52" height="11" rx="1" style="fill:#8B5E3C;stroke:#D4A76A;stroke-width:0.5;opacity:0.6;"/>
  <rect x="312" y="2" width="48" height="11" rx="1" style="fill:#9B6B4A;stroke:#D4A76A;stroke-width:0.5;opacity:0.6;"/>
  <rect x="362" y="2" width="55" height="11" rx="1" style="fill:#8B5E3C;stroke:#D4A76A;stroke-width:0.5;opacity:0.6;"/>
  <rect x="419" y="2" width="40" height="11" rx="1" style="fill:#9B6B4A;stroke:#D4A76A;stroke-width:0.5;opacity:0.6;"/>
  <rect x="461" y="2" width="37" height="11" rx="1" style="fill:#8B5E3C;stroke:#D4A76A;stroke-width:0.5;opacity:0.6;"/>

  <!-- Row 2 (offset) -->
  <rect x="2" y="15" width="28" height="11" rx="1" style="fill:#8B5E3C;stroke:#D4A76A;stroke-width:0.5;opacity:0.6;"/>
  <rect x="32" y="15" width="52" height="11" rx="1" style="fill:#9B6B4A;stroke:#D4A76A;stroke-width:0.5;opacity:0.6;"/>
  <rect x="86" y="15" width="45" height="11" rx="1" style="fill:#8B5E3C;stroke:#D4A76A;stroke-width:0.5;opacity:0.6;"/>
  <rect x="133" y="15" width="55" height="11" rx="1" style="fill:#9B6B4A;stroke:#D4A76A;stroke-width:0.5;opacity:0.6;"/>
  <rect x="190" y="15" width="48" height="11" rx="1" style="fill:#8B5E3C;stroke:#D4A76A;stroke-width:0.5;opacity:0.6;"/>
  <rect x="240" y="15" width="58" height="11" rx="1" style="fill:#9B6B4A;stroke:#D4A76A;stroke-width:0.5;opacity:0.6;"/>
  <rect x="300" y="15" width="42" height="11" rx="1" style="fill:#8B5E3C;stroke:#D4A76A;stroke-width:0.5;opacity:0.6;"/>
  <rect x="344" y="15" width="55" height="11" rx="1" style="fill:#9B6B4A;stroke:#D4A76A;stroke-width:0.5;opacity:0.6;"/>
  <rect x="401" y="15" width="48" height="11" rx="1" style="fill:#8B5E3C;stroke:#D4A76A;stroke-width:0.5;opacity:0.6;"/>
  <rect x="451" y="15" width="47" height="11" rx="1" style="fill:#9B6B4A;stroke:#D4A76A;stroke-width:0.5;opacity:0.6;"/>

  <!-- Row 3 -->
  <rect x="2" y="28" width="48" height="8" rx="1" style="fill:#9B6B4A;stroke:#D4A76A;stroke-width:0.5;opacity:0.5;"/>
  <rect x="52" y="28" width="42" height="8" rx="1" style="fill:#8B5E3C;stroke:#D4A76A;stroke-width:0.5;opacity:0.5;"/>
  <rect x="96" y="28" width="55" height="8" rx="1" style="fill:#9B6B4A;stroke:#D4A76A;stroke-width:0.5;opacity:0.5;"/>
  <rect x="153" y="28" width="48" height="8" rx="1" style="fill:#8B5E3C;stroke:#D4A76A;stroke-width:0.5;opacity:0.5;"/>
  <rect x="203" y="28" width="55" height="8" rx="1" style="fill:#9B6B4A;stroke:#D4A76A;stroke-width:0.5;opacity:0.5;"/>
  <rect x="260" y="28" width="40" height="8" rx="1" style="fill:#8B5E3C;stroke:#D4A76A;stroke-width:0.5;opacity:0.5;"/>
  <rect x="302" y="28" width="52" height="8" rx="1" style="fill:#9B6B4A;stroke:#D4A76A;stroke-width:0.5;opacity:0.5;"/>
  <rect x="356" y="28" width="48" height="8" rx="1" style="fill:#8B5E3C;stroke:#D4A76A;stroke-width:0.5;opacity:0.5;"/>
  <rect x="406" y="28" width="45" height="8" rx="1" style="fill:#9B6B4A;stroke:#D4A76A;stroke-width:0.5;opacity:0.5;"/>
  <rect x="453" y="28" width="45" height="8" rx="1" style="fill:#8B5E3C;stroke:#D4A76A;stroke-width:0.5;opacity:0.5;"/>

  <!-- ============ BRICK PATTERN - BOTTOM ============ -->
  <rect x="2" y="464" width="48" height="11" rx="1" style="fill:#9B6B4A;stroke:#D4A76A;stroke-width:0.5;opacity:0.5;"/>
  <rect x="52" y="464" width="55" height="11" rx="1" style="fill:#8B5E3C;stroke:#D4A76A;stroke-width:0.5;opacity:0.5;"/>
  <rect x="109" y="464" width="42" height="11" rx="1" style="fill:#9B6B4A;stroke:#D4A76A;stroke-width:0.5;opacity:0.5;"/>
  <rect x="153" y="464" width="58" height="11" rx="1" style="fill:#8B5E3C;stroke:#D4A76A;stroke-width:0.5;opacity:0.5;"/>
  <rect x="213" y="464" width="48" height="11" rx="1" style="fill:#9B6B4A;stroke:#D4A76A;stroke-width:0.5;opacity:0.5;"/>
  <rect x="263" y="464" width="55" height="11" rx="1" style="fill:#8B5E3C;stroke:#D4A76A;stroke-width:0.5;opacity:0.5;"/>
  <rect x="320" y="464" width="42" height="11" rx="1" style="fill:#9B6B4A;stroke:#D4A76A;stroke-width:0.5;opacity:0.5;"/>
  <rect x="364" y="464" width="48" height="11" rx="1" style="fill:#8B5E3C;stroke:#D4A76A;stroke-width:0.5;opacity:0.5;"/>
  <rect x="414" y="464" width="40" height="11" rx="1" style="fill:#9B6B4A;stroke:#D4A76A;stroke-width:0.5;opacity:0.5;"/>
  <rect x="456" y="464" width="42" height="11" rx="1" style="fill:#8B5E3C;stroke:#D4A76A;stroke-width:0.5;opacity:0.5;"/>

  <rect x="2" y="477" width="35" height="11" rx="1" style="fill:#8B5E3C;stroke:#D4A76A;stroke-width:0.5;opacity:0.6;"/>
  <rect x="39" y="477" width="52" height="11" rx="1" style="fill:#9B6B4A;stroke:#D4A76A;stroke-width:0.5;opacity:0.6;"/>
  <rect x="93" y="477" width="48" height="11" rx="1" style="fill:#8B5E3C;stroke:#D4A76A;stroke-width:0.5;opacity:0.6;"/>
  <rect x="143" y="477" width="55" height="11" rx="1" style="fill:#9B6B4A;stroke:#D4A76A;stroke-width:0.5;opacity:0.6;"/>
  <rect x="200" y="477" width="42" height="11" rx="1" style="fill:#8B5E3C;stroke:#D4A76A;stroke-width:0.5;opacity:0.6;"/>
  <rect x="244" y="477" width="58" height="11" rx="1" style="fill:#9B6B4A;stroke:#D4A76A;stroke-width:0.5;opacity:0.6;"/>
  <rect x="304" y="477" width="48" height="11" rx="1" style="fill:#8B5E3C;stroke:#D4A76A;stroke-width:0.5;opacity:0.6;"/>
  <rect x="354" y="477" width="55" height="11" rx="1" style="fill:#9B6B4A;stroke:#D4A76A;stroke-width:0.5;opacity:0.6;"/>
  <rect x="411" y="477" width="42" height="11" rx="1" style="fill:#8B5E3C;stroke:#D4A76A;stroke-width:0.5;opacity:0.6;"/>
  <rect x="455" y="477" width="43" height="11" rx="1" style="fill:#9B6B4A;stroke:#D4A76A;stroke-width:0.5;opacity:0.6;"/>

  <rect x="2" y="490" width="55" height="8" rx="1" style="fill:#9B6B4A;stroke:#D4A76A;stroke-width:0.5;opacity:0.6;"/>
  <rect x="59" y="490" width="45" height="8" rx="1" style="fill:#8B5E3C;stroke:#D4A76A;stroke-width:0.5;opacity:0.6;"/>
  <rect x="106" y="490" width="52" height="8" rx="1" style="fill:#9B6B4A;stroke:#D4A76A;stroke-width:0.5;opacity:0.6;"/>
  <rect x="160" y="490" width="48" height="8" rx="1" style="fill:#8B5E3C;stroke:#D4A76A;stroke-width:0.5;opacity:0.6;"/>
  <rect x="210" y="490" width="55" height="8" rx="1" style="fill:#9B6B4A;stroke:#D4A76A;stroke-width:0.5;opacity:0.6;"/>
  <rect x="267" y="490" width="42" height="8" rx="1" style="fill:#8B5E3C;stroke:#D4A76A;stroke-width:0.5;opacity:0.6;"/>
  <rect x="311" y="490" width="52" height="8" rx="1" style="fill:#9B6B4A;stroke:#D4A76A;stroke-width:0.5;opacity:0.6;"/>
  <rect x="365" y="490" width="48" height="8" rx="1" style="fill:#8B5E3C;stroke:#D4A76A;stroke-width:0.5;opacity:0.6;"/>
  <rect x="415" y="490" width="40" height="8" rx="1" style="fill:#9B6B4A;stroke:#D4A76A;stroke-width:0.5;opacity:0.6;"/>
  <rect x="457" y="490" width="41" height="8" rx="1" style="fill:#8B5E3C;stroke:#D4A76A;stroke-width:0.5;opacity:0.6;"/>

  <!-- ============ BRICK PATTERN - LEFT SIDE ============ -->
  <rect x="2" y="38" width="11" height="35" rx="1" style="fill:#9B6B4A;stroke:#D4A76A;stroke-width:0.5;opacity:0.5;"/>
  <rect x="2" y="75" width="11" height="42" rx="1" style="fill:#8B5E3C;stroke:#D4A76A;stroke-width:0.5;opacity:0.5;"/>
  <rect x="2" y="119" width="11" height="38" rx="1" style="fill:#9B6B4A;stroke:#D4A76A;stroke-width:0.5;opacity:0.5;"/>
  <rect x="2" y="159" width="11" height="45" rx="1" style="fill:#8B5E3C;stroke:#D4A76A;stroke-width:0.5;opacity:0.5;"/>
  <rect x="2" y="206" width="11" height="35" rx="1" style="fill:#9B6B4A;stroke:#D4A76A;stroke-width:0.5;opacity:0.5;"/>
  <rect x="2" y="243" width="11" height="42" rx="1" style="fill:#8B5E3C;stroke:#D4A76A;stroke-width:0.5;opacity:0.5;"/>
  <rect x="2" y="287" width="11" height="38" rx="1" style="fill:#9B6B4A;stroke:#D4A76A;stroke-width:0.5;opacity:0.5;"/>
  <rect x="2" y="327" width="11" height="45" rx="1" style="fill:#8B5E3C;stroke:#D4A76A;stroke-width:0.5;opacity:0.5;"/>
  <rect x="2" y="374" width="11" height="35" rx="1" style="fill:#9B6B4A;stroke:#D4A76A;stroke-width:0.5;opacity:0.5;"/>
  <rect x="2" y="411" width="11" height="51" rx="1" style="fill:#8B5E3C;stroke:#D4A76A;stroke-width:0.5;opacity:0.5;"/>

  <rect x="15" y="38" width="11" height="40" rx="1" style="fill:#8B5E3C;stroke:#D4A76A;stroke-width:0.5;opacity:0.45;"/>
  <rect x="15" y="80" width="11" height="38" rx="1" style="fill:#9B6B4A;stroke:#D4A76A;stroke-width:0.5;opacity:0.45;"/>
  <rect x="15" y="120" width="11" height="45" rx="1" style="fill:#8B5E3C;stroke:#D4A76A;stroke-width:0.5;opacity:0.45;"/>
  <rect x="15" y="167" width="11" height="35" rx="1" style="fill:#9B6B4A;stroke:#D4A76A;stroke-width:0.5;opacity:0.45;"/>
  <rect x="15" y="204" width="11" height="42" rx="1" style="fill:#8B5E3C;stroke:#D4A76A;stroke-width:0.5;opacity:0.45;"/>
  <rect x="15" y="248" width="11" height="40" rx="1" style="fill:#9B6B4A;stroke:#D4A76A;stroke-width:0.5;opacity:0.45;"/>
  <rect x="15" y="290" width="11" height="38" rx="1" style="fill:#8B5E3C;stroke:#D4A76A;stroke-width:0.5;opacity:0.45;"/>
  <rect x="15" y="330" width="11" height="45" rx="1" style="fill:#9B6B4A;stroke:#D4A76A;stroke-width:0.5;opacity:0.45;"/>
  <rect x="15" y="377" width="11" height="35" rx="1" style="fill:#8B5E3C;stroke:#D4A76A;stroke-width:0.5;opacity:0.45;"/>
  <rect x="15" y="414" width="11" height="48" rx="1" style="fill:#9B6B4A;stroke:#D4A76A;stroke-width:0.5;opacity:0.45;"/>

  <rect x="28" y="38" width="8" height="38" rx="1" style="fill:#9B6B4A;stroke:#D4A76A;stroke-width:0.5;opacity:0.4;"/>
  <rect x="28" y="78" width="8" height="42" rx="1" style="fill:#8B5E3C;stroke:#D4A76A;stroke-width:0.5;opacity:0.4;"/>
  <rect x="28" y="122" width="8" height="35" rx="1" style="fill:#9B6B4A;stroke:#D4A76A;stroke-width:0.5;opacity:0.4;"/>
  <rect x="28" y="159" width="8" height="48" rx="1" style="fill:#8B5E3C;stroke:#D4A76A;stroke-width:0.5;opacity:0.4;"/>
  <rect x="28" y="209" width="8" height="38" rx="1" style="fill:#9B6B4A;stroke:#D4A76A;stroke-width:0.5;opacity:0.4;"/>
  <rect x="28" y="249" width="8" height="42" rx="1" style="fill:#8B5E3C;stroke:#D4A76A;stroke-width:0.5;opacity:0.4;"/>
  <rect x="28" y="293" width="8" height="35" rx="1" style="fill:#9B6B4A;stroke:#D4A76A;stroke-width:0.5;opacity:0.4;"/>
  <rect x="28" y="330" width="8" height="45" rx="1" style="fill:#8B5E3C;stroke:#D4A76A;stroke-width:0.5;opacity:0.4;"/>
  <rect x="28" y="377" width="8" height="38" rx="1" style="fill:#9B6B4A;stroke:#D4A76A;stroke-width:0.5;opacity:0.4;"/>
  <rect x="28" y="417" width="8" height="45" rx="1" style="fill:#8B5E3C;stroke:#D4A76A;stroke-width:0.5;opacity:0.4;"/>

  <!-- ============ BRICK PATTERN - RIGHT SIDE ============ -->
  <rect x="487" y="38" width="11" height="35" rx="1" style="fill:#9B6B4A;stroke:#D4A76A;stroke-width:0.5;opacity:0.5;"/>
  <rect x="487" y="75" width="11" height="42" rx="1" style="fill:#8B5E3C;stroke:#D4A76A;stroke-width:0.5;opacity:0.5;"/>
  <rect x="487" y="119" width="11" height="38" rx="1" style="fill:#9B6B4A;stroke:#D4A76A;stroke-width:0.5;opacity:0.5;"/>
  <rect x="487" y="159" width="11" height="45" rx="1" style="fill:#8B5E3C;stroke:#D4A76A;stroke-width:0.5;opacity:0.5;"/>
  <rect x="487" y="206" width="11" height="35" rx="1" style="fill:#9B6B4A;stroke:#D4A76A;stroke-width:0.5;opacity:0.5;"/>
  <rect x="487" y="243" width="11" height="42" rx="1" style="fill:#8B5E3C;stroke:#D4A76A;stroke-width:0.5;opacity:0.5;"/>
  <rect x="487" y="287" width="11" height="38" rx="1" style="fill:#9B6B4A;stroke:#D4A76A;stroke-width:0.5;opacity:0.5;"/>
  <rect x="487" y="327" width="11" height="45" rx="1" style="fill:#8B5E3C;stroke:#D4A76A;stroke-width:0.5;opacity:0.5;"/>
  <rect x="487" y="374" width="11" height="35" rx="1" style="fill:#9B6B4A;stroke:#D4A76A;stroke-width:0.5;opacity:0.5;"/>
  <rect x="487" y="411" width="11" height="51" rx="1" style="fill:#8B5E3C;stroke:#D4A76A;stroke-width:0.5;opacity:0.5;"/>

  <rect x="474" y="38" width="11" height="40" rx="1" style="fill:#8B5E3C;stroke:#D4A76A;stroke-width:0.5;opacity:0.45;"/>
  <rect x="474" y="80" width="11" height="38" rx="1" style="fill:#9B6B4A;stroke:#D4A76A;stroke-width:0.5;opacity:0.45;"/>
  <rect x="474" y="120" width="11" height="45" rx="1" style="fill:#8B5E3C;stroke:#D4A76A;stroke-width:0.5;opacity:0.45;"/>
  <rect x="474" y="167" width="11" height="35" rx="1" style="fill:#9B6B4A;stroke:#D4A76A;stroke-width:0.5;opacity:0.45;"/>
  <rect x="474" y="204" width="11" height="42" rx="1" style="fill:#8B5E3C;stroke:#D4A76A;stroke-width:0.5;opacity:0.45;"/>
  <rect x="474" y="248" width="11" height="40" rx="1" style="fill:#9B6B4A;stroke:#D4A76A;stroke-width:0.5;opacity:0.45;"/>
  <rect x="474" y="290" width="11" height="38" rx="1" style="fill:#8B5E3C;stroke:#D4A76A;stroke-width:0.5;opacity:0.45;"/>
  <rect x="474" y="330" width="11" height="45" rx="1" style="fill:#9B6B4A;stroke:#D4A76A;stroke-width:0.5;opacity:0.45;"/>
  <rect x="474" y="377" width="11" height="35" rx="1" style="fill:#8B5E3C;stroke:#D4A76A;stroke-width:0.5;opacity:0.45;"/>
  <rect x="474" y="414" width="11" height="48" rx="1" style="fill:#9B6B4A;stroke:#D4A76A;stroke-width:0.5;opacity:0.45;"/>

  <rect x="462" y="38" width="10" height="38" rx="1" style="fill:#9B6B4A;stroke:#D4A76A;stroke-width:0.5;opacity:0.4;"/>
  <rect x="462" y="78" width="10" height="42" rx="1" style="fill:#8B5E3C;stroke:#D4A76A;stroke-width:0.5;opacity:0.4;"/>
  <rect x="462" y="122" width="10" height="35" rx="1" style="fill:#9B6B4A;stroke:#D4A76A;stroke-width:0.5;opacity:0.4;"/>
  <rect x="462" y="159" width="10" height="48" rx="1" style="fill:#8B5E3C;stroke:#D4A76A;stroke-width:0.5;opacity:0.4;"/>
  <rect x="462" y="209" width="10" height="38" rx="1" style="fill:#9B6B4A;stroke:#D4A76A;stroke-width:0.5;opacity:0.4;"/>
  <rect x="462" y="249" width="10" height="42" rx="1" style="fill:#8B5E3C;stroke:#D4A76A;stroke-width:0.5;opacity:0.4;"/>
  <rect x="462" y="293" width="10" height="35" rx="1" style="fill:#9B6B4A;stroke:#D4A76A;stroke-width:0.5;opacity:0.4;"/>
  <rect x="462" y="330" width="10" height="45" rx="1" style="fill:#8B5E3C;stroke:#D4A76A;stroke-width:0.5;opacity:0.4;"/>
  <rect x="462" y="377" width="10" height="38" rx="1" style="fill:#9B6B4A;stroke:#D4A76A;stroke-width:0.5;opacity:0.4;"/>
  <rect x="462" y="417" width="10" height="45" rx="1" style="fill:#8B5E3C;stroke:#D4A76A;stroke-width:0.5;opacity:0.4;"/>

  <!-- ============ WAVE ACCENT along inner edge of top border ============ -->
  <path d="M40,36 Q50,30 60,36 Q70,42 80,36 Q90,30 100,36 Q110,42 120,36 Q130,30 140,36 Q150,42 160,36 Q170,30 180,36 Q190,42 200,36 Q210,30 220,36 Q230,42 240,36 Q250,30 260,36 Q270,42 280,36 Q290,30 300,36 Q310,42 320,36 Q330,30 340,36 Q350,42 360,36 Q370,30 380,36 Q390,42 400,36 Q410,30 420,36 Q430,42 440,36 Q450,30 460,36" style="fill:none;stroke:#2980b9;stroke-width:1;opacity:0.35;"/>

  <!-- ============ WAVE ACCENT along inner edge of bottom border ============ -->
  <path d="M40,464 Q50,458 60,464 Q70,470 80,464 Q90,458 100,464 Q110,470 120,464 Q130,458 140,464 Q150,470 160,464 Q170,458 180,464 Q190,470 200,464 Q210,458 220,464 Q230,470 240,464 Q250,458 260,464 Q270,470 280,464 Q290,458 300,464 Q310,470 320,464 Q330,458 340,464 Q350,470 360,464 Q370,458 380,464 Q390,470 400,464 Q410,458 420,464 Q430,470 440,464 Q450,458 460,464" style="fill:none;stroke:#2980b9;stroke-width:1;opacity:0.35;"/>

  <!-- ============ INNER FRAME LINE (defines drawing area) ============ -->
  <rect x="37" y="37" width="426" height="426" rx="2" ry="2" style="fill:none;stroke:#3D2B1F;stroke-width:1.2;opacity:0.4;"/>

  <!-- ============ CORNER DECORATIONS ============ -->
  <!-- Top-left: small staff -->
  <line x1="40" y1="40" x2="40" y2="55" style="stroke:#5a3215;stroke-width:1.5;opacity:0.4;stroke-linecap:round;"/>
  <path d="M40,40 Q40,36 43,35 Q45,34.5 46,37" style="fill:none;stroke:#5a3215;stroke-width:1.2;opacity:0.4;stroke-linecap:round;"/>

  <!-- Top-right: small tablets -->
  <rect x="450" y="40" width="5" height="8" rx="1" style="fill:none;stroke:#808080;stroke-width:0.6;opacity:0.35;"/>
  <rect x="456" y="40" width="5" height="8" rx="1" style="fill:none;stroke:#808080;stroke-width:0.6;opacity:0.35;"/>

  <!-- Bottom-left: small flame -->
  <path d="M43,458 Q41,454 42,451 Q43,448 44,451 Q45,454 43,458 Z" style="fill:#C5961A;opacity:0.35;"/>

  <!-- Bottom-right: small wave -->
  <path d="M450,458 Q455,454 460,458" style="fill:none;stroke:#2980b9;stroke-width:1;opacity:0.35;"/>

  <!-- ============ EMPTY CENTER DRAWING AREA ============ -->
  <!-- The area inside rect(38, 38, 424, 424) is intentionally blank for drawing -->

  <!-- Very subtle "Draw Here" prompt (can be removed) -->
  <text x="250" y="254" style="font-family:'Georgia','Times New Roman',serif;font-size:14px;fill:#D4A76A;text-anchor:middle;opacity:0.15;letter-spacing:3px;">DRAW HERE</text>
</svg>