<svg xmlns="http://www.w3.org/2000/svg" viewBox="0 0 500 600">
  <g transform="translate(15.0,144.5) scale(0.8545)">
    <path d="M0 0 C4.582 3.593 6.269 7.32 7.105 13.016 C7.157 13.584 7.209 14.153 7.262 14.738 C7.795 14.401 8.329 14.063 8.879 13.715 C18.037 8.233 28.131 6.198 38.715 8.203 C44.134 9.72 47.41 11.679 50.262 16.738 C50.866 21.302 50.719 25.367 49.262 29.738 C50.21 29.862 51.159 29.986 52.137 30.113 C55.262 30.738 55.262 30.738 57.262 32.738 C57.699 35.613 57.699 35.613 57.262 38.738 C54.57 41.683 52.051 42.838 48.324 43.926 C43.687 45.5 42.32 48.39 39.887 52.449 C35.78 58.235 29.114 61.469 22.262 62.738 C17.008 63.225 13.185 62.219 8.375 60.297 C4.435 59.255 1.755 60.964 -1.676 62.801 C-9.158 66.161 -17.418 65.862 -25.113 63.238 C-30.301 60.889 -33.347 57.19 -36.738 52.738 C-37.398 52.078 -38.058 51.418 -38.738 50.738 C-39.687 51.089 -40.636 51.44 -41.613 51.801 C-47.743 53.529 -53.575 52.879 -59.176 49.926 C-62.583 47.018 -64.413 45.156 -65.426 40.738 C-67.144 36.811 -69.049 36.338 -72.824 34.656 C-75.42 33.412 -76.598 32.4 -77.738 29.738 C-77.738 25.465 -77.413 23.469 -74.488 20.301 C-71.557 18.635 -70.044 18.361 -66.738 18.738 C-66.738 19.398 -66.738 20.058 -66.738 20.738 C-67.522 21.027 -68.306 21.316 -69.113 21.613 C-71.835 22.587 -71.835 22.587 -73.738 24.738 C-74.574 27.106 -74.574 27.106 -73.738 29.738 C-71.259 31.752 -68.536 33.214 -65.738 34.738 C-62.738 36.738 -62.738 36.738 -62.148 38.578 C-62.034 39.27 -61.919 39.963 -61.801 40.676 C-61.171 43.572 -60.954 44.523 -58.801 46.676 C-54.867 48.702 -51.732 48.873 -47.363 48.863 C-46.242 48.866 -45.12 48.868 -43.965 48.871 C-41.096 48.753 -38.526 48.396 -35.738 47.738 C-35.421 48.258 -35.104 48.777 -34.777 49.312 C-30.805 55.249 -26.632 58.671 -19.738 60.738 C-11.727 61.938 -5.744 61.018 1.141 56.734 C3.262 55.738 3.262 55.738 5.375 56.02 C6.886 56.595 8.388 57.194 9.887 57.801 C17.175 59.825 23.471 59.345 30.23 55.93 C34.92 53.179 37.955 50.46 40.449 45.676 C43.169 40.912 46.966 39.884 52.031 38.332 C53.135 38.038 53.135 38.038 54.262 37.738 C54.262 36.418 54.262 35.098 54.262 33.738 C51.292 33.078 48.322 32.418 45.262 31.738 C45.262 28.738 45.262 28.738 46.324 26.488 C47.562 22.857 47.153 20.439 46.262 16.738 C44.379 14.138 42.23 12.896 39.262 11.738 C36.34 11.491 33.558 11.358 30.637 11.363 C29.833 11.364 29.029 11.365 28.201 11.366 C21.289 11.503 14.971 12.56 9.57 17.188 C8.029 18.82 8.029 18.82 7.262 21.738 C6.602 21.738 5.942 21.738 5.262 21.738 C5.097 20.526 5.097 20.526 4.93 19.289 C4.771 18.22 4.613 17.152 4.449 16.051 C4.223 14.467 4.223 14.467 3.992 12.852 C3.224 9.577 2.246 7.442 0.262 4.738 C-5.245 1.667 -9.802 0.849 -15.969 2.242 C-22.514 4.161 -26.892 6.968 -30.738 12.738 C-31.44 14.726 -32.112 16.725 -32.738 18.738 C-35.744 17.236 -35.71 14.822 -36.738 11.738 C-40.199 10.008 -43.948 10.391 -47.738 10.738 C-52.94 12.611 -56.712 16.057 -60.738 19.738 C-59.364 14.545 -55.995 11.734 -51.738 8.738 C-48.703 7.727 -46.541 7.573 -43.363 7.551 C-41.959 7.53 -41.959 7.53 -40.527 7.508 C-37.577 7.752 -35.415 8.507 -32.738 9.738 C-31.779 8.408 -31.779 8.408 -30.801 7.051 C-23.328 -1.64 -10.66 -4.912 0 0 Z " fill="#333" transform="translate(118.73828125,1.26171875)"/>
    <path d="M0 0 C3.002 1.302 3.866 2.347 6 5 C6.875 8.312 6.875 8.312 7 11 C8.134 10.34 9.269 9.68 10.438 9 C15.024 6.67 18.947 6.579 24 7 C24 7.66 24 8.32 24 9 C23.42 9.026 22.84 9.052 22.242 9.078 C16.704 9.48 13.517 10.559 9 14 C8.01 14.33 7.02 14.66 6 15 C5.83 14.385 5.66 13.77 5.484 13.137 C5.121 11.924 5.121 11.924 4.75 10.688 C4.518 9.887 4.286 9.086 4.047 8.262 C2.768 5.499 1.647 4.483 -1 3 C-5.627 2.221 -9.921 2.66 -14.375 4.062 C-17.856 6.632 -19.103 9.132 -21 13 C-21.66 13 -22.32 13 -23 13 C-23.66 11.35 -24.32 9.7 -25 8 C-24.415 7.897 -23.83 7.794 -23.227 7.688 C-20.651 6.892 -19.352 5.812 -17.375 4 C-12.047 -0.84 -7.084 -0.813 0 0 Z " fill="#333" transform="translate(501,3)"/>
    <path d="M0 0 C0.33 0.66 0.66 1.32 1 2 C0.004 2.164 0.004 2.164 -1.012 2.332 C-5.909 3.211 -9.902 3.995 -14 7 C-12.946 3.944 -12.028 3.018 -9.25 1.25 C-5.892 -0.041 -3.56 -0.254 0 0 Z " fill="#333" transform="translate(475,9)"/>
    <path d="M0 0 C3.987 -0.475 5.82 -0.1 9.375 1.875 C11.483 3.768 11.959 4.719 12.375 7.559 C12.375 10.067 12.261 12.506 12 15 C12.99 15.33 13.98 15.66 15 16 C15 16.33 15 16.66 15 17 C13.02 17 11.04 17 9 17 C8.67 16.34 8.34 15.68 8 15 C8.33 14.34 8.66 13.68 9 13 C9.417 9.542 9.417 9.542 9 6 C6.411 3.124 3.761 2.522 0 2 C0 1.34 0 0.68 0 0 Z " fill="#333" transform="translate(527,10)"/>
    <path d="M0 0 C0 0.66 0 1.32 0 2 C-1.207 2.371 -1.207 2.371 -2.438 2.75 C-5.171 3.722 -5.171 3.722 -5.812 6.125 C-5.905 7.053 -5.905 7.053 -6 8 C-5.237 8.454 -4.474 8.907 -3.688 9.375 C1.91 12.759 1.91 12.759 3.312 16.5 C4.651 20.166 4.651 20.166 7.75 21.438 C11.234 22.04 14.471 22.141 18 22 C18 22.66 18 23.32 18 24 C12.695 25.083 9.072 24.951 4 23 C1.55 21.25 0.936 19.857 -0.312 17.062 C-1.815 13.774 -1.815 13.774 -5.125 11.938 C-8 10 -8 10 -9.188 7.562 C-9 5 -9 5 -6.812 2.188 C-4 0 -4 0 0 0 Z " fill="#333" transform="translate(456,17)"/>
    <path d="M0 0 C0.66 0.536 1.32 1.072 2 1.625 C5.371 3.943 9.132 2.686 13 2 C13 2.66 13 3.32 13 4 C11.005 4.68 9.004 5.345 7 6 C6.319 6.309 5.639 6.619 4.938 6.938 C3.978 6.968 3.978 6.968 3 7 C2.237 6.196 1.474 5.391 0.688 4.562 C-1.807 1.69 -1.807 1.69 -5.438 1.5 C-9.259 2.036 -11.741 2.953 -15 5 C-17.429 8.644 -17.162 10.712 -17 15 C-20 15 -20 15 -22.875 13.812 C-25.966 12.681 -25.966 12.681 -28.688 14.062 C-31.229 16.192 -32.494 18.06 -34 21 C-34.392 21.763 -34.784 22.526 -35.188 23.312 C-35.456 23.869 -35.724 24.426 -36 25 C-37.243 22.062 -37.013 21.033 -35.812 18 C-32.774 12.971 -32.774 12.971 -30 11 C-28.524 10.87 -27.043 10.792 -25.562 10.75 C-23.179 10.685 -23.179 10.685 -21 10 C-19.404 8.098 -18.384 6.141 -17.227 3.949 C-13.459 -2.038 -6.066 -1.621 0 0 Z " fill="#333" transform="translate(244,19)"/>
    <path d="M0 0 C3.884 0.271 5.732 0.785 8.812 3.25 C11.012 6.015 11.703 7.532 12 11 C11.34 11 10.68 11 10 11 C9.649 10.072 9.299 9.144 8.938 8.188 C6.401 4.014 4.529 3.538 0 2 C0 1.34 0 0.68 0 0 Z " fill="#333" transform="translate(263,21)"/>
    <path d="M0 0 C0.495 1.98 0.495 1.98 1 4 C-1.135 5.739 -2.786 6.934 -5.438 7.75 C-8.207 9.101 -8.75 9.872 -10.375 12.375 C-13.368 16.907 -16.91 18.841 -22 20.75 C-26.548 21.319 -30.246 21.247 -34.625 19.812 C-35.739 19.544 -36.853 19.276 -38 19 C-38.752 19.469 -39.503 19.938 -40.277 20.422 C-45.368 23.373 -51.296 22.603 -57 22 C-61.468 19.92 -64.336 17.156 -67 13 C-66.67 12.01 -66.34 11.02 -66 10 C-65.299 10.928 -64.598 11.856 -63.875 12.812 C-60.574 16.692 -57.586 18.722 -52.383 19.281 C-46.638 19.468 -43.092 18.789 -38 16 C-35.625 16.25 -35.625 16.25 -33 17 C-26.807 18.218 -22.591 18.126 -17 15 C-14.262 12.635 -12.224 10.313 -10.125 7.375 C-7.353 4.277 -4.841 3.522 -1 2 C-0.67 1.34 -0.34 0.68 0 0 Z " fill="#333" transform="translate(543,28)"/>
    <path d="M0 0 C19.783 14.062 24.97 32.871 28.841 55.648 C29.222 57.945 29.587 60.243 29.948 62.543 C30.124 63.634 30.124 63.634 30.304 64.748 C30.626 66.749 30.935 68.753 31.243 70.757 C32.463 75.972 34.483 79.313 39.039 82.16 C41.98 83.141 43.864 83.276 46.926 83.258 C47.864 83.255 48.801 83.251 49.768 83.248 C50.744 83.24 51.721 83.231 52.727 83.223 C53.715 83.218 54.703 83.214 55.721 83.209 C58.16 83.197 60.6 83.181 63.039 83.16 C62.038 85.856 61.02 88.189 59.445 90.605 C56.922 95.19 57.289 100.083 58.039 105.16 C59.418 108.024 60.875 109.779 63.039 112.16 C59.483 114.461 56.092 115.935 52.039 117.16 C53.31 120.503 54.79 123.546 56.539 126.66 C60.672 134.901 61.141 143.483 61.082 152.582 C61.076 153.82 61.07 155.059 61.063 156.335 C61.055 157.267 61.047 158.2 61.039 159.16 C61.614 159.272 62.19 159.384 62.782 159.499 C68.903 160.692 75.021 161.895 81.138 163.103 C83.405 163.55 85.673 163.994 87.942 164.435 C103.472 167.459 118.782 170.962 134.039 175.16 C134.039 175.82 134.039 176.48 134.039 177.16 C127.867 176.493 121.917 175.346 115.863 173.98 C113.88 173.542 111.896 173.103 109.912 172.664 C106.836 171.979 103.761 171.293 100.686 170.604 C87.521 167.661 74.395 165.073 61.039 163.16 C60.462 169.064 59.893 174.968 59.33 180.873 C59.138 182.876 58.944 184.88 58.748 186.883 C57.353 201.156 56.551 214.906 57.852 229.223 C57.983 230.703 57.983 230.703 58.117 232.212 C58.932 240.897 60.212 249.466 61.691 258.059 C62.027 260.088 62.325 262.119 62.605 264.156 C62.769 265.333 62.933 266.51 63.102 267.723 C63.237 268.735 63.372 269.746 63.512 270.789 C63.855 273.334 63.855 273.334 66.039 275.16 C66.354 279.497 66.488 281.487 64.039 285.16 C64.157 289.513 66.086 291.318 68.922 294.426 C70.323 296.601 70.337 298.092 70.414 300.66 C70.701 304.477 70.971 305.079 73.602 308.223 C79.746 312.824 87.129 315.892 94.039 319.16 C94.039 319.49 94.039 319.82 94.039 320.16 C89.84 320.713 87.264 319.923 83.641 317.973 C77.52 314.823 71.196 312.349 64.789 309.848 C52.946 305.18 41.197 300.315 29.477 295.348 C16.957 290.049 4.418 284.802 -8.172 279.67 C-9.814 279.001 -11.455 278.329 -13.095 277.656 C-15.365 276.725 -17.637 275.801 -19.91 274.879 C-20.92 274.463 -20.92 274.463 -21.95 274.039 C-24.793 272.894 -26.863 272.16 -29.961 272.16 C-32.023 273.972 -32.023 273.972 -33.961 276.16 C-34.961 277.16 -35.961 278.16 -36.961 279.16 C-36.281 279.266 -35.601 279.373 -34.9 279.482 C-31.4 280.29 -28.221 281.6 -24.934 283.012 C-23.506 283.615 -22.078 284.217 -20.651 284.82 C-19.898 285.14 -19.145 285.46 -18.37 285.789 C-4.329 291.749 9.783 297.512 23.977 303.098 C24.776 303.413 25.575 303.728 26.399 304.052 C33.935 307.02 41.478 309.965 49.062 312.809 C50.563 313.371 50.563 313.371 52.094 313.946 C53.866 314.606 55.642 315.259 57.42 315.904 C62.931 317.945 62.931 317.945 64.039 320.16 C58.503 320.622 54.724 320.262 49.629 318 C45.143 316.059 40.646 314.196 36.09 312.426 C34.837 311.938 33.584 311.449 32.331 310.961 C31.684 310.709 31.037 310.457 30.371 310.198 C16.233 304.684 2.182 298.972 -11.836 293.16 C-12.712 292.797 -13.588 292.435 -14.491 292.061 C-23.716 288.24 -32.917 284.398 -41.961 280.16 C-39.662 282.859 -37.327 285.52 -34.961 288.16 C-34.343 288.858 -33.726 289.555 -33.09 290.273 C-22.963 301.071 -9.932 308.875 2.857 316.127 C4.598 317.115 6.321 318.134 8.039 319.16 C8.039 319.49 8.039 319.82 8.039 320.16 C1.315 320.691 -2.196 319.479 -7.711 315.723 C-8.404 315.268 -9.097 314.814 -9.812 314.345 C-23.076 305.553 -34.876 295.553 -45.961 284.16 C-46.518 284.511 -47.075 284.861 -47.648 285.223 C-50.5 286.379 -52.046 285.97 -54.961 285.16 C-55.086 277.41 -55.086 277.41 -53.961 275.16 C-54.951 275.16 -55.941 275.16 -56.961 275.16 C-57.147 275.738 -57.332 276.315 -57.523 276.91 C-59.605 280.167 -62.306 281.921 -65.961 283.16 C-68.898 282.41 -68.898 282.41 -70.961 281.16 C-70.414 277.786 -69.906 276.078 -67.961 273.16 C-69.033 273.676 -70.106 274.191 -71.211 274.723 C-73.554 275.726 -74.7 276.181 -77.273 275.973 C-78.961 275.16 -78.961 275.16 -80.961 273.16 C-80.566 270.197 -79.363 267.777 -77.961 265.16 C-79.611 264.83 -81.261 264.5 -82.961 264.16 C-82.996 264.729 -83.032 265.298 -83.068 265.884 C-83.439 271.838 -83.812 277.792 -84.188 283.746 C-84.327 285.964 -84.466 288.182 -84.604 290.401 C-84.803 293.601 -85.005 296.8 -85.207 300 C-85.267 300.982 -85.328 301.963 -85.39 302.975 C-85.757 308.728 -86.279 314.435 -86.961 320.16 C-88.281 320.16 -89.601 320.16 -90.961 320.16 C-91.305 309.357 -90.28 298.609 -89.461 287.848 C-89.245 284.988 -89.031 282.127 -88.819 279.267 C-88.688 277.498 -88.554 275.73 -88.418 273.961 C-88.099 269.682 -87.888 265.456 -87.961 261.16 C-92.959 258.936 -97.958 256.712 -102.957 254.489 C-104.656 253.734 -106.354 252.978 -108.052 252.222 C-110.502 251.132 -112.952 250.043 -115.402 248.953 C-116.154 248.619 -116.905 248.284 -117.679 247.939 C-119.102 247.307 -120.527 246.678 -121.953 246.052 C-123.281 245.462 -124.602 244.855 -125.915 244.231 C-129.499 242.568 -130.756 242.12 -134.773 242.91 C-137.687 243.44 -138.747 243.274 -141.41 241.855 C-143.058 240.679 -144.682 239.467 -146.273 238.215 C-153.7 232.537 -161.849 228.647 -170.336 224.785 C-171.504 224.227 -172.672 223.669 -173.875 223.094 C-180.804 219.948 -186.464 217.814 -193.961 220.16 C-196.603 221.576 -196.603 221.576 -198.398 223.598 C-203.92 229.119 -203.92 229.119 -208.148 229.285 C-209.077 229.244 -210.005 229.203 -210.961 229.16 C-211.76 225.873 -212.058 224.45 -210.961 221.16 C-212.291 222.15 -212.291 222.15 -213.648 223.16 C-216.936 225.145 -218.246 225.779 -221.961 225.16 C-223.961 223.16 -223.961 223.16 -224.023 220.91 C-222.445 216.825 -219.384 214.761 -215.961 212.16 C-219.571 212.816 -219.571 212.816 -222.961 214.16 C-230.428 214.516 -230.428 214.516 -233.961 212.16 C-234.148 209.535 -234.148 209.535 -233.961 207.16 C-232.505 206.489 -231.046 205.823 -229.586 205.16 C-228.774 204.789 -227.962 204.418 -227.125 204.035 C-224.961 203.16 -224.961 203.16 -222.961 203.16 C-222.961 202.5 -222.961 201.84 -222.961 201.16 C-223.507 200.99 -224.053 200.82 -224.615 200.645 C-230.243 198.838 -235.555 196.649 -240.906 194.148 C-242.577 193.383 -244.247 192.618 -245.918 191.854 C-248.512 190.661 -251.104 189.464 -253.692 188.259 C-256.216 187.085 -258.748 185.928 -261.281 184.773 C-262.048 184.411 -262.815 184.049 -263.605 183.675 C-271.456 180.125 -277.717 181.082 -285.82 183.215 C-286.67 183.432 -287.519 183.648 -288.394 183.872 C-291.169 184.584 -293.94 185.308 -296.711 186.035 C-298.651 186.539 -300.592 187.043 -302.532 187.547 C-352.33 200.068 -352.33 200.068 -399.928 218.963 C-404.674 221.256 -404.674 221.256 -407.961 220.16 C-373.067 200.612 -331.294 191.206 -292.798 181.586 C-291.941 181.369 -291.084 181.152 -290.201 180.928 C-288.595 180.522 -286.989 180.123 -285.38 179.732 C-283.557 179.269 -281.756 178.723 -279.961 178.16 C-279.631 177.5 -279.301 176.84 -278.961 176.16 C-279.887 175.957 -279.887 175.957 -280.832 175.75 C-287.724 173.998 -292.914 171.217 -297.961 166.16 C-298.531 165.144 -299.1 164.127 -299.687 163.08 C-301.673 159.914 -301.673 159.914 -304.891 159.418 C-306.603 159.425 -306.603 159.425 -308.349 159.431 C-310.301 159.418 -310.301 159.418 -312.292 159.403 C-313.719 159.424 -315.147 159.446 -316.574 159.469 C-318.064 159.472 -319.553 159.474 -321.043 159.473 C-324.184 159.478 -327.325 159.502 -330.467 159.543 C-334.393 159.593 -338.318 159.605 -342.245 159.603 C-361.512 159.605 -380.427 160.652 -399.573 162.805 C-405.027 163.376 -410.492 163.776 -415.961 164.16 C-415.631 163.17 -415.301 162.18 -414.961 161.16 C-410.357 160.605 -405.753 160.054 -401.149 159.506 C-399.588 159.32 -398.028 159.133 -396.468 158.945 C-394.202 158.671 -391.935 158.402 -389.668 158.133 C-388.991 158.05 -388.315 157.968 -387.618 157.883 C-376.061 156.523 -364.542 155.992 -352.91 155.844 C-351.516 155.823 -350.122 155.802 -348.728 155.781 C-345.107 155.726 -341.485 155.677 -337.864 155.628 C-334.149 155.577 -330.435 155.522 -326.721 155.467 C-319.468 155.36 -312.214 155.258 -304.961 155.16 C-305.673 152.579 -306.407 150.008 -307.156 147.438 C-307.354 146.712 -307.552 145.986 -307.755 145.238 C-309.534 139.242 -312.222 136.472 -317.445 132.977 C-321.469 130.071 -324.14 126.195 -326.961 122.16 C-335.78 123.331 -344.461 124.782 -353.172 126.574 C-362.086 127.953 -367.737 126.509 -376.023 123.223 C-384.738 119.583 -384.738 119.583 -393.961 118.16 C-397.045 119.458 -397.045 119.458 -399.836 121.598 C-400.861 122.329 -401.886 123.059 -402.941 123.812 C-406.553 126.62 -409.979 129.565 -413.316 132.691 C-414.961 134.16 -414.961 134.16 -415.961 134.16 C-416.23 131.902 -416.23 131.902 -415.961 129.16 C-413.076 125.969 -409.466 123.637 -405.961 121.16 C-405.015 120.477 -404.069 119.794 -403.094 119.09 C-397.756 115.437 -394.611 113.402 -387.961 114.16 C-383.337 115.602 -378.881 117.472 -374.406 119.316 C-363.954 123.392 -355.107 122.525 -344.336 120.16 C-330.183 117.08 -330.183 117.08 -324.961 118.16 C-322.289 120.461 -322.289 120.461 -320.211 123.473 C-317.425 127.419 -315.293 129.941 -310.961 132.16 C-310.831 130.71 -310.831 130.71 -310.699 129.23 C-309.642 119.437 -308.183 110.775 -300.648 103.723 C-292.733 97.709 -283.377 96.519 -273.641 97.492 C-262.772 99.411 -252.73 104.191 -243.668 110.426 C-241.1 112.449 -241.1 112.449 -238.148 111.973 C-236.015 111.353 -236.015 111.353 -234.961 110.16 C-232.523 109.91 -232.523 109.91 -229.961 110.16 C-227.458 113.915 -227.508 115.708 -227.961 120.16 C-230.396 124.937 -233.184 127.725 -237.961 130.16 C-243.7 130.752 -247.231 129.317 -252.023 126.41 C-262.755 120.342 -274.455 116.251 -286.961 118.16 C-289.791 119.476 -291.489 120.477 -293.266 123.051 C-294.06 125.461 -294.16 127.378 -294.086 129.91 C-294.068 130.709 -294.05 131.509 -294.031 132.332 C-294.008 132.935 -293.985 133.539 -293.961 134.16 C-292.242 133.944 -292.242 133.944 -290.488 133.723 C-288.958 133.535 -287.428 133.347 -285.898 133.16 C-284.77 133.017 -284.77 133.017 -283.619 132.871 C-271.268 131.374 -271.268 131.374 -267.766 133.48 C-267.129 134.076 -266.492 134.672 -265.836 135.285 C-258.269 141.593 -249.715 146.149 -239.676 145.637 C-233.463 144.84 -227.297 143.764 -221.145 142.584 C-207.328 139.959 -207.328 139.959 -200.976 143.954 C-191.877 149.649 -183.319 150.015 -172.747 149.859 C-171.668 149.85 -170.588 149.841 -169.477 149.832 C-168.51 149.802 -167.544 149.772 -166.548 149.741 C-163.213 150.281 -162.277 151.796 -159.961 154.16 C-157.743 154.56 -157.743 154.56 -155.391 154.184 C-154.06 154.046 -154.06 154.046 -152.702 153.905 C-151.756 153.783 -150.81 153.661 -149.836 153.535 C-147.84 153.3 -145.844 153.066 -143.848 152.832 C-142.853 152.71 -141.858 152.588 -140.833 152.463 C-138.245 152.19 -135.706 152.051 -133.105 151.988 C-121.155 151.559 -114.437 147.132 -105.204 139.852 C-101.269 136.884 -97.085 134.317 -92.898 131.723 C-92.125 131.239 -91.352 130.756 -90.555 130.258 C-89.811 129.794 -89.067 129.33 -88.301 128.852 C-87.581 128.401 -86.861 127.95 -86.12 127.486 C-84.662 126.591 -83.189 125.718 -81.705 124.867 C-76.398 121.823 -76.398 121.823 -73.711 116.473 C-72.538 111.425 -73.395 107.792 -75.578 103.152 C-77.563 100.293 -79.635 99.868 -82.961 99.16 C-85.92 96.124 -86.348 93.758 -86.523 89.598 C-86.696 85.754 -86.767 84.45 -88.961 81.16 C-88.961 77.66 -88.961 77.66 -87.961 74.16 C-84.898 72.223 -84.898 72.223 -81.961 71.16 C-82.247 61.768 -82.676 54.25 -89.711 47.535 C-93.189 43.594 -92.58 38.682 -92.359 33.703 C-91.783 28.581 -91.04 24.383 -87.961 20.16 C-85.409 18.13 -82.798 16.54 -79.961 14.934 C-73.942 11.376 -68.76 6.565 -63.469 2.02 C-43.052 -15.071 -21.912 -14.262 0 0 Z M-64.461 6.348 C-65.416 7.151 -65.416 7.151 -66.39 7.971 C-67.954 9.321 -69.463 10.736 -70.961 12.16 C-70.961 12.82 -70.961 13.48 -70.961 14.16 C-69.983 14.137 -69.004 14.114 -67.996 14.09 C-51.895 13.868 -40.387 17.093 -28.367 28.504 C-14.899 43.371 -8.304 63.178 -2.081 81.857 C4.337 101 4.337 101 18.504 114.465 C29.89 119.202 40.465 117.296 52.039 114.16 C52.039 113.5 52.039 112.84 52.039 112.16 C51.121 111.99 50.203 111.82 49.258 111.645 C35.346 108.897 27.526 104.951 19.414 93.16 C13.275 83.103 10.488 71.77 9.039 60.16 C9.699 60.16 10.359 60.16 11.039 60.16 C11.053 60.708 11.067 61.256 11.082 61.82 C12.017 77.363 18.673 91.891 30.094 102.508 C37.651 108.927 46.225 110.16 56.039 110.16 C55.878 109.46 55.717 108.76 55.551 108.039 C55.012 105.007 54.871 102.175 54.852 99.098 C54.837 98.075 54.823 97.053 54.809 96 C55.041 93.137 55.69 91.639 57.039 89.16 C57.039 88.17 57.039 87.18 57.039 86.16 C56.121 86.183 55.203 86.207 54.258 86.23 C47.471 86.33 41.52 86.234 35.039 84.16 C35.743 92.957 39.793 97.237 46.234 102.742 C47.99 104.219 47.99 104.219 50.039 105.16 C44.914 104.557 41.178 102.565 37.723 98.68 C30.342 88.199 28.34 73.791 26.384 61.392 C21.421 28.877 21.421 28.877 1.039 4.16 C-22.975 -11.71 -42.209 -12.444 -64.461 6.348 Z M-77.961 19.16 C-79.86 21.463 -79.86 21.463 -80.961 24.16 C-81.373 24.985 -81.786 25.81 -82.211 26.66 C-83.087 29.581 -82.644 31.234 -81.961 34.16 C-80.134 33.528 -80.134 33.528 -78.27 32.883 C-76.646 32.329 -75.022 31.776 -73.398 31.223 C-72.599 30.945 -71.799 30.667 -70.975 30.381 C-62.415 27.481 -54.506 27.022 -45.523 27.098 C-44.506 27.102 -43.488 27.107 -42.439 27.111 C-39.947 27.123 -37.454 27.139 -34.961 27.16 C-36.253 23.283 -37.596 22.972 -41.148 21.098 C-42.562 20.338 -42.562 20.338 -44.004 19.562 C-50.15 16.648 -55.187 15.82 -61.898 15.848 C-62.671 15.832 -63.444 15.815 -64.24 15.799 C-69.553 15.794 -73.26 16.647 -77.961 19.16 Z M-84.961 21.16 C-89.595 28.401 -89.388 34.717 -88.961 43.16 C-88.301 43.16 -87.641 43.16 -86.961 43.16 C-86.756 41.991 -86.551 40.822 -86.34 39.617 C-86.068 38.069 -85.796 36.521 -85.523 34.973 C-85.389 34.204 -85.254 33.435 -85.115 32.643 C-84.44 28.806 -83.749 24.976 -82.961 21.16 C-83.621 21.16 -84.281 21.16 -84.961 21.16 Z M-63.273 30.473 C-64.279 30.649 -64.279 30.649 -65.304 30.829 C-69.591 31.666 -73.295 32.757 -76.961 35.16 C-77.89 37.403 -77.89 37.403 -77.836 39.848 C-77.875 40.656 -77.913 41.464 -77.953 42.297 C-77.956 42.912 -77.958 43.527 -77.961 44.16 C-77.064 43.665 -77.064 43.665 -76.148 43.16 C-73.961 42.16 -73.961 42.16 -70.961 42.16 C-73.618 44.343 -75.617 45.436 -78.961 46.16 C-78.469 51.162 -77.872 56.133 -77.086 61.098 C-76.944 62.014 -76.802 62.931 -76.656 63.875 C-76.117 66.514 -76.117 66.514 -72.961 68.16 C-71.333 65.837 -71.333 65.837 -69.961 63.16 C-70.456 61.675 -70.456 61.675 -70.961 60.16 C-71.951 60.16 -72.941 60.16 -73.961 60.16 C-73.961 58.84 -73.961 57.52 -73.961 56.16 C-72.971 56.16 -71.981 56.16 -70.961 56.16 C-70.631 56.82 -70.301 57.48 -69.961 58.16 C-69.301 58.16 -68.641 58.16 -67.961 58.16 C-66.324 56.2 -66.324 56.2 -64.961 54.16 C-65.148 54.715 -65.335 55.269 -65.528 55.841 C-66.37 58.36 -67.197 60.885 -68.023 63.41 C-68.318 64.283 -68.613 65.156 -68.916 66.055 C-69.327 67.321 -69.327 67.321 -69.746 68.613 C-70.131 69.776 -70.131 69.776 -70.524 70.962 C-71.186 73.472 -71.186 73.472 -69.961 77.16 C-66.661 77.82 -63.361 78.48 -59.961 79.16 C-59.28 78.026 -58.6 76.891 -57.898 75.723 C-55.724 72.664 -55.214 72.231 -51.398 71.16 C-47.961 71.16 -47.961 71.16 -45.836 71.848 C-45.217 71.951 -44.598 72.054 -43.961 72.16 C-41.304 70.335 -41.304 70.335 -38.961 68.16 C-35.516 66.437 -31.597 67.205 -27.809 67.32 C-24.756 67.39 -24.756 67.39 -21.961 65.16 C-17.955 65.476 -15.324 67.07 -11.961 69.16 C-11.301 69.16 -10.641 69.16 -9.961 69.16 C-10.47 64.78 -11.368 61.75 -13.961 58.16 C-14.951 57.5 -15.941 56.84 -16.961 56.16 C-17.435 55.356 -17.91 54.551 -18.398 53.723 C-19.769 51.088 -19.769 51.088 -22.023 49.723 C-25.244 47.126 -25.766 43.842 -26.23 39.84 C-26.38 38.266 -26.51 36.69 -26.617 35.113 C-26.809 32.93 -26.809 32.93 -28.961 31.16 C-40.491 28.799 -51.709 28.413 -63.273 30.473 Z M-81.961 36.16 C-84.144 37.922 -84.144 37.922 -84.156 40.105 C-84.121 41.184 -84.121 41.184 -84.086 42.285 C-84.045 43.564 -84.003 44.843 -83.961 46.16 C-83.301 46.16 -82.641 46.16 -81.961 46.16 C-81.301 43.19 -80.641 40.22 -79.961 37.16 C-80.621 36.83 -81.281 36.5 -81.961 36.16 Z M-23.961 40.16 C-22.863 45.568 -22.863 45.568 -18.961 49.16 C-18.631 48.5 -18.301 47.84 -17.961 47.16 C-18.726 45.365 -18.726 45.365 -19.898 43.535 C-20.919 41.865 -20.919 41.865 -21.961 40.16 C-22.621 40.16 -23.281 40.16 -23.961 40.16 Z M-21.961 67.16 C-23.733 68.515 -23.733 68.515 -24.961 70.16 C-25.982 69.634 -25.982 69.634 -27.023 69.098 C-31.712 67.601 -35.403 68.399 -39.773 70.535 C-42.191 72.141 -42.191 72.141 -43.961 75.16 C-44.518 74.83 -45.075 74.5 -45.648 74.16 C-48.35 72.992 -50.046 72.786 -52.961 73.16 C-55.535 75.067 -56.584 77.325 -57.961 80.16 C-59.71 80.242 -61.46 80.3 -63.211 80.348 C-64.185 80.382 -65.16 80.417 -66.164 80.453 C-69.382 80.116 -70.708 79.456 -72.961 77.16 C-73.211 73.973 -73.211 73.973 -72.961 71.16 C-74.281 70.5 -75.601 69.84 -76.961 69.16 C-77.703 69.944 -78.446 70.728 -79.211 71.535 C-81.505 73.725 -83.083 74.987 -85.961 76.16 C-86.219 80.259 -86.219 80.259 -84.98 84.078 C-83.536 87.028 -83.572 89.799 -83.402 93.039 C-82.848 95.705 -82.201 96.619 -79.961 98.16 C-77.335 98.411 -77.335 98.411 -74.961 98.16 C-74.695 98.859 -74.43 99.558 -74.156 100.277 C-73.803 101.187 -73.45 102.097 -73.086 103.035 C-72.738 103.94 -72.39 104.845 -72.031 105.777 C-71.076 108.282 -71.076 108.282 -68.961 110.16 C-64.821 110.357 -61.884 110.468 -57.961 109.16 C-57.301 109.985 -56.641 110.81 -55.961 111.66 C-51.937 115.013 -50.054 114.592 -44.961 114.16 C-44.301 112.84 -43.641 111.52 -42.961 110.16 C-41.971 110.49 -40.981 110.82 -39.961 111.16 C-34.134 111.485 -34.134 111.485 -28.961 109.16 C-27.252 107.619 -27.252 107.619 -25.961 106.16 C-24.971 106.655 -24.971 106.655 -23.961 107.16 C-19.91 107.419 -18.418 107.465 -14.961 105.16 C-14.28 103.737 -14.28 103.737 -13.586 102.285 C-11.961 99.16 -11.961 99.16 -9.336 97.098 C-6.815 95.355 -6.815 95.355 -5.961 92.723 C-5.961 89.394 -6.985 87.795 -8.961 85.16 C-9.621 84.83 -10.281 84.5 -10.961 84.16 C-10.854 83.485 -10.747 82.809 -10.637 82.113 C-10.517 81.221 -10.397 80.329 -10.273 79.41 C-10.146 78.528 -10.018 77.647 -9.887 76.738 C-9.978 73.557 -10.787 72.431 -12.961 70.16 C-15.37 68.913 -15.37 68.913 -17.961 68.16 C-18.662 67.892 -19.363 67.624 -20.086 67.348 C-20.705 67.286 -21.323 67.224 -21.961 67.16 Z M-6.961 79.16 C-7.653 81.007 -7.653 81.007 -7.961 83.16 C-6.971 84.645 -6.971 84.645 -5.961 86.16 C-5.301 86.16 -4.641 86.16 -3.961 86.16 C-4.291 83.85 -4.621 81.54 -4.961 79.16 C-5.621 79.16 -6.281 79.16 -6.961 79.16 Z M-3.961 91.16 C-4.621 93.47 -5.281 95.78 -5.961 98.16 C-4.011 97.965 -4.011 97.965 -1.961 97.16 C-0.569 95.293 -0.569 95.293 0.039 93.16 C-0.291 92.5 -0.621 91.84 -0.961 91.16 C-1.951 91.16 -2.941 91.16 -3.961 91.16 Z M0.039 98.16 C-2.737 99.472 -2.737 99.472 -5.773 101.348 C-6.811 101.96 -7.849 102.572 -8.918 103.203 C-11.985 105.077 -11.985 105.077 -14.57 107.398 C-17.261 109.381 -18.161 109.529 -21.398 109.16 C-26.075 108.927 -28.226 110.274 -31.961 113.16 C-33.607 113.876 -35.268 114.563 -36.961 115.16 C-37.194 121.466 -36.394 127.027 -34.961 133.16 C-34.74 134.111 -34.519 135.061 -34.292 136.041 C-28.337 160.715 -18.991 184.382 -5.961 206.16 C2.606 198.349 7.061 188.346 11.539 177.848 C11.823 177.19 12.106 176.532 12.398 175.855 C19.019 160.453 25.301 144.753 25.102 127.785 C25.097 127.049 25.093 126.313 25.088 125.555 C25.076 123.756 25.058 121.958 25.039 120.16 C24.303 119.773 23.567 119.387 22.809 118.988 C21.833 118.468 20.857 117.947 19.852 117.41 C18.889 116.9 17.926 116.389 16.934 115.863 C11.659 112.76 8.483 109.743 5.352 104.473 C3.313 100.664 3.313 100.664 0.039 98.16 Z M-300.961 109.098 C-306.836 116.559 -307.657 124.896 -306.961 134.16 C-304.679 148.944 -300.124 160.925 -287.961 170.16 C-284.927 171.9 -281.789 173.254 -278.559 174.586 C-277.211 175.164 -277.211 175.164 -275.837 175.753 C-272.905 177.006 -269.964 178.239 -267.023 179.473 C-264.96 180.351 -262.897 181.232 -260.835 182.114 C-256.609 183.921 -252.379 185.722 -248.148 187.519 C-239.782 191.081 -231.459 194.741 -223.139 198.41 C-219.737 199.91 -216.332 201.405 -212.927 202.901 C-210.476 203.977 -208.025 205.054 -205.575 206.132 C-204.8 206.472 -204.025 206.813 -203.227 207.164 C-201.758 207.81 -200.289 208.456 -198.82 209.102 C-180.85 217.004 -162.838 224.799 -144.788 232.517 C-134.117 237.081 -123.456 241.664 -112.836 246.348 C-111.862 246.775 -110.888 247.203 -109.884 247.644 C-105.583 249.538 -101.3 251.459 -97.043 253.449 C-96.292 253.794 -95.542 254.14 -94.768 254.495 C-93.414 255.12 -92.065 255.756 -90.724 256.409 C-87.322 257.976 -87.322 257.976 -83.715 257.492 C-81.225 255.601 -79.108 253.426 -76.961 251.16 C-85.71 246.502 -94.834 242.707 -103.947 238.835 C-107.719 237.232 -111.488 235.621 -115.257 234.011 C-117.156 233.2 -119.055 232.39 -120.954 231.579 C-157.41 216.024 -193.583 199.88 -229.567 183.265 C-236.208 180.2 -242.85 177.138 -249.494 174.08 C-251.816 173.011 -254.136 171.939 -256.457 170.867 C-257.905 170.2 -259.353 169.534 -260.801 168.867 C-261.492 168.549 -262.184 168.23 -262.897 167.902 C-268.563 165.31 -274.289 162.882 -280.053 160.515 C-288.396 156.628 -292.67 150.591 -295.961 142.16 C-297.2 138.419 -297.199 134.706 -297.273 130.785 C-297.311 129.499 -297.348 128.212 -297.387 126.887 C-296.89 122.539 -295.762 120.486 -292.961 117.16 C-287.612 112.995 -277.408 114.508 -270.961 115.16 C-261.801 116.849 -253.716 121.072 -245.863 125.902 C-242.341 127.429 -240.599 127.275 -236.961 126.16 C-232.569 122.061 -231.329 119.293 -230.961 113.16 C-231.734 113.377 -231.734 113.377 -232.523 113.598 C-233.328 113.783 -234.132 113.969 -234.961 114.16 C-236.054 114.428 -237.147 114.696 -238.273 114.973 C-242.899 115.208 -245.279 113.657 -248.961 111.16 C-263.921 101.387 -286.81 93.789 -300.961 109.098 Z M-68.961 114.16 C-70.826 117.084 -71.7 120.218 -72.648 123.535 C-72.936 124.467 -73.224 125.398 -73.52 126.358 C-85.279 165.7 -84.208 207.614 -66.961 245.16 C-64.648 245.047 -62.335 244.919 -60.023 244.785 C-58.736 244.716 -57.448 244.646 -56.121 244.574 C-55.078 244.438 -54.035 244.301 -52.961 244.16 C-52.631 243.5 -52.301 242.84 -51.961 242.16 C-52.671 240.22 -52.671 240.22 -53.84 238.074 C-54.264 237.235 -54.688 236.397 -55.125 235.532 C-55.586 234.626 -56.048 233.719 -56.523 232.785 C-61.583 222.536 -65.171 212.23 -67.961 201.16 C-68.145 200.456 -68.329 199.751 -68.519 199.026 C-70.088 192.609 -70.602 186.174 -71.086 179.598 C-71.172 178.494 -71.259 177.389 -71.348 176.252 C-71.558 173.555 -71.762 170.858 -71.961 168.16 C-71.301 168.16 -70.641 168.16 -69.961 168.16 C-69.996 168.734 -70.031 169.307 -70.066 169.898 C-70.801 192.944 -63.325 216.036 -52.961 236.348 C-52.653 236.972 -52.345 237.595 -52.028 238.238 C-49.734 242.566 -47.271 244.87 -42.961 247.16 C-32.824 247.667 -25.471 239.841 -18.359 233.445 C-17.898 233.021 -17.436 232.597 -16.961 232.16 C-18.455 228.692 -20.47 226.425 -23.086 223.723 C-28.282 218.012 -32.284 211.932 -35.961 205.16 C-36.486 204.193 -36.486 204.193 -37.022 203.207 C-42.539 192.818 -46.607 181.978 -50.336 170.848 C-50.753 169.609 -51.17 168.37 -51.599 167.094 C-56.352 152.522 -59.161 138.475 -59.023 123.16 C-59.019 122.195 -59.014 121.229 -59.01 120.234 C-58.998 117.876 -58.982 115.518 -58.961 113.16 C-63.146 111.765 -64.971 112.304 -68.961 114.16 Z M-44.961 116.16 C-47.625 116.32 -47.625 116.32 -50.586 116.223 C-52.377 116.169 -54.169 116.14 -55.961 116.16 C-57.898 118.098 -57.181 121.534 -57.211 124.098 C-57.158 157.369 -42.526 191.014 -23.711 217.848 C-23.092 218.732 -23.092 218.732 -22.461 219.634 C-20.251 222.689 -18.134 225.101 -14.961 227.16 C-13.756 224.939 -12.572 222.71 -11.398 220.473 C-11.056 219.847 -10.714 219.221 -10.361 218.576 C-8.27 214.541 -7.729 212.486 -8.961 208.16 C-9.708 206.431 -10.515 204.727 -11.367 203.047 C-11.859 202.058 -12.352 201.07 -12.859 200.052 C-13.388 198.994 -13.916 197.937 -14.461 196.848 C-27.271 170.646 -36.482 143.174 -39.961 114.16 C-42.285 113.975 -42.285 113.975 -44.961 116.16 Z M36.977 119.098 C36.231 119.185 35.485 119.272 34.717 119.361 C31.071 119.513 31.071 119.513 28.039 121.16 C27.929 123.451 27.853 125.743 27.789 128.035 C26.822 147.174 19.008 164.387 11.488 181.738 C7.227 192.028 3.415 204.886 4.039 216.16 C3.379 216.16 2.719 216.16 2.039 216.16 C2.699 211.21 3.359 206.26 4.039 201.16 C3.379 201.16 2.719 201.16 2.039 201.16 C0.577 203.721 -0.881 206.283 -2.336 208.848 C-2.748 209.569 -3.161 210.29 -3.586 211.033 C-8.064 218.606 -8.064 218.606 -8.961 227.16 C-7.558 229.963 -7.558 229.963 -5.559 232.766 C-4.469 234.366 -4.469 234.366 -3.357 235.998 C-2.973 236.55 -2.588 237.101 -2.192 237.669 C-1.046 239.316 0.08 240.977 1.205 242.639 C8.692 254.87 8.692 254.87 19.68 262.98 C23.482 263.27 25.158 261.467 28 259.141 C31.68 255.567 34.35 251.508 37.039 247.16 C37.7 246.094 38.362 245.028 39.043 243.93 C51.721 222.934 54.648 201.4 56.789 177.348 C56.854 176.617 56.919 175.885 56.987 175.132 C59.734 146.472 59.734 146.472 49.414 120.535 C48.63 119.751 47.847 118.968 47.039 118.16 C43.662 118.16 40.324 118.688 36.977 119.098 Z M-86.586 130.973 C-87.585 131.577 -87.585 131.577 -88.604 132.194 C-103.442 141.282 -117.773 151.505 -131.16 162.621 C-131.84 163.182 -132.52 163.743 -133.22 164.321 C-134.52 165.399 -135.81 166.489 -137.09 167.592 C-138.852 169.055 -138.852 169.055 -141.961 171.16 C-143.299 170.846 -144.632 170.511 -145.961 170.16 C-148.662 171.291 -151.142 172.47 -153.711 173.848 C-155.081 174.56 -156.451 175.272 -157.82 175.984 C-158.496 176.347 -159.173 176.71 -159.869 177.083 C-161.298 177.819 -162.752 178.505 -164.225 179.147 C-168.453 180.893 -168.453 180.893 -171.066 184.422 C-170.926 188.072 -170.202 191.459 -169.273 194.973 C-169.112 195.646 -168.95 196.32 -168.783 197.014 C-168.252 199.093 -167.622 201.118 -166.961 203.16 C-166.787 203.84 -166.613 204.519 -166.433 205.219 C-165.081 209.093 -163.573 210.793 -160.021 212.927 C-156.213 214.711 -152.371 216.306 -148.461 217.848 C-147.134 218.393 -145.809 218.94 -144.484 219.49 C-141.891 220.563 -139.291 221.616 -136.684 222.654 C-132.213 224.441 -127.82 226.405 -123.432 228.386 C-120.682 229.247 -119.583 229.29 -116.961 228.16 C-115.247 226.904 -115.247 226.904 -113.676 225.273 C-112.764 224.371 -112.764 224.371 -111.834 223.449 C-111.195 222.797 -110.556 222.145 -109.898 221.473 C-109.236 220.803 -108.573 220.133 -107.891 219.443 C-102.209 213.603 -97.032 207.439 -92.243 200.849 C-90.961 199.16 -90.961 199.16 -89.347 197.354 C-84.606 191.816 -84.136 187.435 -84.211 180.285 C-84.175 178.229 -84.135 176.173 -84.09 174.117 C-84.073 173.106 -84.057 172.095 -84.04 171.053 C-83.68 157.839 -81.114 144.927 -78.296 132.051 C-77.874 129.988 -77.874 129.988 -77.961 127.16 C-81.273 127.16 -83.822 129.294 -86.586 130.973 Z M-285.336 137.66 C-286.072 137.803 -286.808 137.946 -287.566 138.094 C-289.366 138.444 -291.163 138.802 -292.961 139.16 C-292.056 146.064 -289.504 150.803 -284.398 155.535 C-279.961 158.494 -276.418 159.562 -271.098 160.344 C-270.429 160.445 -269.76 160.546 -269.07 160.65 C-266.931 160.972 -264.79 161.286 -262.648 161.598 C-259.86 162.008 -257.072 162.425 -254.285 162.844 C-253.591 162.945 -252.896 163.047 -252.181 163.152 C-248.761 163.668 -245.396 164.26 -242.03 165.059 C-240.776 165.352 -239.522 165.644 -238.23 165.945 C-237.14 166.224 -236.049 166.502 -234.925 166.789 C-229.088 167.335 -223.701 166.203 -217.961 165.16 C-215.878 164.808 -213.795 164.457 -211.712 164.107 C-209.58 163.738 -207.448 163.368 -205.316 162.996 C-204.181 162.799 -203.045 162.602 -201.875 162.399 C-198.299 161.779 -194.724 161.157 -191.148 160.535 C-188.702 160.111 -186.257 159.686 -183.811 159.262 C-177.86 158.229 -171.911 157.195 -165.961 156.16 C-165.961 155.5 -165.961 154.84 -165.961 154.16 C-166.599 154.172 -167.237 154.183 -167.894 154.195 C-189.342 154.411 -189.342 154.411 -199.148 149.035 C-206.54 145.005 -211.558 144.336 -219.961 146.16 C-221.765 146.539 -221.765 146.539 -223.605 146.926 C-224.857 147.189 -226.109 147.452 -227.398 147.723 C-241.537 150.591 -250.874 149.508 -263.215 142.323 C-264.991 141.14 -266.486 139.834 -268.055 138.391 C-273.372 134.31 -279.192 136.427 -285.336 137.66 Z M-139.195 155.008 C-140.009 155.1 -140.823 155.191 -141.661 155.286 C-144.345 155.592 -147.028 155.906 -149.711 156.223 C-150.636 156.332 -151.562 156.441 -152.515 156.553 C-182.933 160.179 -213.041 165.62 -242.961 172.16 C-242.244 175.411 -242.244 175.411 -239.141 176.802 C-237.902 177.396 -236.656 177.978 -235.406 178.551 C-234.749 178.86 -234.092 179.169 -233.414 179.487 C-232.023 180.137 -230.629 180.782 -229.233 181.423 C-227.095 182.406 -224.967 183.411 -222.84 184.418 C-221.488 185.047 -220.135 185.675 -218.781 186.301 C-218.144 186.603 -217.506 186.905 -216.849 187.216 C-213.032 189.012 -213.032 189.012 -208.961 188.16 C-209.734 187.294 -209.734 187.294 -210.523 186.41 C-211.961 184.16 -211.961 184.16 -211.648 181.91 C-211.422 181.333 -211.195 180.755 -210.961 180.16 C-205.415 180.945 -199.873 181.754 -194.336 182.598 C-193.503 182.719 -192.67 182.841 -191.812 182.967 C-187.578 183.618 -183.913 184.439 -179.961 186.16 C-177.252 186.328 -177.252 186.328 -174.961 186.16 C-174.919 185.403 -174.876 184.646 -174.833 183.867 C-173.961 181.16 -173.961 181.16 -171.407 179.418 C-170.287 178.903 -169.166 178.387 -168.012 177.855 C-167.403 177.568 -166.794 177.281 -166.166 176.986 C-164.209 176.068 -162.242 175.176 -160.273 174.285 C-158.999 173.694 -157.724 173.102 -156.451 172.508 C-154.542 171.618 -152.632 170.728 -150.72 169.843 C-146.229 167.764 -141.759 165.647 -137.316 163.465 C-136.213 162.926 -135.11 162.387 -133.973 161.832 C-130.992 160.177 -128.479 158.458 -125.961 156.16 C-125.961 155.5 -125.961 154.84 -125.961 154.16 C-130.417 154.041 -134.776 154.503 -139.195 155.008 Z M-262.961 164.16 C-262.961 164.82 -262.961 165.48 -262.961 166.16 C-255.462 169.827 -250.241 171.954 -241.961 170.16 C-241.961 169.17 -241.961 168.18 -241.961 167.16 C-244.522 166.654 -247.085 166.155 -249.648 165.66 C-250.37 165.517 -251.091 165.374 -251.834 165.227 C-255.599 164.504 -259.106 163.978 -262.961 164.16 Z M-208.961 181.16 C-209.733 182.997 -209.733 182.997 -209.961 185.16 C-207.765 188.005 -205.433 188.859 -202.086 189.973 C-198.403 191.361 -197.11 191.981 -194.523 195.098 C-190.802 199.545 -186.244 201.015 -180.961 203.16 C-179.648 203.784 -178.335 204.409 -177.023 205.035 C-173.843 206.529 -173.843 206.529 -169.961 205.16 C-170.951 200.21 -171.941 195.26 -172.961 190.16 C-174.941 189.5 -176.921 188.84 -178.961 188.16 C-179.877 187.657 -180.794 187.155 -181.738 186.637 C-185.938 184.713 -189.974 184.154 -194.523 183.535 C-196.192 183.294 -197.859 183.052 -199.527 182.809 C-200.298 182.699 -201.069 182.589 -201.864 182.476 C-204.248 182.117 -206.605 181.671 -208.961 181.16 Z M-85.961 196.16 C-87.68 198.21 -89.297 200.272 -90.898 202.41 C-97.861 211.49 -105.385 219.998 -113.816 227.758 C-115.277 229.246 -115.277 229.246 -114.961 232.16 C-111.357 233.762 -107.746 235.346 -104.127 236.915 C-102.295 237.713 -100.469 238.526 -98.643 239.338 C-97.486 239.837 -96.329 240.337 -95.137 240.852 C-94.074 241.318 -93.011 241.784 -91.915 242.264 C-88.748 243.225 -87.089 243.113 -83.961 242.16 C-80.095 224.731 -80.095 224.731 -81.961 207.16 C-82.348 205.058 -82.723 202.954 -83.086 200.848 C-83.376 199.285 -83.667 197.722 -83.961 196.16 C-84.621 196.16 -85.281 196.16 -85.961 196.16 Z M-226.273 205.66 C-227.156 205.939 -228.039 206.217 -228.949 206.504 C-229.613 206.72 -230.277 206.937 -230.961 207.16 C-230.961 208.48 -230.961 209.8 -230.961 211.16 C-230.631 211.49 -230.301 211.82 -229.961 212.16 C-223.562 211.817 -218.669 210.001 -212.961 207.16 C-214.688 204.978 -215.503 204.215 -218.316 203.879 C-221.128 204.178 -223.582 204.799 -226.273 205.66 Z M-211.316 211.348 C-211.938 211.799 -212.56 212.25 -213.201 212.715 C-213.844 213.192 -214.486 213.669 -215.148 214.16 C-216.13 214.876 -216.13 214.876 -217.131 215.605 C-218.746 216.784 -220.354 217.971 -221.961 219.16 C-221.631 220.48 -221.301 221.8 -220.961 223.16 C-216.854 222.572 -213.947 220.267 -210.711 217.848 C-210.157 217.456 -209.602 217.065 -209.031 216.662 C-207.231 215.371 -207.231 215.371 -204.961 213.16 C-204.961 211.84 -204.961 210.52 -204.961 209.16 C-208.243 209.16 -208.787 209.491 -211.316 211.348 Z M-199.961 212.16 C-201.661 214.088 -203.346 216.026 -205.023 217.973 C-205.509 218.52 -205.994 219.067 -206.494 219.631 C-207.729 221.076 -208.854 222.614 -209.961 224.16 C-209.631 225.15 -209.301 226.14 -208.961 227.16 C-206.034 225.822 -203.793 224.303 -201.398 222.16 C-199.291 220.283 -197.328 218.738 -194.961 217.16 C-195.752 215.16 -195.752 215.16 -196.961 213.16 C-197.951 212.83 -198.941 212.5 -199.961 212.16 Z M51.039 227.16 C50.798 227.689 50.557 228.217 50.308 228.761 C41.425 248.127 41.425 248.127 36.039 255.16 C37.549 259.437 40.722 261.334 44.352 263.723 C44.921 264.109 45.49 264.495 46.076 264.893 C51.634 269.207 51.634 269.207 58.039 271.16 C58.142 265.178 57.844 259.534 56.945 253.625 C56.834 252.861 56.723 252.097 56.609 251.309 C56.258 248.905 55.899 246.501 55.539 244.098 C55.298 242.453 55.057 240.807 54.816 239.162 C54.231 235.16 53.637 231.16 53.039 227.16 C52.379 227.16 51.719 227.16 51.039 227.16 Z M-78.961 228.16 C-79.621 233.77 -80.281 239.38 -80.961 245.16 C-75.84 249.439 -75.84 249.439 -72.648 249.035 C-70.772 248.272 -70.772 248.272 -69.961 246.16 C-70.478 244.193 -70.478 244.193 -71.395 242.027 C-71.714 241.222 -72.033 240.416 -72.361 239.586 C-72.875 238.323 -72.875 238.323 -73.398 237.035 C-73.737 236.186 -74.075 235.336 -74.424 234.461 C-75.263 232.358 -76.109 230.258 -76.961 228.16 C-77.621 228.16 -78.281 228.16 -78.961 228.16 Z M-11.961 230.16 C-12.422 230.573 -12.884 230.985 -13.359 231.41 C-33.303 249.067 -33.303 249.067 -40.316 249.207 C-43.293 248.916 -46.108 248.384 -49 247.625 C-57.055 245.716 -64.888 247.925 -71.973 251.812 C-77.66 255.237 -77.66 255.237 -81.961 260.16 C-80.886 261.441 -80.886 261.441 -78.359 261.473 C-73.987 261.071 -71.266 259.434 -67.586 257.16 C-66.945 256.779 -66.305 256.397 -65.645 256.004 C-64.076 255.068 -62.518 254.115 -60.961 253.16 C-65.589 260.609 -71.877 265.209 -78.961 270.16 C-78.631 271.15 -78.301 272.14 -77.961 273.16 C-70.311 272.6 -65.983 268.497 -61.148 262.91 C-60.585 262.224 -60.022 261.539 -59.441 260.832 C-57.961 259.16 -57.961 259.16 -55.961 258.16 C-61.37 269.841 -61.37 269.841 -65.336 274.223 C-68.294 276.876 -68.294 276.876 -67.961 280.16 C-60.601 278.724 -56.999 273.185 -53.023 267.285 C-51.812 265.258 -51.812 265.258 -51.961 263.16 C-51.301 263.16 -50.641 263.16 -49.961 263.16 C-50.178 264.269 -50.394 265.377 -50.617 266.52 C-50.899 267.983 -51.18 269.447 -51.461 270.91 C-51.604 271.64 -51.747 272.369 -51.895 273.121 C-52.55 276.554 -52.961 279.652 -52.961 283.16 C-51.03 283.203 -51.03 283.203 -48.961 282.16 C-47.168 278.672 -47.168 278.672 -45.961 275.16 C-45.073 275.104 -45.073 275.104 -44.168 275.047 C-37.932 274.528 -34.124 273.549 -29.789 268.762 C-26.607 265.835 -23.417 264.347 -19.461 262.785 C-12.005 259.695 -4.992 256.121 2.039 252.16 C2.039 246.915 0.04 244.355 -2.711 240.035 C-3.154 239.307 -3.598 238.579 -4.055 237.828 C-4.493 237.131 -4.931 236.433 -5.383 235.715 C-5.781 235.08 -6.179 234.446 -6.589 233.792 C-8.184 231.894 -9.696 231.118 -11.961 230.16 Z M-5.586 258.348 C-7.015 259.175 -8.444 260.001 -9.875 260.824 C-10.57 261.225 -11.265 261.627 -11.981 262.04 C-15.888 264.251 -19.913 266.224 -23.961 268.16 C-23.961 268.82 -23.961 269.48 -23.961 270.16 C-18.182 272.613 -12.398 275.051 -6.609 277.478 C-4.639 278.306 -2.671 279.138 -0.704 279.972 C2.119 281.17 4.948 282.356 7.777 283.539 C8.659 283.916 9.54 284.293 10.448 284.682 C11.269 285.022 12.089 285.362 12.935 285.713 C14.017 286.169 14.017 286.169 15.122 286.635 C17.233 287.404 17.233 287.404 20.039 286.16 C19.124 285.34 18.209 284.52 17.266 283.676 C16.065 282.588 14.864 281.499 13.664 280.41 C13.061 279.871 12.457 279.332 11.836 278.777 C10.966 277.985 10.966 277.985 10.078 277.176 C9.544 276.694 9.01 276.212 8.459 275.716 C6.884 273.99 5.989 272.285 5.039 270.16 C5.988 270.985 6.937 271.81 7.914 272.66 C8.562 273.209 9.211 273.758 9.879 274.324 C11.323 275.552 12.753 276.797 14.168 278.059 C26.729 288.813 42.854 295.22 59.039 298.16 C57.039 299.16 57.039 299.16 53.039 299.16 C53.039 299.82 53.039 300.48 53.039 301.16 C54.803 301.885 56.576 302.59 58.352 303.285 C59.338 303.68 60.324 304.074 61.34 304.48 C62.231 304.705 63.121 304.929 64.039 305.16 C65.029 304.5 66.019 303.84 67.039 303.16 C67.459 299.939 67.495 297.946 65.848 295.105 C63.63 292.72 61.781 292.018 58.727 290.91 C53.811 288.975 49.243 286.772 44.664 284.16 C43.543 283.521 42.421 282.881 41.266 282.223 C37.91 280.077 35.039 277.77 32.039 275.16 C36.21 276.659 39.736 278.732 43.477 281.098 C50.739 286.152 50.739 286.152 59.039 288.16 C60.649 284.819 60.649 284.819 60.85 281.193 C59.769 278.484 58.366 277.563 55.996 275.883 C54.756 274.989 54.756 274.989 53.49 274.076 C52.619 273.465 51.749 272.853 50.852 272.223 C49.149 271.007 47.447 269.79 45.746 268.57 C44.934 267.994 44.121 267.418 43.284 266.825 C41.303 265.356 39.497 263.815 37.676 262.156 C35.307 259.948 35.307 259.948 32.91 260.152 C29.99 261.725 27.638 263.822 25.137 265.98 C23.039 267.16 23.039 267.16 20.539 267.043 C17.746 266.057 16.156 264.904 13.977 262.91 C13.289 262.285 12.602 261.66 11.895 261.016 C10.039 259.16 10.039 259.16 7.789 256.223 C7.212 255.542 6.634 254.861 6.039 254.16 C1.197 254.16 -1.558 255.958 -5.586 258.348 Z " fill="#333" transform="translate(415.9609375,43.83984375)"/>
    <path d="M0 0 C0.33 0.66 0.66 1.32 1 2 C0.096 2.133 -0.807 2.266 -1.738 2.402 C-3.508 2.667 -3.508 2.667 -5.312 2.938 C-7.07 3.199 -7.07 3.199 -8.863 3.465 C-12.016 3.921 -12.016 3.921 -15 5 C-15.33 3.68 -15.66 2.36 -16 1 C-10.615 0.083 -5.458 -0.111 0 0 Z " fill="#333" transform="translate(290,34)"/>
    <path d="M0 0 C0.66 0 1.32 0 2 0 C1.954 0.675 1.907 1.351 1.859 2.047 C1.527 7.609 1.527 7.609 3.688 12.562 C6.176 14.11 8.101 14.678 11 15 C11 15.66 11 16.32 11 17 C4.625 16.51 4.625 16.51 1.625 14.062 C-1.046 10.672 -1.05 9.1 -0.562 4.875 C-0.461 3.965 -0.359 3.055 -0.254 2.117 C-0.17 1.419 -0.086 0.72 0 0 Z " fill="#333" transform="translate(208,45)"/>
    <path d="M0 0 C2.139 3.208 2.477 4.277 2 8 C-1 10 -1 10 -4.312 10.875 C-8.057 11.8 -8.057 11.8 -10.938 14.125 C-14.717 16.439 -17.722 16.729 -22 16 C-23.487 15.394 -24.966 14.768 -26.438 14.125 C-29.47 12.977 -30.486 12.773 -33.5 14.102 C-35.769 15.636 -37.884 17.264 -40 19 C-44.415 21.207 -50.198 20.435 -55 20 C-57.212 19.147 -59.057 18.117 -61.078 16.891 C-64.565 15.275 -68.244 15.687 -72 16 C-72 15.34 -72 14.68 -72 14 C-70.42 13.75 -68.836 13.526 -67.25 13.312 C-66.368 13.185 -65.487 13.057 -64.578 12.926 C-61.4 13.017 -60.377 13.977 -58 16 C-51.774 18.075 -44.444 18.12 -38.5 15.188 C-36.461 14.021 -34.831 12.849 -33.074 11.277 C-31 10 -31 10 -28.738 10.398 C-27.938 10.721 -27.137 11.043 -26.312 11.375 C-21.267 13.094 -17.156 13.551 -12 12 C-9.326 10.061 -9.326 10.061 -7 8 C-3.688 7.25 -3.688 7.25 -1 7 C-1.021 6.031 -1.041 5.061 -1.062 4.062 C-1 1 -1 1 0 0 Z " fill="#333" transform="translate(294,46)"/>
    <path d="M0 0 C2.64 0.66 5.28 1.32 8 2 C8 2.99 8 3.98 8 5 C3.545 4.01 3.545 4.01 -1 3 C-0.67 2.01 -0.34 1.02 0 0 Z " fill="#333" transform="translate(370,79)"/>
    <path d="M0 0 C0.99 0.33 1.98 0.66 3 1 C3 2.98 3 4.96 3 7 C1.062 7.562 1.062 7.562 -1 8 C-2 7 -2 7 -2.188 4.562 C-2 2 -2 2 0 0 Z " fill="#333" transform="translate(371,95)"/>
    <path d="M0 0 C0.66 0.33 1.32 0.66 2 1 C1.67 4.3 1.34 7.6 1 11 C0.01 10.67 -0.98 10.34 -2 10 C-1.86 8.52 -1.712 7.041 -1.562 5.562 C-1.481 4.739 -1.4 3.915 -1.316 3.066 C-1 1 -1 1 0 0 Z " fill="#333" transform="translate(142,113)"/>
    <path d="M0 0 C0.99 0 1.98 0 3 0 C3.99 2.97 4.98 5.94 6 9 C5.01 9 4.02 9 3 9 C0 3.375 0 3.375 0 0 Z " fill="#333" transform="translate(108,120)"/>
    <path d="M0 0 C3.224 3.308 4.902 5.701 5.25 10.312 C4.934 14.971 3.408 17.123 0.688 20.75 C-1.886 22.656 -3.817 22.936 -7 23 C-11.717 20.367 -13.348 17.041 -15 12 C-15.427 8.445 -15.231 6.536 -13.812 3.25 C-9.953 -1.542 -5.722 -1.56 0 0 Z M-12 5 C-12.333 8.028 -12.229 10.967 -12 14 C-11.34 14 -10.68 14 -10 14 C-9.443 13.051 -8.886 12.102 -8.312 11.125 C-5.498 7.322 -3.551 6.875 1 6 C-0.087 3.881 -0.087 3.881 -2 2 C-6.233 1.37 -9.269 1.534 -12 5 Z M-6.25 9.562 C-8.583 12.812 -8.301 15.092 -8 19 C-6.322 19.966 -6.322 19.966 -4 20 C-0.642 17.98 -0.642 17.98 2 15 C2.668 12.37 2.668 12.37 2 10 C1.34 9.34 0.68 8.68 0 8 C-3.909 7.62 -3.909 7.62 -6.25 9.562 Z " fill="#333" transform="translate(373,125)"/>
    <path d="M0 0 C4.248 0.472 6.2 2.967 9 6 C8.01 6.495 8.01 6.495 7 7 C5.828 6.217 4.662 5.423 3.5 4.625 C2.85 4.184 2.201 3.743 1.531 3.289 C1.026 2.864 0.521 2.438 0 2 C0 1.34 0 0.68 0 0 Z " fill="#333" transform="translate(86,135)"/>
    <path d="M0 0 C0.66 0.66 1.32 1.32 2 2 C0.35 3.65 -1.3 5.3 -3 7 C-3.33 6.34 -3.66 5.68 -4 5 C-2.68 3.35 -1.36 1.7 0 0 Z " fill="#333" transform="translate(195,135)"/>
    <path d="M0 0 C0 0.66 0 1.32 0 2 C-3.465 3.485 -3.465 3.485 -7 5 C-5.227 1.074 -4.52 0 0 0 Z " fill="#333" transform="translate(207,151)"/>
    <path d="M0 0 C2.31 0 4.62 0 7 0 C7.33 0.99 7.66 1.98 8 3 C5.36 3 2.72 3 0 3 C0 2.01 0 1.02 0 0 Z " fill="#333" transform="translate(68,172)"/>
    <path d="M0 0 C-3.465 1.485 -3.465 1.485 -7 3 C-7 2.01 -7 1.02 -7 0 C-3.867 -1.044 -3.01 -0.934 0 0 Z " fill="#333" transform="translate(92,218)"/>
    <path d="M0 0 C-0.33 0.99 -0.66 1.98 -1 3 C-3.562 4.188 -3.562 4.188 -6 5 C-6 4.01 -6 3.02 -6 2 C-2.25 0 -2.25 0 0 0 Z " fill="#333" transform="translate(99,226)"/>
    <path d="M0 0 C3.036 1.251 3.802 2.351 6 5 C6.83 5.814 6.83 5.814 7.676 6.645 C10.606 9.628 11.889 11.365 12.625 15.562 C11.856 19.79 10.89 21.8 8 25 C4.876 25.804 1.892 25.657 -1.312 25.5 C-2.142 25.49 -2.972 25.479 -3.826 25.469 C-11.612 25.272 -18.325 23.78 -24.5 18.836 C-26.336 16.589 -26.579 15.445 -26.5 12.562 C-25.361 6.997 -21.507 4.097 -17 1 C-12.13 -1.435 -5.338 -0.498 0 0 Z M-21 7 C-21 7.66 -21 8.32 -21 9 C-11.813 13.628 -4.494 16.272 6 15 C6.66 14.67 7.32 14.34 8 14 C7.86 9.395 5.726 6.471 2.496 3.402 C-5.004 -0.811 -15.633 0.169 -21 7 Z M-22 9 C-23.33 11.191 -24.041 12.492 -23.832 15.082 C-22.817 17.422 -21.786 18.263 -19.688 19.688 C-19.093 20.104 -18.499 20.52 -17.887 20.949 C-13.106 23.612 -7.763 23.287 -2.438 23.375 C-1.574 23.412 -0.711 23.45 0.178 23.488 C2.554 23.522 4.675 23.498 7 23 C9.124 20.562 10 19.236 10 16 C8.947 16.081 7.894 16.162 6.809 16.246 C-4.51 16.837 -12.202 14.591 -22 9 Z " fill="#333" transform="translate(515,275)"/>
    <path d="M0 0 C4.468 0.496 5.69 0.69 9 4 C4.545 3.01 4.545 3.01 0 2 C0 1.34 0 0.68 0 0 Z " fill="#333" transform="translate(61,289)"/>
    <path d="M0 0 C2.305 1.804 3.024 3.069 4 5.875 C4 9 4 9 2.023 11.516 C-1.647 14.531 -4.853 15.642 -9.375 16.875 C-10.105 17.099 -10.834 17.324 -11.586 17.555 C-17.861 19.348 -22.482 19.163 -28.527 16.371 C-29.653 15.733 -30.778 15.095 -31.938 14.438 C-33.081 13.797 -34.224 13.156 -35.402 12.496 C-36.26 12.002 -37.117 11.509 -38 11 C-37.34 9.35 -36.68 7.7 -36 6 C-35.652 6.905 -35.652 6.905 -35.297 7.828 C-32.876 11.883 -28.282 13.37 -24 15 C-20.578 15.426 -20.578 15.426 -18 15 C-18 13.68 -18 12.36 -18 11 C-20.205 9.191 -20.205 9.191 -23 7.75 C-23.928 7.229 -24.856 6.708 -25.812 6.172 C-26.534 5.785 -27.256 5.398 -28 5 C-27.01 4.67 -26.02 4.34 -25 4 C-23.055 5.102 -23.055 5.102 -20.875 6.625 C-18.182 8.213 -16.727 9.068 -13.586 8.773 C-11.272 8.007 -9.168 7.111 -7 6 C-6.031 5.505 -5.061 5.01 -4.062 4.5 C-1.75 3 -1.75 3 0 0 Z M0 4 C-0.33 5.65 -0.66 7.3 -1 9 C-0.01 8.67 0.98 8.34 2 8 C1.67 6.68 1.34 5.36 1 4 C0.67 4 0.34 4 0 4 Z M-10.125 9.5 C-11.035 9.964 -11.945 10.428 -12.883 10.906 C-13.581 11.267 -14.28 11.628 -15 12 C-15 12.99 -15 13.98 -15 15 C-13.561 14.716 -12.124 14.423 -10.688 14.125 C-9.887 13.963 -9.086 13.8 -8.262 13.633 C-5.747 13.055 -5.747 13.055 -3 11 C-3 9.68 -3 8.36 -3 7 C-5.824 7 -7.623 8.217 -10.125 9.5 Z " fill="#333" transform="translate(79,299)"/>
    <path d="M0 0 C0 0.66 0 1.32 0 2 C-0.99 2 -1.98 2 -3 2 C-0.472 4.799 1.204 6.458 5 7 C3.515 4.03 3.515 4.03 2 1 C5.358 2.39 7.186 3.825 9 7 C9.312 9.625 9.312 9.625 9 12 C6.662 14.338 6.067 14.343 2.875 14.438 C-2.445 14.36 -5.861 12.158 -10 9 C-9.708 5.498 -9.217 4.217 -6.688 1.688 C-4 0 -4 0 0 0 Z M-6 4 C-6.66 5.32 -7.32 6.64 -8 8 C-3.288 11.737 0.019 12.113 6 12 C6 10.68 6 9.36 6 8 C4.948 7.897 3.896 7.794 2.812 7.688 C-0.874 7.023 -2.966 6.114 -6 4 Z " fill="#333" transform="translate(536,300)"/>
    <path d="M0 0 C2.226 -0.238 3.872 -0.28 6.044 0.287 C8.465 2.569 9.915 5.249 11.481 8.162 C12.13 9.281 12.13 9.281 12.792 10.423 C15.939 15.89 17.339 19.936 17.794 26.287 C17.896 27.393 17.896 27.393 18.001 28.521 C18.153 30.662 18.153 30.662 18.044 34.287 C15.076 36.265 13.351 36.816 9.93 37.541 C8.929 37.755 7.929 37.97 6.897 38.191 C5.33 38.517 5.33 38.517 3.731 38.849 C2.698 39.07 1.665 39.291 0.6 39.519 C-1.393 39.942 -3.389 40.354 -5.388 40.752 C-7.321 41.154 -9.235 41.646 -11.136 42.181 C-15.567 42.347 -18.884 40.392 -22.769 38.412 C-23.544 38.034 -24.32 37.656 -25.118 37.267 C-30.74 34.503 -30.74 34.503 -31.956 33.287 C-31.956 25.88 -27.952 20.287 -23.956 14.287 C-23.588 13.731 -23.22 13.176 -22.841 12.604 C-19.597 7.843 -16.445 3.269 -10.929 1.091 C-7.265 0.435 -3.651 0.535 0 0 Z M-9.706 3.224 C-14.81 4.893 -17.063 8.934 -19.956 13.287 C-16.042 17.526 -12.595 19.226 -6.956 20.287 C-0.494 20.368 5.797 18.798 12.044 17.287 C11.152 11.707 9.273 7.153 5.044 3.287 C0.111 2.122 -4.697 3.308 -9.706 3.224 Z M-22.956 17.287 C-24.624 19.104 -24.624 19.104 -26.081 21.474 C-26.6 22.251 -27.118 23.029 -27.652 23.83 C-28.991 26.352 -29.547 28.475 -29.956 31.287 C-28.314 32.327 -26.638 33.311 -24.956 34.287 C-24.205 34.731 -23.453 35.176 -22.679 35.634 C-21.842 36.097 -21.006 36.56 -20.144 37.037 C-18.959 37.71 -18.959 37.71 -17.749 38.396 C-10.948 40.565 -2.758 37.421 3.981 35.787 C4.938 35.561 5.895 35.335 6.882 35.103 C11.303 34.377 11.303 34.377 15.044 32.287 C15.116 30.267 15.127 28.245 15.106 26.224 C15.097 25.119 15.088 24.015 15.079 22.876 C15.067 22.022 15.056 21.167 15.044 20.287 C11.871 18.7 8.809 20.106 5.481 20.849 C-0.861 22.147 -5.783 22.648 -11.956 20.287 C-13.051 19.884 -13.051 19.884 -14.167 19.474 C-16.098 18.749 -18.028 18.018 -19.956 17.287 C-20.946 17.287 -21.936 17.287 -22.956 17.287 Z " fill="#333" transform="translate(163.956298828125,300.71337890625)"/>
    <path d="M0 0 C3.346 1.802 6.587 3.74 9.844 5.699 C12.879 7.314 12.879 7.314 15.719 6.332 C17.516 5.282 19.268 4.155 21 3 C26.407 2.48 30.42 3.005 35 6 C37.529 10.989 38.578 15.568 37 21 C34.7 24.449 33.899 24.898 30 26 C26.429 26.289 23.119 26.348 19.679 25.278 C16.02 24.898 14.925 26.149 12.066 28.383 C5.421 32.857 -0.217 33.052 -8.062 32.875 C-9.265 32.902 -10.467 32.929 -11.705 32.957 C-20.126 32.893 -25.948 31.046 -32 25 C-33 22 -33 22 -31.926 19.695 C-30.306 17.115 -28.672 14.547 -27 12 C-26.423 11.072 -25.845 10.144 -25.25 9.188 C-21.71 5.746 -17.485 3.969 -13 2 C-12.256 1.665 -11.512 1.33 -10.746 0.984 C-6.648 -0.726 -4.226 -1.265 0 0 Z M-13.312 5 C-13.958 5.286 -14.603 5.572 -15.268 5.867 C-16.849 6.57 -18.425 7.284 -20 8 C-20 9.32 -20 10.64 -20 12 C-18.042 13.71 -16.323 14.984 -14.125 16.312 C-13.534 16.671 -12.944 17.029 -12.335 17.398 C-7.709 19.999 -4.44 20.76 0.715 19.688 C1.469 19.461 2.223 19.234 3 19 C3.744 18.794 4.488 18.587 5.254 18.375 C9.399 17.031 12.223 15.355 15 12 C10.075 7.584 3.28 2.645 -3.387 1.641 C-6.971 2.134 -10.052 3.509 -13.312 5 Z M17 8 C17 8.99 17 9.98 17 11 C21.913 14.023 26.333 14.873 32 14 C32.66 13.34 33.32 12.68 34 12 C34.141 9.971 34.141 9.971 33 8 C27.077 4.231 22.694 3.607 17 8 Z M-24 12 C-25.634 13.871 -25.634 13.871 -27.188 16.25 C-27.738 17.039 -28.288 17.828 -28.855 18.641 C-30.186 20.863 -30.186 20.863 -29.81 22.978 C-28.446 26.383 -25.866 27.355 -22.714 28.979 C-17.876 30.799 -13.179 30.762 -8.062 30.688 C-7.042 30.715 -6.022 30.743 -4.971 30.771 C3.537 30.744 9.947 28.053 16 22 C15.68 19.397 15.68 19.397 15 17 C11.703 17 9.905 17.757 6.875 19 C-2.852 22.497 -2.852 22.497 -8 21 C-11.887 18.964 -15.474 16.489 -19.059 13.969 C-21.687 11.815 -21.687 11.815 -24 12 Z M17 14 C17.021 17.406 17.021 17.406 18 21 C21.357 23.558 23.351 24.011 27.562 23.938 C31.262 22.929 33.228 21.604 36 19 C35.34 17.68 34.68 16.36 34 15 C33.408 15.095 32.817 15.191 32.207 15.289 C27.468 15.954 24.396 16.198 20 14 C19.01 14 18.02 14 17 14 Z " fill="#333" transform="translate(231,328)"/>
    <path d="M0 0 C0.66 0 1.32 0 2 0 C7.16 20.021 7.16 20.021 7 27 C6.34 27 5.68 27 5 27 C2.766 18.032 1.168 9.163 0 0 Z " fill="#333" transform="translate(354,337)"/>
    <path d="M0 0 C0 0.66 0 1.32 0 2 C-0.66 2.66 -1.32 3.32 -2 4 C1.371 5.498 3.204 6 7 6 C5.278 2.752 5.278 2.752 2 2 C2 1.34 2 0.68 2 0 C4.559 0.346 6.521 0.681 8.688 2.125 C10.606 4.865 11.21 7.78 12 11 C7.157 14.229 1.733 14.423 -4 14 C-6.966 12.314 -7.441 11.178 -9 8 C-9.188 5.875 -9.188 5.875 -8 4 C-2.778 0 -2.778 0 0 0 Z M-7 6 C-6.054 8.366 -5.383 9.74 -3.25 11.188 C-0.371 12.227 1.293 11.825 4.25 11.125 C5.142 10.921 6.034 10.718 6.953 10.508 C7.629 10.34 8.304 10.173 9 10 C9 9.34 9 8.68 9 8 C7.763 8.041 6.525 8.082 5.25 8.125 C1.898 8.137 -0.066 7.677 -3 6 C-4.32 6 -5.64 6 -7 6 Z " fill="#333" transform="translate(76,343)"/>
  </g>
</svg>
