<svg xmlns="http://www.w3.org/2000/svg" viewBox="0 0 500 600">
  <g transform="translate(15.0,134.2) scale(0.8545)">
    <path d="M0 0 C1.756 0.18 1.756 0.18 3.547 0.363 C4.439 0.47 5.331 0.577 6.25 0.688 C6.25 1.348 6.25 2.008 6.25 2.688 C3.08 3.351 0.697 3.779 -2.5 3.125 C-3.243 2.981 -3.985 2.836 -4.75 2.688 C-5.41 3.348 -6.07 4.008 -6.75 4.688 C-8.07 4.688 -9.39 4.688 -10.75 4.688 C-10.75 2.688 -10.75 2.688 -9.172 1.043 C-5.881 -0.799 -3.714 -0.409 0 0 Z " fill="#333" transform="translate(180.75,26.3125)"/>
    <path d="M0 0 C3.154 1.826 3.829 2.486 5 6 C5.541 15.385 2.949 20.278 -2.906 27.258 C-6.37 31.794 -8.656 36.82 -11 42 C-11.415 42.911 -11.83 43.823 -12.258 44.762 C-13.188 46.835 -14.104 48.912 -15 51 C-13.996 50.856 -12.992 50.711 -11.957 50.562 C15.407 46.774 15.407 46.774 26.453 54.777 C41.565 67.537 56.461 88.721 60 108.438 C60.429 114.285 58.822 119.74 57.481 125.385 C55.773 133.002 55.709 140.255 55.957 148.023 C56 152 56 152 55.387 154.852 C54.692 157.289 54.692 157.289 57 160 C58.798 165.195 60.253 170.658 58.25 176 C57.737 180.102 61.226 183.923 63.535 187.137 C67.289 192.422 68.981 196.579 70 203 C71.485 202.01 71.485 202.01 73 201 C73.174 198.495 73.174 198.495 72.875 195.688 C72.722 190.378 72.722 190.378 75.25 186.938 C81.05 182.851 81.05 182.851 84 183.312 C84.66 183.539 85.32 183.766 86 184 C86.743 184.186 87.485 184.371 88.25 184.562 C88.827 184.707 89.405 184.851 90 185 C90.99 183.02 91.98 181.04 93 179 C91.948 178.853 91.948 178.853 90.875 178.703 C80.877 177.127 73.977 174.467 67.656 166.254 C59.964 155.14 61.681 141.866 63.188 129.125 C63.289 128.113 63.39 127.101 63.494 126.059 C64.84 114.694 69.349 103.73 78.172 96.129 C79.649 94.976 81.143 93.843 82.656 92.738 C85.148 90.947 85.148 90.947 87.832 88.457 C95.363 82.154 107.534 80.677 117 79 C118.164 78.776 118.164 78.776 119.352 78.548 C124.891 77.669 129.057 78.261 134 81 C135.777 82.648 135.777 82.648 136.938 84.375 C139.193 87.313 141.192 88.832 144.5 90.5 C150.406 93.612 153.906 96.668 156.031 103.141 C158.709 114.399 158.778 124.791 156 136 C158.045 135.534 158.045 135.534 160 134 C162.65 125.218 162.239 116.781 160.031 107.992 C157.306 95.839 157.691 83.885 158 71.5 C158.973 53.982 158.973 53.982 154.918 37.191 C152.963 32.525 153.463 28.469 155.188 23.75 C157.853 19.705 160.299 17.543 164.938 16.062 C168.899 15.982 170.793 16.668 174 19 C177.56 26.606 176.311 35.782 175.234 43.873 C174.912 46.796 174.843 49.707 174.76 52.644 C174.544 59.709 173.929 66.149 171.938 72.938 C169.303 82.346 169.589 91.302 170 101 C170.051 102.41 170.1 103.821 170.149 105.231 C170.29 109.171 170.457 113.108 170.641 117.046 C170.713 118.632 170.78 120.219 170.842 121.807 C170.933 124.059 171.049 126.308 171.172 128.559 C171.235 129.871 171.298 131.184 171.362 132.537 C172.086 136.466 173.337 138.095 176 141 C177.25 143.812 177.25 143.812 178 146 C179.305 145.965 180.609 145.93 181.953 145.895 C206.236 145.427 206.236 145.427 215.188 152.875 C228.906 166.505 234.331 181.774 236.25 200.625 C236.41 202.063 236.571 203.5 236.734 204.938 C237.185 208.956 237.596 212.977 238 217 C238.115 218.1 238.231 219.2 238.35 220.333 C238.447 221.305 238.544 222.276 238.645 223.277 C238.728 224.105 238.812 224.932 238.898 225.785 C239.184 231.989 236.852 236.308 233.938 241.562 C230.837 247.503 230.561 252.314 230.418 258.926 C230.122 263.693 228.476 267.873 226.812 272.312 C224.586 278.34 223.374 282.424 225.41 288.742 C226.475 292.818 225.647 296.891 225 301 C230.798 305.261 236.581 308.18 243.25 310.852 C251.146 314.149 251.146 314.149 253.125 318.438 C253 321 253 321 251.562 323.875 C249 326 249 326 245.301 325.945 C240.504 325.197 237.418 322.884 233.625 320 C226.72 315.079 226.72 315.079 218.52 313.559 C210.911 314.892 204.032 318.506 197.125 321.812 C191.505 324.406 187.556 324.744 181.562 323 C180.717 322.67 179.871 322.34 179 322 C178.34 323.98 177.68 325.96 177 328 C176.241 328.061 175.481 328.121 174.699 328.184 C173.208 328.309 173.208 328.309 171.688 328.438 C170.701 328.519 169.715 328.6 168.699 328.684 C165.906 328.918 165.906 328.918 163 330 C160.349 338.223 159.329 347.033 157.855 355.529 C157.645 356.702 157.435 357.874 157.219 359.082 C157.032 360.147 156.846 361.211 156.654 362.308 C156 365 156 365 154 368 C151.125 368.938 151.125 368.938 148 369 C145.824 367.59 145.824 367.59 144 365 C143.471 361.865 143.58 358.795 143.688 355.625 C143.697 354.806 143.707 353.988 143.717 353.145 C143.808 347.966 144.138 342.815 144.515 337.65 C144.606 336.401 144.696 335.152 144.79 333.866 C144.894 332.447 144.894 332.447 145 331 C135.191 331.062 125.382 331.14 115.573 331.236 C111.014 331.28 106.455 331.319 101.896 331.346 C79.363 331.486 57.105 332.372 34.671 334.484 C26.25 335.271 17.824 335.711 9.375 336.062 C7.651 336.14 5.927 336.217 4.203 336.295 C-7.348 336.798 -18.904 337.16 -30.461 337.496 C-31.181 337.517 -31.9 337.538 -32.642 337.56 C-39.856 337.771 -47.071 337.978 -54.286 338.162 C-68.001 338.515 -81.689 339.002 -95.375 340 C-97.097 340.125 -97.097 340.125 -98.853 340.252 C-104.095 340.464 -104.095 340.464 -109 342 C-109.02 342.842 -109.04 343.684 -109.06 344.551 C-109.139 347.703 -109.225 350.854 -109.317 354.006 C-109.355 355.364 -109.39 356.723 -109.422 358.082 C-109.468 360.046 -109.527 362.009 -109.586 363.973 C-109.617 365.151 -109.649 366.329 -109.681 367.543 C-110.027 371.298 -110.86 374.417 -112 378 C-114.314 378.826 -115.629 379.107 -118.016 378.418 C-120.966 376.31 -121.146 374.174 -122 370.688 C-122.163 370.045 -122.326 369.402 -122.494 368.74 C-123.493 364.655 -124.268 360.553 -124.965 356.406 C-125.128 355.459 -125.291 354.512 -125.459 353.536 C-125.775 351.656 -126.07 349.771 -126.342 347.884 C-126.74 345.485 -127.149 343.278 -128 341 C-130.244 339.607 -130.244 339.607 -133 339 C-135.134 337.254 -137.13 335.515 -139.125 333.625 C-139.65 333.143 -140.174 332.661 -140.715 332.164 C-142.925 330.105 -144.921 328.111 -146.68 325.648 C-147.115 325.104 -147.551 324.56 -148 324 C-148.99 324 -149.98 324 -151 324 C-152.963 331.484 -153.146 338.368 -152.75 346.046 C-152.55 352.782 -154.206 357.802 -158.676 362.918 C-159.486 363.546 -159.486 363.546 -160.312 364.188 C-161.214 364.895 -161.214 364.895 -162.133 365.617 C-162.749 366.074 -163.365 366.53 -164 367 C-164.616 367.477 -165.232 367.954 -165.867 368.445 C-172.055 373.093 -177.398 373.774 -185 373 C-191.622 371.261 -196.083 367.474 -200.859 362.707 C-203.272 360.783 -204.969 360.355 -208 360 C-208.436 360.568 -208.871 361.137 -209.32 361.723 C-211.2 364.159 -213.1 366.579 -215 369 C-215.804 370.067 -215.804 370.067 -216.625 371.156 C-220.345 375.884 -220.345 375.884 -223.812 376.5 C-226 376 -226 376 -227 375 C-227.495 372.028 -227.564 369.909 -225.941 367.293 C-222.56 363.234 -218.653 359.876 -214.539 356.578 C-212.651 355.009 -212.651 355.009 -213 352 C-214.992 349.643 -214.992 349.643 -217.5 347.312 C-218.753 346.1 -218.753 346.1 -220.031 344.863 C-221.006 343.941 -221.006 343.941 -222 343 C-225.419 344.247 -228.13 345.642 -231 347.875 C-231.688 348.406 -232.377 348.937 -233.086 349.484 C-234.607 350.688 -236.117 351.905 -237.625 353.125 C-238.409 353.744 -239.192 354.363 -240 355 C-240.949 355.763 -241.898 356.526 -242.875 357.312 C-246.753 359.407 -248.792 359.01 -253 358 C-253.33 356.35 -253.66 354.7 -254 353 C-246.817 347.277 -239.653 341.605 -232.051 336.441 C-229.796 334.909 -229.796 334.909 -227.125 332.5 C-225 331 -225 331 -223.016 331.141 C-220.292 332.302 -219.863 333.598 -218.625 336.25 C-216.347 340.7 -214.033 343.092 -210 346 C-208.741 344.061 -208.741 344.061 -209.594 342.117 C-210.042 341.007 -210.042 341.007 -210.5 339.875 C-212.036 335.375 -212.697 331.549 -211 327 C-209.355 324.415 -207.569 321.988 -205.723 319.543 C-203.277 315.933 -202.065 312.198 -201 308 C-201.907 307.443 -202.815 306.886 -203.75 306.312 C-206.864 304.097 -208.854 302.136 -211 299 C-211 298.34 -211 297.68 -211 297 C-208.152 298.16 -206.822 299.203 -204.75 301.562 C-201.072 304.823 -198.828 304.754 -194 305 C-195.077 303.416 -195.077 303.416 -197 302 C-198.155 301.835 -199.31 301.67 -200.5 301.5 C-204 301 -204 301 -205.938 299.562 C-207 298 -207 298 -207 296 C-206.34 296 -205.68 296 -205 296 C-204.67 296.66 -204.34 297.32 -204 298 C-201.975 298.257 -199.946 298.508 -197.91 298.656 C-196 299 -196 299 -194 301 C-191.682 301.719 -189.349 302.391 -187 303 C-186.918 303.619 -186.835 304.238 -186.75 304.875 C-186.19 307.081 -186.19 307.081 -184.438 308.188 C-180.981 309.34 -177.626 309.637 -174 310 C-174.33 310.66 -174.66 311.32 -175 312 C-179.793 312.499 -182.098 312.194 -186.062 309.375 C-189.3 307.141 -189.3 307.141 -193.312 307.375 C-197.141 309.69 -198.422 311.768 -199.539 316.082 C-200.393 320.994 -200.109 324.319 -197.309 328.496 C-194.21 332.057 -190.594 334.165 -186 335 C-171.862 335.903 -171.862 335.903 -158.73 331.613 C-158.159 331.081 -157.588 330.549 -157 330 C-157 329.01 -157 328.02 -157 327 C-157.66 326.34 -158.32 325.68 -159 325 C-158.481 324.685 -157.961 324.371 -157.426 324.047 C-148.793 318.947 -148.793 318.947 -143 311 C-142.521 307.725 -142.687 306.482 -144.5 303.688 C-144.995 303.131 -145.49 302.574 -146 302 C-148.894 302.676 -151.641 303.559 -154.438 304.562 C-157.817 305.722 -160.432 306 -164 306 C-165.815 307.396 -165.815 307.396 -167 309 C-167.99 308.67 -168.98 308.34 -170 308 C-167.364 303.782 -167.364 303.782 -165 302 C-162.374 301.644 -160.038 301.741 -157.402 301.984 C-154.666 302.002 -153.292 301.454 -151 300 C-149.559 298.285 -149.559 298.285 -149 296 C-149.305 293.995 -149.641 291.996 -150 290 C-149.732 289.031 -149.464 288.061 -149.188 287.062 C-148.97 283.511 -149.399 282.981 -151.562 280.312 C-154.367 277.343 -157.187 275.543 -161 274 C-160.907 272.453 -160.907 272.453 -160.812 270.875 C-161.013 266.731 -162.042 264.589 -164 261 C-164 260.01 -164 259.02 -164 258 C-160.503 254.665 -157.605 252.579 -153 251 C-152.67 250.67 -152.34 250.34 -152 250 C-152.66 249.67 -153.32 249.34 -154 249 C-154 248.34 -154 247.68 -154 247 C-149.529 243 -149.529 243 -147 243 C-147.33 244.32 -147.66 245.64 -148 247 C-141.891 246.823 -141.891 246.823 -136.562 244.188 C-134.968 242.114 -134.968 242.114 -134.125 240 C-132.446 237.014 -129.868 235.77 -127 234 C-125.584 232.816 -125.584 232.816 -125.938 229.438 C-125.968 227.736 -125.968 227.736 -126 226 C-128.31 225.67 -130.62 225.34 -133 225 C-132.691 224.299 -132.381 223.597 -132.062 222.875 C-130.935 219.825 -130.207 217.251 -130 214 C-131.311 211.637 -131.311 211.637 -133 210 C-135.867 210.353 -136.856 210.839 -138.816 213.031 C-139.393 213.846 -139.969 214.661 -140.562 215.5 C-143.685 219.895 -143.685 219.895 -147 221 C-147.507 220.259 -147.507 220.259 -148.023 219.504 C-148.469 218.863 -148.915 218.223 -149.375 217.562 C-149.816 216.924 -150.257 216.286 -150.711 215.629 C-151.922 213.863 -151.922 213.863 -154 213 C-157.431 212.871 -160.33 212.793 -163.625 213.812 C-164.409 213.874 -165.192 213.936 -166 214 C-166.804 213.175 -167.609 212.35 -168.438 211.5 C-170.776 208.636 -170.776 208.636 -174.125 209 C-176.991 209.743 -176.991 209.743 -178.438 211.562 C-180.921 213.847 -183.726 213 -187 213 C-191.444 215.014 -192.931 217.195 -194.938 221.562 C-197.617 226.79 -197.617 226.79 -201.188 228.75 C-204 229 -204 229 -207 228 C-205.928 227.505 -204.855 227.01 -203.75 226.5 C-200.676 224.766 -199.408 223.349 -198 220.125 C-196 215.599 -193.411 212.375 -189 210 C-186.945 209.773 -186.945 209.773 -184.875 209.875 C-180.169 210.027 -179.499 208.871 -176 206 C-172.188 205.75 -172.188 205.75 -169 206 C-169.035 205.287 -169.07 204.574 -169.105 203.84 C-169.28 197.667 -168.905 193.462 -166 188 C-165.67 187.34 -165.34 186.68 -165 186 C-165.905 185.944 -165.905 185.944 -166.828 185.887 C-167.627 185.821 -168.427 185.755 -169.25 185.688 C-170.039 185.629 -170.828 185.571 -171.641 185.512 C-174.416 184.91 -175.751 183.692 -178 182 C-180.548 181.356 -183.061 181 -185.66 180.625 C-188.277 179.926 -189.294 179.058 -191 177 C-191.99 177.33 -192.98 177.66 -194 178 C-199.004 178.371 -201.983 178.099 -206 175 C-208 172 -208 172 -207.875 168.562 C-208.027 164.226 -208.97 163.846 -212 161 C-213 158.062 -213 158.062 -213 155 C-211.683 153.32 -210.347 151.655 -209 150 C-208.388 147.805 -208.388 147.805 -208 145.438 C-207.278 141.501 -206.272 139.508 -203 137 C-203.66 136.01 -204.32 135.02 -205 134 C-205.551 127.827 -205.551 127.827 -203.75 125.125 C-202 124 -202 124 -200.062 123.688 C-196.812 122.604 -195.844 119.793 -194 117 C-190.645 114.039 -188.294 113.921 -184 114.125 C-180.42 114.306 -180.42 114.306 -177.242 112.898 C-175.706 111.388 -175.706 111.388 -174 109 C-174.66 108.01 -175.32 107.02 -176 106 C-177.695 100.111 -178.62 94.099 -178 88 C-175.907 84.562 -173.889 82.188 -170 81 C-165.692 80.589 -162.723 80.518 -159 83 C-158.41 80.758 -158.41 80.758 -159 78 C-160.54 76.515 -160.54 76.515 -162.438 75.125 C-165.386 72.803 -165.933 72.225 -167.062 68.438 C-166.998 64.91 -166.341 63.204 -165 60 C-164.894 58.397 -164.814 56.793 -164.75 55.188 C-164.289 49.578 -162.045 45.865 -158 42 C-156.954 41.499 -156.954 41.499 -155.887 40.988 C-153.206 39.584 -152.957 37.509 -151.871 34.82 C-150.26 31.454 -148.423 29.359 -145 28 C-141.367 27.823 -137.868 27.938 -134.242 28.215 C-130.896 28.309 -130.896 28.309 -128.57 26.004 C-128.052 25.343 -127.534 24.681 -127 24 C-126.01 24.33 -125.02 24.66 -124 25 C-125.553 28.029 -127.151 30.102 -130 32 C-133.996 32.36 -137.54 32.195 -141.539 31.855 C-145.032 31.679 -145.032 31.679 -147.406 33.766 C-149.246 36.054 -149.246 36.054 -149.875 39.562 C-151 43 -151 43 -153.938 44.688 C-154.948 45.121 -155.959 45.554 -157 46 C-159.092 48.189 -159.953 49.391 -160.188 52.438 C-160.126 53.283 -160.064 54.129 -160 55 C-159.69 59.243 -160.372 60.713 -163 64 C-163.583 67.542 -163.583 67.542 -163 71 C-160.717 73.354 -159.367 73.959 -156.09 74.328 C-155.05 74.302 -154.009 74.277 -152.938 74.25 C-151.895 74.235 -150.852 74.219 -149.777 74.203 C-146.915 74.108 -146.915 74.108 -144 73 C-144.99 69.535 -144.99 69.535 -146 66 C-145.01 66 -144.02 66 -143 66 C-142.34 67.32 -141.68 68.64 -141 70 C-137.182 69.725 -137.182 69.725 -134 68 C-131.898 67.865 -129.793 67.768 -127.688 67.688 C-120.541 67.217 -114.64 65.576 -108 63 C-106.835 62.581 -105.669 62.162 -104.469 61.73 C-97.536 59.474 -97.536 59.474 -92 55 C-91.67 55.99 -91.34 56.98 -91 58 C-84.618 55.702 -79.351 53.188 -74 49 C-74.411 43.758 -75.126 40.664 -79 37 C-80.011 36.691 -81.021 36.381 -82.062 36.062 C-85 35 -85 35 -86.75 32.062 C-87.369 30.547 -87.369 30.547 -88 29 C-88.99 27.515 -88.99 27.515 -90 26 C-88.25 26.125 -88.25 26.125 -86 27 C-85.361 27.969 -84.721 28.939 -84.062 29.938 C-81.731 33.399 -80.721 33.548 -77 35 C-71.869 39.535 -71.215 43.691 -70.457 50.391 C-70.231 53.152 -70.231 53.152 -68 55 C-65.949 55.06 -65.949 55.06 -63.688 54.688 C-62.886 54.578 -62.084 54.468 -61.258 54.355 C-56.482 53.663 -56.482 53.663 -52 52 C-44.883 51.311 -44.883 51.311 -41.438 54 C-39.779 57.461 -39.64 59.367 -40.316 63.082 C-41.416 66.168 -43.582 67.87 -46 70 C-47.757 72.635 -49.129 75.269 -50.5 78.125 C-52 81 -52 81 -53.562 82.188 C-55.843 85.063 -55.456 88.349 -55.5 91.875 C-55.565 96.971 -55.782 100.823 -59 105 C-59.763 105.536 -60.526 106.073 -61.312 106.625 C-63.264 108.853 -63.264 108.853 -62.879 111.484 C-62.161 115.603 -61.255 119.368 -59.688 123.25 C-58.703 127.188 -60.335 129.404 -62 133 C-61.816 135.345 -61.816 135.345 -61 137 C-59.02 137.33 -57.04 137.66 -55 138 C-54.293 136.153 -53.611 134.297 -52.938 132.438 C-52.555 131.405 -52.172 130.372 -51.777 129.309 C-50.874 125.462 -51.32 122.876 -52 119 C-53.379 99.09 -49.925 81.81 -36.887 66.164 C-35.78 64.895 -34.663 63.635 -33.52 62.398 C-28.16 56.495 -25.72 50.048 -26 42.125 C-26.325 31.969 -22.695 24.518 -16.668 16.59 C-14.245 12.827 -13.158 8.867 -12.02 4.566 C-9.619 -1.477 -5.816 -1.454 0 0 Z M-8 2 C-9.832 5.266 -10.971 7.607 -11.25 11.375 C-12.049 15.235 -12.705 16.061 -15.312 18.812 C-22.629 26.7 -23.497 35.043 -23.824 45.363 C-23.97 48.379 -24.304 51.073 -25 54 C-21.28 53.14 -19.457 52.66 -17.242 49.461 C-16.791 48.443 -16.34 47.424 -15.875 46.375 C-15.376 45.293 -14.877 44.212 -14.363 43.098 C-13.913 42.075 -13.464 41.053 -13 40 C-10.104 33.597 -6.405 28.471 -2 23 C1.933 18.032 2.726 14.17 3 8 C2.34 8 1.68 8 1 8 C0.856 7.196 0.711 6.391 0.562 5.562 C0.259 3.079 0.259 3.079 -1 2 C-3.333 1.959 -5.667 1.958 -8 2 Z M160.188 21.125 C156.976 25.346 155.938 28.241 156.125 33.562 C156.499 36.058 157.069 38.18 157.978 40.541 C161.629 50.189 161.182 58.949 160.646 69.103 C159.895 83.706 159.703 97.306 163.074 111.617 C164.58 118.043 164.368 124.441 164 131 C165.32 131 166.64 131 168 131 C168.947 127.787 169.165 124.845 169.188 121.5 C169.202 120.562 169.216 119.623 169.23 118.656 C168.991 115.895 168.306 114.403 167 112 C166.613 109.675 166.27 107.341 166 105 C165.34 105 164.68 105 164 105 C164 104.01 164 103.02 164 102 C164.99 102 165.98 102 167 102 C167.026 100.693 167.052 99.386 167.078 98.039 C167.369 87.923 168.166 78.417 170.716 68.6 C171.864 64.304 171.864 64.304 171 60 C169.515 60.495 169.515 60.495 168 61 C168 60.34 168 59.68 168 59 C168.66 59 169.32 59 170 59 C170 57.02 170 55.04 170 53 C170.66 53 171.32 53 172 53 C175.329 35.949 175.329 35.949 171 20 C169.849 18.641 169.849 18.641 166.75 18.625 C162.917 18.68 162.917 18.68 160.188 21.125 Z M0 52 C-2.019 52.153 -4.04 52.274 -6.062 52.375 C-16.67 53.176 -23.544 55.249 -31 63 C-31.607 63.621 -32.214 64.243 -32.84 64.883 C-44.999 78.026 -50.663 94.266 -50.324 112.109 C-49.515 119.32 -47.207 126.393 -44.25 133 C-42.332 137.714 -42.921 142.64 -43.188 147.633 C-42.878 153.194 -40.151 157.071 -36.812 161.375 C-36.283 162.063 -35.753 162.752 -35.207 163.461 C-34.809 163.969 -34.41 164.477 -34 165 C-34.639 165.598 -35.279 166.196 -35.938 166.812 C-38.479 169.508 -38.908 171.44 -39.5 175.062 C-38.952 179.375 -38.016 180.632 -35.438 184 C-31.957 188.56 -31.957 188.56 -32.375 192.812 C-32.684 194.39 -32.684 194.39 -33 196 C-31.553 199.285 -31.553 199.285 -28 201 C-15.352 202.176 -3.577 196.868 6.238 189.316 C9.323 186.729 12.297 184.048 15.25 181.312 C15.764 180.837 16.278 180.362 16.808 179.872 C17.303 179.414 17.798 178.956 18.309 178.484 C19.197 177.665 20.085 176.845 21 176 C21.589 175.448 22.178 174.897 22.785 174.328 C28.393 169.682 36.058 168.599 43 167 C43 167.66 43 168.32 43 169 C42.34 169 41.68 169 41 169 C41 169.66 41 170.32 41 171 C46.38 170.66 50.533 170.314 55 167 C54.536 162.251 54.536 162.251 52.812 157.875 C52 156 52 156 52.875 153.75 C53.432 152.389 53.432 152.389 54 151 C54.3 147.541 54.584 144.168 53 141 C53.043 135.032 54.097 129.328 55.562 123.562 C58.322 111.948 57.439 103.623 52 93 C51.689 92.386 51.378 91.772 51.057 91.14 C43.604 76.625 33.282 58.857 17.5 52.5 C11.536 50.599 5.983 50.006 0 52 Z M-76 53 C-78.232 54.074 -78.232 54.074 -80.562 55.688 C-89.188 61.052 -96.615 63.215 -106.688 64.441 C-110.432 65.073 -113.267 66.282 -116.625 67.98 C-121.506 70.076 -126.813 70.942 -132 72 C-132 72.66 -132 73.32 -132 74 C-125.62 74.412 -121.343 73.66 -115.508 71.09 C-111.76 69.461 -107.89 68.24 -104 67 C-104 67.66 -104 68.32 -104 69 C-96.598 68.967 -89.94 67.276 -82.938 65.062 C-82.092 64.797 -81.247 64.532 -80.376 64.259 C-75.768 62.858 -75.768 62.858 -72 60 C-72.322 56.901 -72.322 56.901 -73 54 C-73.99 53.67 -74.98 53.34 -76 53 Z M-52.84 55.547 C-55.603 57.406 -56.886 57.137 -60.125 56.625 C-63.689 55.943 -63.689 55.943 -67 57 C-67 57.99 -67 58.98 -67 60 C-67 60.33 -67 60.66 -67 61 C-67.81 61.193 -67.81 61.193 -68.637 61.391 C-83.175 65.139 -98.321 69.891 -112.096 75.917 C-118.888 78.821 -125.626 80.355 -132.875 81.688 C-135.081 82.107 -137.287 82.528 -139.492 82.949 C-140.455 83.128 -141.418 83.307 -142.41 83.491 C-144.016 83.807 -145.618 84.155 -147.206 84.555 C-149.342 85.085 -151.3 85.169 -153.5 85.188 C-154.253 85.202 -155.006 85.216 -155.781 85.23 C-158.269 84.972 -159.795 84.14 -162 83 C-167.91 82.319 -167.91 82.319 -172.938 85.125 C-175.27 88.376 -176 90.007 -176 94 C-175.029 96.346 -174.031 98.68 -173 101 C-173.206 101.701 -173.412 102.403 -173.625 103.125 C-173.749 103.744 -173.873 104.362 -174 105 C-171.34 108.574 -169.676 109.84 -165.312 110.875 C-162.122 111.261 -162.122 111.261 -160 110 C-160.66 108.68 -161.32 107.36 -162 106 C-159.055 106 -155.574 108.636 -153.125 110.188 C-149.773 111.469 -146.501 111.578 -143 111 C-139.72 108.932 -138.153 107.229 -136 104 C-133.673 102.985 -131.34 101.985 -129 101 C-126.617 99.192 -126.092 98.376 -125.375 95.438 C-124 93 -124 93 -122.086 92.445 C-120.49 92.184 -118.894 91.925 -117.297 91.668 C-114.621 90.89 -113.757 89.992 -112 87.875 C-110.219 85.815 -109.507 85.073 -106.773 84.68 C-104.375 84.75 -104.375 84.75 -102.148 84.984 C-99.958 85.175 -99.958 85.175 -98.129 83.973 C-95.091 82.585 -92.834 83.215 -89.562 83.688 C-84.302 84.344 -84.302 84.344 -79.875 81.625 C-79.256 80.759 -78.637 79.892 -78 79 C-77.01 78.67 -76.02 78.34 -75 78 C-74.897 78.784 -74.794 79.567 -74.688 80.375 C-74.224 83.33 -74.224 83.33 -71 85 C-65.603 85.231 -60.582 84.917 -55.875 82.188 C-53.42 79.323 -52.105 77.361 -51.812 73.562 C-50.695 70.04 -48.643 69.032 -45.594 67.113 C-43.839 66.076 -43.839 66.076 -43 64 C-42.562 59.316 -42.562 59.316 -44.188 55.062 C-47.394 53.183 -49.962 53.127 -52.84 55.547 Z M-117.695 73.938 C-125.613 75.738 -133.785 75.784 -141.867 76.211 C-143.125 76.286 -144.383 76.36 -145.68 76.438 C-146.822 76.498 -147.964 76.559 -149.14 76.621 C-152.196 76.812 -152.196 76.812 -155 79 C-154.67 80.65 -154.34 82.3 -154 84 C-147.92 83.392 -142.056 82.215 -136.094 80.887 C-133.04 80.211 -129.978 79.605 -126.906 79.02 C-126.042 78.85 -125.177 78.681 -124.286 78.507 C-122.571 78.172 -120.853 77.848 -119.134 77.534 C-117.066 77.123 -115.028 76.573 -113 76 C-112.67 75.01 -112.34 74.02 -112 73 C-114.312 72.918 -114.312 72.918 -117.695 73.938 Z M106 84 C106 84.66 106 85.32 106 86 C106.946 86.354 107.892 86.709 108.867 87.074 C119.816 91.402 128.888 97.395 138.174 104.59 C139.677 105.751 141.213 106.868 142.758 107.973 C145.583 110.527 147.338 113.469 149.188 116.75 C150.403 118.888 151.651 120.939 153 123 C153.66 123 154.32 123 155 123 C156.8 115.079 155.857 106.588 151.75 99.5 C149.062 95.686 145.749 92.483 141 91.648 C138.287 90.769 137.603 89.423 136.062 87.062 C133.658 83.711 132.211 81.802 128 81 C120.429 80.312 113.34 82.268 106 84 Z M-83 85 C-89.885 85.328 -89.885 85.328 -93.125 84.375 C-96.03 83.794 -98.241 85.026 -101 86 C-102.134 86.103 -103.269 86.206 -104.438 86.312 C-108.387 87.075 -110.099 88.317 -113.172 90.746 C-115.145 92.1 -116.909 92.733 -119.188 93.438 C-123.449 94.88 -124.583 97.224 -127 101 C-128.84 102.289 -128.84 102.289 -130.938 103.5 C-135.049 105.942 -137.635 107.759 -140 112 C-139.787 115.328 -138.408 118.012 -137 121 C-136.529 122.137 -136.059 123.274 -135.574 124.445 C-132.015 132.654 -127.958 137.603 -120 142 C-119.01 142.66 -118.02 143.32 -117 144 C-114.246 144.025 -114.246 144.025 -111.312 143.625 C-110.319 143.514 -109.325 143.403 -108.301 143.289 C-107.542 143.194 -106.782 143.098 -106 143 C-105.34 140.69 -104.68 138.38 -104 136 C-106.68 133.32 -109.424 132.835 -113.004 131.781 C-115 131 -115 131 -116 129 C-113.69 128.34 -111.38 127.68 -109 127 C-109 127.99 -109 128.98 -109 130 C-106.228 129.718 -103.458 129.425 -100.688 129.125 C-99.902 129.046 -99.116 128.968 -98.307 128.887 C-97.549 128.803 -96.792 128.719 -96.012 128.633 C-95.315 128.559 -94.619 128.486 -93.901 128.411 C-91.682 128.053 -91.682 128.053 -89 126 C-87.12 125.407 -85.221 124.869 -83.312 124.375 C-81.822 123.984 -81.822 123.984 -80.301 123.586 C-79.162 123.296 -79.162 123.296 -78 123 C-80.475 125.97 -80.475 125.97 -83 129 C-81.68 130.65 -80.36 132.3 -79 134 C-73.792 131.878 -70.786 128.442 -68.125 123.562 C-66.128 117.47 -67.201 111.234 -68 105 C-68.091 104.231 -68.181 103.462 -68.274 102.67 C-68.57 100.233 -68.904 97.805 -69.25 95.375 C-69.347 94.605 -69.444 93.835 -69.543 93.042 C-70.13 89.318 -70.76 87.256 -73.359 84.477 C-77.338 82.252 -79.24 82.493 -83 85 Z M92 88 C92 88.66 92 89.32 92 90 C92.932 90.159 93.864 90.317 94.824 90.48 C104.345 92.223 113.636 94.447 122.176 99.215 C124.17 100.313 124.17 100.313 127 99 C120.643 92.643 110.019 87.458 100.965 86.867 C97.723 86.88 95.095 86.968 92 88 Z M-60 87 C-62.609 87.894 -62.609 87.894 -65 89 C-65 89.66 -65 90.32 -65 91 C-65.66 91 -66.32 91 -67 91 C-67 93.64 -67 96.28 -67 99 C-64.707 99.86 -64.707 99.86 -62 100 C-59.503 98.672 -59.503 98.672 -58 96 C-57.669 93.241 -57.814 90.796 -58 88 C-58.66 87.67 -59.32 87.34 -60 87 Z M81 97 C80.175 97.536 79.35 98.073 78.5 98.625 C74.808 102.132 71.936 106.277 70 111 C70.243 113.742 70.243 113.742 71 116 C70.34 116 69.68 116 69 116 C67.743 118.906 67 120.796 67 124 C74.072 122.333 80.703 119.336 87.312 116.375 C88.073 116.036 88.833 115.697 89.617 115.348 C98.478 111.373 107.242 107.195 116 103 C112.845 105.566 109.617 107.233 105.922 108.918 C104.182 109.716 104.182 109.716 102.406 110.529 C101.188 111.082 99.969 111.635 98.75 112.188 C97.515 112.752 96.281 113.316 95.047 113.881 C92.033 115.258 89.018 116.631 86 118 C86 118.66 86 119.32 86 120 C92.921 119.282 98.982 117.404 105.312 114.625 C106.316 114.187 106.316 114.187 107.34 113.74 C111.515 111.848 115.224 109.621 119 107 C120.319 106.306 121.646 105.625 123 105 C122.67 105.99 122.34 106.98 122 108 C121.115 118.617 125.801 128.491 130 138 C130.66 138 131.32 138 132 138 C130.68 132.72 129.36 127.44 128 122 C128.66 122 129.32 122 130 122 C130.082 123.011 130.165 124.021 130.25 125.062 C130.802 129.43 131.797 133.675 132.875 137.938 C133.036 138.612 133.198 139.287 133.364 139.983 C133.893 142.123 133.893 142.123 135 145 C136.485 145.495 136.485 145.495 138 146 C139.193 142.123 140 139.084 140 135 C140.66 135 141.32 135 142 135 C141.01 139.95 141.01 139.95 140 145 C143.973 143.458 143.973 143.458 145.25 140.938 C147.52 132.048 145.261 126.049 140.988 118.309 C133.147 105.261 120.553 98.255 106.125 94.188 C97.45 92.222 88.059 90.647 81 97 Z M-65 102 C-65.33 103.32 -65.66 104.64 -66 106 C-64.015 105.733 -64.015 105.733 -62 105 C-61.67 104.01 -61.34 103.02 -61 102 C-62.32 102 -63.64 102 -65 102 Z M140 109 C140.686 113.774 142.538 117.863 144.438 122.25 C146.928 128.125 148.964 133.671 150 140 C150.99 140 151.98 140 153 140 C154.814 136.371 154.659 132.893 154 129 C151.063 121.597 147.436 114.864 142 109 C141.34 109 140.68 109 140 109 Z M110.625 113.25 C100.477 118.474 90.199 121.285 78.911 122.786 C74.03 123.514 70.657 124.643 67 128 C63.577 137.358 63.189 150.262 66.562 159.688 C70.396 167.407 76.162 172.002 84.129 175.148 C90.204 176.485 96.243 176.238 102.434 175.904 C109.434 175.605 109.434 175.605 112.594 177.809 C114 180 114 180 115 183 C113.35 181.35 111.7 179.7 110 178 C109.01 178.33 108.02 178.66 107 179 C109.161 182.98 111.627 185.973 115 189 C115.66 189 116.32 189 117 189 C117.557 188.443 118.114 187.886 118.688 187.312 C121.561 184.439 124.66 182.313 128 180 C126.62 176.665 125.15 174.814 122 173 C121.01 173.33 120.02 173.66 119 174 C119.248 175.176 119.248 175.176 119.5 176.375 C120 179 120 179 120 181 C117.877 177.551 117.121 174.996 118 171 C122.937 165.993 128.244 164.322 135.129 164.008 C136.055 164.004 136.055 164.004 137 164 C137 163.34 137 162.68 137 162 C135.35 161.34 133.7 160.68 132 160 C132.908 160.165 133.815 160.33 134.75 160.5 C138.996 161.153 141.271 161.417 145.062 159.25 C148.567 156.567 148.567 156.567 151 153 C150.824 150.961 150.824 150.961 150 149 C149.667 147.667 149.333 146.333 149 145 C148.01 145 147.02 145 146 145 C146.186 145.557 146.371 146.114 146.562 146.688 C147.076 149.399 146.664 151.344 146 154 C145.01 151.525 145.01 151.525 144 149 C143.464 149.454 142.928 149.907 142.375 150.375 C139.683 152.217 137.115 153.08 134 154 C134.077 153.006 134.155 152.012 134.234 150.988 C133.953 146.198 132.521 143.32 130.25 139.188 C129.51 137.772 128.773 136.356 128.039 134.938 C127.508 133.92 127.508 133.92 126.966 132.883 C123.158 125.46 121.19 118.239 120 110 C116.1 110 114.062 111.412 110.625 113.25 Z M-159 111 C-159.33 111.66 -159.66 112.32 -160 113 C-158.35 112.67 -156.7 112.34 -155 112 C-156.32 111.67 -157.64 111.34 -159 111 Z M-174.188 114.562 C-177 117 -177 117 -179.547 116.934 C-180.978 116.719 -180.978 116.719 -182.438 116.5 C-186.311 115.872 -186.311 115.872 -189.977 116.887 C-192.717 119.134 -194.908 121.615 -196 125 C-196 126.32 -196 127.64 -196 129 C-197.98 128.34 -199.96 127.68 -202 127 C-202.947 129.605 -203.302 131.307 -202.176 133.891 C-201.171 135.626 -200.089 137.316 -199 139 C-199.969 139.577 -200.939 140.155 -201.938 140.75 C-205.039 142.635 -205.039 142.635 -205.875 145 C-206 146.997 -206 149 -206 151 C-206.99 151.681 -206.99 151.681 -208 152.375 C-210.289 153.89 -210.289 153.89 -210.625 156.875 C-209.728 161.361 -207.674 162.397 -204 165 C-204.33 165.66 -204.66 166.32 -205 167 C-205.417 169.958 -205.417 169.958 -205 173 C-203.462 175.029 -203.462 175.029 -201 176 C-197.833 176.251 -197.833 176.251 -195 176 C-195 175.01 -195 174.02 -195 173 C-195 172.67 -195 172.34 -195 172 C-194.192 172.263 -193.384 172.526 -192.551 172.797 C-186.138 174.871 -186.138 174.871 -179.75 173.75 C-177.542 170.281 -177.838 168.172 -178.086 164.172 C-177.957 160.904 -176.117 159.374 -174 157 C-173.203 153.812 -173.203 153.812 -173 151 C-171.113 150.845 -171.113 150.845 -169.188 150.688 C-166.551 150.357 -165.255 150.181 -163.062 148.625 C-161.814 146.866 -161.814 146.866 -161 144 C-160.336 144.119 -159.672 144.237 -158.988 144.359 C-153.301 145.281 -153.301 145.281 -148.062 143.312 C-145.315 140.232 -143.315 137.945 -142 134 C-142 136.31 -142 138.62 -142 141 C-141.34 141.33 -140.68 141.66 -140 142 C-139.278 143.644 -138.606 145.311 -138 147 C-135.69 147.33 -133.38 147.66 -131 148 C-130.14 145.707 -130.14 145.707 -130 143 C-131.311 141.644 -132.647 140.314 -134 139 C-135.25 135.25 -135.25 135.25 -136 132 C-137.763 131.907 -137.763 131.907 -139.562 131.812 C-144.361 131.208 -147.516 129.299 -151 126 C-153.269 122.87 -154.657 119.616 -156 116 C-158.31 116 -160.62 116 -163 116 C-163.495 114.515 -163.495 114.515 -164 113 C-168.146 110.927 -171.145 110.998 -174.188 114.562 Z M-148 114 C-148.33 114.99 -148.66 115.98 -149 117 C-149.99 117.33 -150.98 117.66 -152 118 C-151.785 121.761 -151.028 122.971 -148.375 125.75 C-145.121 128.269 -142.105 128.754 -138 129 C-138 128.01 -138 127.02 -138 126 C-140.97 125.505 -140.97 125.505 -144 125 C-144 124.67 -144 124.34 -144 124 C-142.35 124 -140.7 124 -139 124 C-139 123.01 -139 122.02 -139 121 C-140.32 121 -141.64 121 -143 121 C-143.402 119.546 -143.402 119.546 -143.812 118.062 C-144.204 117.052 -144.596 116.041 -145 115 C-145.99 114.67 -146.98 114.34 -148 114 Z M-65 120 C-65.303 120.759 -65.606 121.519 -65.918 122.301 C-66.337 123.295 -66.756 124.289 -67.188 125.312 C-67.594 126.299 -68 127.285 -68.418 128.301 C-70.237 131.405 -71.912 132.277 -75 134 C-76.401 137.072 -76.401 137.072 -74.562 140.188 C-74.047 141.116 -73.531 142.044 -73 143 C-71.035 142.482 -71.035 142.482 -69 141 C-67.95 138.689 -66.95 136.354 -66 134 C-65.464 133.526 -64.928 133.051 -64.375 132.562 C-62.35 130.262 -62.259 127.908 -61.82 124.938 C-61.825 122.865 -61.825 122.865 -63.492 121.25 C-63.99 120.838 -64.487 120.425 -65 120 Z M-95.125 128.875 C-95.994 129.037 -96.863 129.2 -97.758 129.367 C-100.179 129.853 -100.179 129.853 -102 132 C-103.211 137.218 -103.7 141.575 -101.312 146.438 C-99.114 148.946 -99.114 148.946 -97 150.875 C-94.992 153.008 -94.385 154.399 -93.312 157.062 C-92.072 159.76 -91.406 160.787 -88.746 162.184 C-86.507 162.916 -84.307 163.527 -82 164 C-82 163.01 -82 162.02 -82 161 C-83.134 160.443 -84.269 159.886 -85.438 159.312 C-88.87 157.382 -88.87 157.382 -89.938 154.25 C-89.958 153.507 -89.979 152.765 -90 152 C-85.25 151 -85.25 151 -83 151 C-82.67 151.66 -82.34 152.32 -82 153 C-80.359 154.041 -78.693 155.045 -77 156 C-74.639 149.966 -74.73 145.114 -77 139 C-78.75 136.378 -80.796 134.24 -83 132 C-83.536 131.196 -84.072 130.391 -84.625 129.562 C-85.306 128.789 -85.306 128.789 -86 128 C-89.284 128 -91.935 128.256 -95.125 128.875 Z M-49 130 C-52.492 137.749 -53.493 143.609 -52 152 C-52.66 152 -53.32 152 -54 152 C-54.33 153.65 -54.66 155.3 -55 157 C-55.99 157.33 -56.98 157.66 -58 158 C-58.217 159.547 -58.217 159.547 -58.438 161.125 C-58.623 162.404 -58.809 163.683 -59 165 C-59.115 165.891 -59.229 166.781 -59.348 167.699 C-60.171 171.864 -61.544 175.707 -63 179.688 C-63.542 181.191 -64.083 182.695 -64.625 184.199 C-64.985 185.187 -64.985 185.187 -65.352 186.194 C-65.924 187.788 -66.464 189.393 -67 191 C-65.051 190.945 -65.051 190.945 -63 190 C-61.613 187.445 -61.613 187.445 -60.625 184.25 C-58.967 179.562 -57.15 175.14 -54.938 170.688 C-52.046 164.549 -50.371 158.463 -48.887 151.879 C-48.077 148.336 -47.117 144.87 -46.125 141.375 C-45.005 136.981 -44.804 134.161 -47 130 C-47.66 130 -48.32 130 -49 130 Z M-132 137 C-130.691 140.122 -130.691 140.122 -128 142 C-127.474 143.423 -127.474 143.423 -126.938 144.875 C-124.476 148.845 -122.539 149.188 -118.156 150.262 C-116 151 -116 151 -114.523 152.574 C-113.063 154.225 -113.063 154.225 -110.695 154.258 C-109.847 154.214 -108.999 154.17 -108.125 154.125 C-104.57 154.011 -101.466 154.076 -98 155 C-98.39 151.621 -99.839 148.745 -102.039 146.164 C-104.932 144.447 -107.239 144.912 -110.562 145.125 C-118.047 145.519 -121.841 143.24 -127.672 138.75 C-129.781 136.8 -129.781 136.8 -132 137 Z M161 137 C161 137.66 161 138.32 161 139 C163.475 139.99 163.475 139.99 166 141 C166 141.33 166 141.66 166 142 C164.02 142.66 162.04 143.32 160 144 C160.959 146.331 160.959 146.331 164 148 C163.814 148.619 163.629 149.238 163.438 149.875 C162.763 152.042 162.763 152.042 164 154 C168.394 153.498 170.872 152.128 174 149 C175.162 146.606 175.162 146.606 175 144 C173.772 141.221 172.684 139.513 170.25 137.688 C167.131 136.735 164.238 136.875 161 137 Z M-66 138 C-67.026 139.651 -68.023 141.32 -69 143 C-70.013 143.605 -70.013 143.605 -71.047 144.223 C-73.333 145.947 -73.333 145.947 -73.645 149.32 C-73.728 151.204 -73.728 151.204 -73.812 153.125 C-73.881 154.386 -73.949 155.646 -74.02 156.945 C-74.358 159.876 -74.358 159.876 -73 161 C-72.207 167.869 -74.261 172.774 -77.004 179.047 C-78.012 182.034 -78.259 183.167 -77 186 C-75.27 187.902 -75.27 187.902 -73 189 C-70.954 189.039 -70.954 189.039 -69 188 C-67.512 185.546 -67.512 185.546 -66.438 182.5 C-66.016 181.407 -65.594 180.314 -65.16 179.188 C-64.777 178.136 -64.394 177.084 -64 176 C-63.71 175.216 -63.42 174.433 -63.121 173.625 C-61.292 168.414 -59.987 163.096 -58.695 157.73 C-58 155 -58 155 -56.812 151.625 C-55.813 148.396 -55.359 146.349 -56 143 C-58.082 140.879 -60.326 139.294 -63 138 C-63.99 138 -64.98 138 -66 138 Z M156 138 C153.216 141.341 152.873 143.749 153.062 147.938 C153.201 152.836 152.327 155.236 149 159 C144.517 163.483 141.058 164.851 135 166 C135.67 169.139 135.67 169.139 138.18 170.203 C139.069 170.549 139.959 170.894 140.875 171.25 C141.759 171.606 142.644 171.962 143.555 172.328 C146.107 173.273 146.107 173.273 149 172 C150.432 170.144 150.432 170.144 151.75 167.875 C154.664 163.299 158.02 159.662 162 156 C161.526 155.34 161.051 154.68 160.562 154 C158.893 150.794 158.512 148.474 158.184 144.938 C157.961 142.584 157.505 140.307 157 138 C156.67 138 156.34 138 156 138 Z M-145 142 C-145.887 142.639 -146.774 143.279 -147.688 143.938 C-151.025 146.016 -151.422 146.211 -155 145.938 C-158.621 145.731 -158.896 145.922 -162.062 148.312 C-163.032 149.199 -164.001 150.086 -165 151 C-166.855 151.789 -166.855 151.789 -168.75 152.438 C-172.238 153.684 -172.238 153.684 -173.312 156.938 C-173.539 157.948 -173.766 158.959 -174 160 C-174.371 160.66 -174.743 161.32 -175.125 162 C-176.204 164.085 -176.204 164.085 -175.938 166.938 C-176 170 -176 170 -177.625 172.562 C-179.306 174.93 -179.306 174.93 -178.5 177.625 C-176.053 181.499 -173.288 182.598 -169 183.938 C-163.242 184.573 -157.203 182.265 -152 180 C-150.63 178.704 -149.294 177.372 -148 176 C-146.507 175.157 -144.985 174.363 -143.438 173.625 C-139.245 171.347 -137.425 169.719 -136 165 C-135.008 159.724 -134.094 154.795 -137 150 C-137.979 148.98 -138.979 147.979 -140 147 C-140.495 145.948 -140.495 145.948 -141 144.875 C-141.912 142.647 -141.912 142.647 -145 142 Z M167.25 155.438 C166.604 155.82 165.958 156.202 165.293 156.596 C161.771 158.725 158.679 160.814 156 164 C156 164.66 156 165.32 156 166 C157.072 165.67 158.145 165.34 159.25 165 C168.165 162.842 175.849 163.041 183.887 167.656 C194.573 174.451 200.121 185.875 203 198 C203.834 203.602 203.967 209.226 203.99 214.882 C203.999 216.726 204.052 218.571 204.113 220.414 C204.369 230.621 202.827 240.062 199.438 249.688 C197.428 255.415 195.82 260.88 196 267 C196.33 267.66 196.66 268.32 197 269 C197.66 269 198.32 269 199 269 C199.196 268.371 199.392 267.742 199.594 267.094 C201.956 260.333 204.775 254.857 211 251 C213.67 250.153 216.379 249.604 219.125 249.062 C224.208 248.055 227.775 247.241 230.812 242.75 C232.05 240.393 232.05 240.393 233 238 C233.331 237.325 233.663 236.649 234.004 235.953 C237.563 227.974 235.963 220.067 234.566 211.727 C234.037 208.244 233.646 204.779 233.298 201.276 C231.345 181.855 225.64 166.413 211 153 C206.076 149.42 201.055 148.251 195 148 C194.046 147.948 193.092 147.897 192.109 147.844 C182.249 147.546 175.551 150.353 167.25 155.438 Z M139 149 C139.33 149.66 139.66 150.32 140 151 C140.33 150.34 140.66 149.68 141 149 C140.34 149 139.68 149 139 149 Z M-133 150 C-133 150.99 -133 151.98 -133 153 C-132.01 152.67 -131.02 152.34 -130 152 C-130 151.34 -130 150.68 -130 150 C-130.99 150 -131.98 150 -133 150 Z M-127 150 C-127.65 151.176 -127.65 151.176 -128.312 152.375 C-130 155 -130 155 -133 157 C-134.613 163.458 -133.717 167.032 -130.438 172.688 C-130.102 173.325 -129.766 173.962 -129.42 174.619 C-126.904 179.16 -124.121 181.861 -120 185 C-117.934 186.805 -115.882 188.626 -113.832 190.449 C-110.583 193.199 -109.39 194 -105 194 C-106.555 185.844 -108.378 177.761 -110.312 169.688 C-110.595 168.439 -110.878 167.191 -111.17 165.904 C-111.461 164.702 -111.751 163.5 -112.051 162.262 C-112.305 161.179 -112.559 160.095 -112.822 158.979 C-114.245 155.381 -116.077 153.499 -119 151 C-121.178 150.209 -121.178 150.209 -123.312 150.188 C-124.529 150.126 -125.746 150.064 -127 150 Z M-88 153 C-88 153.99 -88 154.98 -88 156 C-85.996 157.587 -85.996 157.587 -83.5 159 C-80.969 160.5 -80.969 160.5 -79 162 C-79 162.99 -79 163.98 -79 165 C-83.136 165.098 -86.936 164.774 -91 164 C-90.67 164.99 -90.34 165.98 -90 167 C-86.497 168.716 -86.497 168.716 -83 170 C-85.728 170 -88.317 169.467 -91 169 C-90.175 169.784 -89.35 170.567 -88.5 171.375 C-86 174 -86 174 -86 176 C-86.454 175.505 -86.907 175.01 -87.375 174.5 C-88.876 172.774 -88.876 172.774 -91 173 C-89.78 175.691 -89.78 175.691 -88 178 C-87.732 179.601 -87.485 181.206 -87.25 182.812 C-86.567 186.319 -86.279 187.698 -83.812 190.375 C-81.207 191.881 -78.59 193.359 -75.941 194.789 C-73.649 196.219 -71.731 197.922 -69.688 199.688 C-65.111 203.339 -60.849 204.576 -55 204 C-52.206 202.908 -51.262 202.482 -49.812 199.812 C-47.855 193.036 -47.73 186.068 -47.438 179.062 C-47.373 177.607 -47.373 177.607 -47.307 176.123 C-47.201 173.749 -47.099 171.374 -47 169 C-53.468 172.011 -56.57 178.289 -59 184.812 C-59.903 187.396 -60.188 188.48 -59.25 191.074 C-58.004 192.994 -56.69 194.464 -55 196 C-71.893 191.182 -71.893 191.182 -79 186 C-78.625 181.025 -77.719 177.024 -75.875 172.375 C-74.29 168.171 -73.241 165.347 -75 161 C-78.158 157.121 -81.408 154.939 -86 153 C-86.66 153 -87.32 153 -88 153 Z M-109.812 156.484 C-110.204 156.985 -110.596 157.485 -111 158 C-107.466 160.12 -104.056 160.532 -100 161 C-99.34 162.65 -98.68 164.3 -98 166 C-97.34 166 -96.68 166 -96 166 C-94.522 163.043 -94.94 160.258 -95 157 C-97.748 156.084 -100.138 155.608 -103 155.25 C-104.299 155.072 -104.299 155.072 -105.625 154.891 C-108.083 154.767 -108.083 154.767 -109.812 156.484 Z M-48 155 C-48.351 156.238 -48.701 157.475 -49.062 158.75 C-49.26 159.446 -49.457 160.142 -49.66 160.859 C-50.035 163.22 -49.727 164.744 -49 167 C-46.79 164.929 -46.79 164.929 -45 162 C-45.14 158.263 -45.14 158.263 -46 155 C-46.66 155 -47.32 155 -48 155 Z M-109 161 C-110.69 165.125 -109.264 168.883 -108.164 172.984 C-107.965 173.759 -107.766 174.533 -107.562 175.331 C-106.925 177.806 -106.276 180.278 -105.625 182.75 C-104.983 185.208 -104.343 187.666 -103.71 190.126 C-103.316 191.655 -102.916 193.182 -102.511 194.707 C-100.923 200.834 -99.671 206.953 -100.25 213.312 C-100.397 217.021 -100.397 217.021 -98.062 219 C-91.463 221.155 -85.452 220.196 -79 218 C-79.212 215.99 -79.429 213.98 -79.668 211.973 C-79.916 209.755 -80.12 207.533 -80.301 205.309 C-81.177 195.904 -81.177 195.904 -86.613 188.617 C-88.801 186.065 -89.053 183.277 -89.48 180.016 C-90.112 177.565 -91.184 176.706 -93 175 C-93.688 172.312 -93.688 172.312 -94 170 C-95.32 170 -96.64 170 -98 170 C-98.268 169.051 -98.536 168.102 -98.812 167.125 C-99.75 163.747 -99.75 163.747 -103 162 C-104.99 161.61 -106.99 161.268 -109 161 Z M-42.551 162.09 C-46.97 167.915 -46.181 178.44 -46.004 185.535 C-45.997 190.045 -46.523 194.52 -47 199 C-46.432 199.182 -45.863 199.364 -45.277 199.551 C-40.39 201.142 -35.703 202.931 -31 205 C-29.515 205.495 -29.515 205.495 -28 206 C-28.356 202.8 -29.007 201.994 -31.5 199.812 C-34.151 196.83 -34.275 196.496 -34.438 192.812 C-34.638 188.654 -35.826 186.332 -38.125 182.875 C-40.347 179.446 -41 178.399 -41 174.188 C-40 171 -40 171 -38.875 168.375 C-37.82 165.511 -38.174 163.892 -39 161 C-41.043 160.808 -41.043 160.808 -42.551 162.09 Z M168 167 C167.402 166.773 166.804 166.546 166.188 166.312 C163.995 165.754 163.995 165.754 162.41 167.039 C160.899 168.312 159.446 169.653 158 171 C158 170.34 158 169.68 158 169 C152.171 171.405 149.298 176.883 146.949 182.523 C145.488 186.673 145.488 186.673 145 191 C145.66 191 146.32 191 147 191 C147.99 188.03 148.98 185.06 150 182 C150.66 182 151.32 182 152 182 C151.505 183.031 151.01 184.062 150.5 185.125 C149.335 187.792 149.001 189.065 149.062 192.062 C148.979 195.991 147.237 197.854 145 201 C145 201.99 145 202.98 145 204 C156.328 200.19 164.115 188.868 170 179 C170.711 177.352 171.397 175.691 172 174 C172.495 174.66 172.99 175.32 173.5 176 C180.016 183.819 187.151 189.881 196 195 C196.66 195 197.32 195 198 195 C197.495 190.621 194.822 188.183 192 185 C193.32 185.33 194.64 185.66 196 186 C194.155 177.802 187.701 171.875 181.055 167.129 C176.515 164.635 172.435 164.043 168 167 Z M123 169 C123 169.99 123 170.98 123 172 C124.454 172.928 124.454 172.928 125.938 173.875 C129 176 129 176 129.691 178.633 C129.844 179.805 129.844 179.805 130 181 C129.313 181.471 128.626 181.941 127.918 182.426 C126.566 183.36 126.566 183.36 125.188 184.312 C124.294 184.927 123.401 185.542 122.48 186.176 C118.467 189.128 116.663 191.266 115 196 C114.67 196 114.34 196 114 196 C113.835 194.866 113.67 193.731 113.5 192.562 C112.103 186.985 108.585 182.415 104 179 C100.829 178.558 98.947 178.3 96.32 180.242 C93.829 183.3 93.829 183.3 93 187 C93.817 187.36 94.635 187.719 95.477 188.09 C96.309 188.72 97.142 189.351 98 190 C98.407 193.061 98.521 195.526 98.375 198.562 C98.361 199.343 98.347 200.124 98.332 200.928 C98.184 206.631 98.184 206.631 97 209 C96.419 214.588 96.548 219.362 100 224 C107.89 229.128 115.739 229.869 125 229 C132.539 227.05 132.539 227.05 139 223 C139.252 221.154 139.445 219.301 139.613 217.445 C139.725 216.281 139.837 215.117 139.953 213.918 C140.071 212.666 140.19 211.415 140.312 210.125 C141.262 200.436 142.501 191.022 144.993 181.6 C146.077 177.75 146.077 177.75 144.922 174.105 C138.413 170.361 130.357 169.603 123 169 Z M-134 171 C-136.911 174.55 -139.088 177.512 -138.812 182.188 C-136.283 186.112 -133.362 188.324 -129 190 C-126.37 190.109 -124.578 189.698 -122 189 C-122.804 189.763 -123.609 190.526 -124.438 191.312 C-127.168 193.794 -127.168 193.794 -128 197 C-121.965 197.642 -121.965 197.642 -117 194.5 C-116.01 193.262 -116.01 193.262 -115 192 C-117.346 188.677 -119.777 186.336 -123.062 184 C-126.316 181.644 -128.215 179.665 -130 176 C-130.972 174.317 -131.966 172.646 -133 171 C-133.33 171 -133.66 171 -134 171 Z M37.625 173.125 C36.622 173.218 35.619 173.311 34.586 173.406 C27.489 174.242 23.22 176.144 18 181 C17.49 181.464 16.979 181.928 16.454 182.406 C15.033 183.73 13.641 185.084 12.25 186.438 C3.248 194.877 -5.893 199.558 -18 202 C-20.391 202.575 -22.663 203.221 -25 204 C-26.884 207.768 -26.636 211.906 -26 216 C-24.496 218.996 -22.738 221.064 -20 223 C-16.283 224.047 -16.283 224.047 -13 224 C-14.617 220.571 -16.576 217.437 -18.625 214.25 C-19.257 213.265 -19.888 212.28 -20.539 211.266 C-21.021 210.518 -21.503 209.77 -22 209 C-19.639 211.241 -17.74 213.631 -15.812 216.25 C-10.071 223.64 -4.412 229.141 5 231 C10.363 231.446 10.363 231.446 15 229 C15.392 228.113 15.784 227.226 16.188 226.312 C18.632 221.844 22.068 219.157 26 216 C25.505 213.544 25.505 213.544 24 211 C18.985 208.05 15.628 207.676 10 209 C9.01 209.495 9.01 209.495 8 210 C8.516 209.423 9.031 208.845 9.562 208.25 C11.265 206.122 11.265 206.122 10.688 203.75 C10.347 202.884 10.347 202.884 10 202 C10.66 202 11.32 202 12 202 C12.24 202.629 12.48 203.258 12.727 203.906 C14.347 206.57 15.403 206.75 18.375 207.5 C25.682 209.706 28.266 214.695 32 221 C35.561 219.322 35.561 219.322 37.75 216.25 C37.832 215.507 37.915 214.765 38 214 C38.482 210.35 39.008 206.972 40.062 203.438 C40.971 200.108 41.167 197.428 41 194 C41.66 194 42.32 194 43 194 C42.783 194.929 42.567 195.859 42.344 196.816 C42.065 198.053 41.787 199.289 41.5 200.562 C41.222 201.781 40.943 202.999 40.656 204.254 C39.77 209.311 39.127 213.146 41.359 217.887 C45.378 221.103 49.24 220.781 54.25 220.812 C55.186 220.838 56.122 220.863 57.086 220.889 C59.391 220.947 61.694 220.984 64 221 C66.963 214.302 69.168 208.429 68 201 C65.813 195.349 63.008 190.132 59.25 185.375 C56.188 181.407 55.656 176.867 55 172 C49.15 171.82 43.427 172.459 37.625 173.125 Z M-144 177 C-143.67 178.32 -143.34 179.64 -143 181 C-142.34 181 -141.68 181 -141 181 C-141.33 179.68 -141.66 178.36 -142 177 C-142.66 177 -143.32 177 -144 177 Z M173 179 C171.07 181.394 169.157 183.79 167.316 186.254 C164.321 190.196 161.32 193.811 157.555 197.035 C156.66 197.807 156.66 197.807 155.748 198.594 C154.561 199.598 153.355 200.58 152.129 201.537 C149.903 203.42 148.107 204.964 147.797 207.967 C148.025 210.061 148.429 211.974 149 214 C149.251 214.91 149.503 215.82 149.762 216.758 C151.98 222.431 154.186 226.189 159 230 C160.32 230 161.64 230 163 230 C163 229.01 163 228.02 163 227 C164.145 226.845 164.145 226.845 165.312 226.688 C168.171 225.956 169.157 225.23 171 223 C170.67 224.98 170.34 226.96 170 229 C173.755 231.907 176.898 232.662 181.535 232.461 C187.678 231.312 192.326 228.132 196.152 223.258 C199.448 218.176 202.102 213.775 202.375 207.625 C202.424 206.875 202.473 206.125 202.523 205.352 C201.247 199.615 194.727 196.229 190.125 193.062 C183.996 188.768 178.278 184.34 173 179 Z M-149 180 C-149 180.66 -149 181.32 -149 182 C-148.01 181.67 -147.02 181.34 -146 181 C-146.99 180.67 -147.98 180.34 -149 180 Z M-142 183 C-142 183.66 -142 184.32 -142 185 C-142.804 185.227 -143.609 185.454 -144.438 185.688 C-145.283 186.121 -146.129 186.554 -147 187 C-147.894 189.548 -147.894 189.548 -148 192 C-147.446 192.205 -146.891 192.41 -146.32 192.621 C-145.596 192.891 -144.871 193.16 -144.125 193.438 C-143.406 193.704 -142.686 193.971 -141.945 194.246 C-140 195 -140 195 -138 196 C-135.667 196.04 -133.333 196.043 -131 196 C-130.67 194.68 -130.34 193.36 -130 192 C-134.455 192.495 -134.455 192.495 -139 193 C-138.794 192.093 -138.588 191.185 -138.375 190.25 C-137.987 186.89 -138.196 185.759 -140 183 C-140.66 183 -141.32 183 -142 183 Z M-161 185 C-161.33 186.65 -161.66 188.3 -162 190 C-160.917 190.712 -160.917 190.712 -159.812 191.438 C-154.872 195.939 -152.35 201.539 -150.438 207.875 C-149.556 210.724 -149.09 211.904 -147 214.125 C-144.862 215.326 -144.862 215.326 -142 214 C-141.237 212.969 -140.474 211.938 -139.688 210.875 C-138.801 209.926 -137.914 208.977 -137 208 C-133.72 207.934 -131.948 208.277 -129.332 210.273 C-127.588 212.535 -127.69 213.868 -127.812 216.688 C-127.853 217.9 -127.853 217.9 -127.895 219.137 C-127.929 219.752 -127.964 220.366 -128 221 C-124.107 220.2 -122.066 218.529 -119 216 C-115.161 213.702 -111.725 213.646 -107.34 213.441 C-104.553 212.916 -103.639 212.291 -102 210 C-101.466 205.35 -101.663 202.859 -103.375 198.5 C-106.363 195.654 -107.1 195.593 -111.062 195.5 C-114.714 195.632 -115.857 195.905 -119 198 C-122.748 198.344 -126.477 198.443 -130.238 198.559 C-134.132 199.016 -136.635 200.043 -140 202 C-139.34 200.68 -138.68 199.36 -138 198 C-141.364 195.039 -144.692 194.077 -149 193 C-150.082 189.635 -149.925 188.702 -149 185 C-152.96 185 -156.92 185 -161 185 Z M76 190 C74.644 192.802 74.921 193.769 75.938 196.75 C76.288 197.493 76.639 198.235 77 199 C78.361 198.876 78.361 198.876 79.75 198.75 C83 199 83 199 85.312 200.562 C88.004 204.45 88 208.381 88 213 C91.747 211.959 94.201 210.492 96.277 207.121 C97.905 202.344 97.589 196.959 97 192 C95.059 189.651 95.059 189.651 91.562 189.562 C87.81 188.97 87.386 188.613 85 186 C80.292 186 79.291 186.798 76 190 Z M-165 192 C-166.972 196.757 -167.275 199.992 -166 205 C-164.678 208.069 -164.678 208.069 -162 210 C-158.954 210.41 -156.053 210.294 -153 210 C-153.285 202.008 -156.433 197.567 -162 192 C-162.99 192 -163.98 192 -165 192 Z M-79 195 C-79.33 195.33 -79.66 195.66 -80 196 C-79.936 197.961 -79.798 199.92 -79.625 201.875 C-79.535 202.945 -79.445 204.015 -79.352 205.117 C-79.089 208.064 -79.089 208.064 -78 211 C-77.01 210.67 -76.02 210.34 -75 210 C-74.34 206.37 -73.68 202.74 -73 199 C-75.71 196.327 -75.71 196.327 -79 195 Z M74.688 202.062 C72.193 204.927 72.129 207.259 72 211 C72.76 214.042 73.58 215.565 75.75 217.812 C78.628 219.331 80.793 219.219 84 219 C84 218.01 84 217.02 84 216 C83.34 215.67 82.68 215.34 82 215 C81.593 212.678 81.256 210.343 81 208 C80.01 207.67 79.02 207.34 78 207 C79.98 206.34 81.96 205.68 84 205 C83.67 203.68 83.34 202.36 83 201 C79.841 200.785 77.591 200.729 74.688 202.062 Z M-70 202 C-72.599 204.599 -73.035 206.86 -74.125 210.375 C-76.513 217.911 -79.426 225.19 -82.497 232.472 C-82.835 233.292 -83.174 234.112 -83.523 234.957 C-83.832 235.689 -84.141 236.421 -84.458 237.175 C-85.248 239.074 -85.248 239.074 -84 241 C-79.093 235.392 -76.275 229.09 -73.789 222.137 C-72.891 219.704 -71.88 217.328 -70.875 214.938 C-69.241 210.903 -68.376 207.328 -68 203 C-68.66 202.67 -69.32 202.34 -70 202 Z M-65 205 C-68.421 212.043 -71.214 219.365 -73 227 C-72.67 227.66 -72.34 228.32 -72 229 C-66.132 221.813 -61.071 214.352 -57 206 C-59.64 205.67 -62.28 205.34 -65 205 Z M-50.184 211.914 C-54.81 216.874 -58.043 222.34 -61.324 228.246 C-63.484 231.795 -65.891 234.27 -69 237 C-68.67 237.99 -68.34 238.98 -68 240 C-63.683 239.105 -60.569 236.856 -57 234.375 C-52.249 231.119 -47.492 228.09 -42.438 225.312 C-36.42 221.858 -32.219 218.454 -29.875 211.812 C-29.75 208.897 -29.75 208.897 -31.688 206.625 C-37.74 202.372 -45.387 207.71 -50.184 211.914 Z M-51.691 206.688 C-58.013 211.122 -61.653 217.014 -65.703 223.441 C-71.199 232.114 -71.199 232.114 -76 234 C-76 234.66 -76 235.32 -76 236 C-69.104 234.723 -64.943 230.495 -61 225 C-59.834 222.991 -58.689 220.969 -57.562 218.938 C-54.642 213.742 -51.785 210.515 -47 207 C-49.8 205.705 -49.8 205.705 -51.691 206.688 Z M142 211 C142 213.64 142 216.28 142 219 C142.66 219 143.32 219 144 219 C144 216.36 144 213.72 144 211 C143.34 211 142.68 211 142 211 Z M88 217 C87.175 217.907 86.35 218.815 85.5 219.75 C82.501 222.449 81.819 222 78 222 C75.187 224.396 75.187 224.396 73 227 C67.125 225.125 67.125 225.125 66 224 C64 223.959 62 223.957 60 224 C60.606 229.76 62.757 234.72 65 240 C68.727 240.353 72.283 240.514 76 240 C78.454 237.596 78.454 237.596 79.625 235.66 C82.882 231.728 88.63 229.988 93.258 228.059 C95.385 227.045 95.385 227.045 95.812 223.812 C95.998 220.035 95.682 216.713 95 213 C91.823 213 90.36 214.969 88 217 Z M-110 215 C-110.33 216.65 -110.66 218.3 -111 220 C-110.34 220 -109.68 220 -109 220 C-108.34 218.68 -107.68 217.36 -107 216 C-107.99 215.67 -108.98 215.34 -110 215 Z M-104 215 C-106.152 218.228 -106.201 219.284 -106 223 C-104.02 223.99 -104.02 223.99 -102 225 C-102 221.7 -102 218.4 -102 215 C-102.66 215 -103.32 215 -104 215 Z M-120 218 C-121.323 223.905 -120.319 229.31 -117.562 234.625 C-115.759 237.336 -114.714 238.72 -111.668 239.914 C-109.302 240.243 -107.356 240.396 -105 240 C-102.804 238.181 -102.804 238.181 -102.562 235.645 C-103.185 231.88 -105.01 230.959 -108 228.688 C-112.819 224.642 -112.819 224.642 -113.664 221.641 C-113.625 219.438 -113.625 219.438 -113 216 C-117.046 215.63 -117.046 215.63 -120 218 Z M69 216 C68.34 217.65 67.68 219.3 67 221 C68.165 222.666 68.165 222.666 70 224 C72.655 223.77 72.655 223.77 75 223 C75.4 219.169 75.4 219.169 73.688 217.25 C71.948 215.702 71.948 215.702 69 216 Z M146 216 C144.413 222.134 143.682 227.872 143.664 234.199 C143.657 235.038 143.651 235.877 143.644 236.741 C143.634 238.498 143.629 240.255 143.629 242.012 C143.625 244.692 143.589 247.37 143.551 250.049 C143.545 251.766 143.541 253.482 143.539 255.199 C143.525 255.993 143.51 256.787 143.496 257.605 C143.547 263.843 145.466 267.466 149.938 271.938 C152.654 273.337 154.14 272.874 157 272 C157.237 265.653 157.237 265.653 154.41 260.293 C152.535 258.983 152.535 258.983 150.594 257.938 C149 257 149 257 148 255 C147.27 249.23 147.963 245.059 151.027 240.117 C153.466 234.81 153.174 230.381 151.311 225.053 C151.064 224.396 150.817 223.739 150.562 223.062 C150.198 222.037 150.198 222.037 149.826 220.99 C149.231 219.322 148.617 217.66 148 216 C147.34 216 146.68 216 146 216 Z M23 220 C23 221.32 23 222.64 23 224 C23.661 224.621 24.323 225.243 25.004 225.883 C27 228 27 228 27.215 230.805 C27.078 232.324 27.078 232.324 26.938 233.875 C26.716 239.112 26.716 239.112 29.125 243.562 C32.773 246.656 37.083 249.661 42 250 C43.772 248.646 43.772 248.646 45 247 C45.33 247.99 45.66 248.98 46 250 C46.66 250 47.32 250 48 250 C48.511 244.634 47.389 242.151 44 238 C40.491 234.573 36.932 231.573 32.75 229 C29.186 226.408 27.958 223.915 26 220 C25.01 220 24.02 220 23 220 Z M34.812 222 C34.214 222.66 33.616 223.32 33 224 C36.61 223.344 36.61 223.344 40 222 C40 221.34 40 220.68 40 220 C36.875 219.663 36.875 219.663 34.812 222 Z M201 220 C200.67 221.65 200.34 223.3 200 225 C200.66 225 201.32 225 202 225 C202.33 223.35 202.66 221.7 203 220 C202.34 220 201.68 220 201 220 Z M-87 221 C-89.103 221.066 -91.208 221.086 -93.312 221.062 C-94.381 221.053 -95.45 221.044 -96.551 221.035 C-97.359 221.024 -98.167 221.012 -99 221 C-99 222.32 -99 223.64 -99 225 C-93.507 227.143 -88.878 227.751 -83.125 226.25 C-80.82 225.192 -80.82 225.192 -80.188 222.875 C-80.095 221.947 -80.095 221.947 -80 221 C-82.703 219.649 -84.06 220.399 -87 221 Z M-111 222 C-110.34 223.32 -109.68 224.64 -109 226 C-108.34 226 -107.68 226 -107 226 C-107.66 224.68 -108.32 223.36 -109 222 C-109.66 222 -110.32 222 -111 222 Z M-31 222 C-33.397 225.196 -35.385 228.001 -36 232 C-33.36 232.33 -30.72 232.66 -28 233 C-28.33 229.37 -28.66 225.74 -29 222 C-29.66 222 -30.32 222 -31 222 Z M38.375 224 C37.261 224.66 36.147 225.32 35 226 C36.207 229.621 37.468 230.341 40.5 232.562 C44.9 235.8 44.9 235.8 46 238 C46.66 238 47.32 238 48 238 C49.784 234.938 50.229 232.779 50.125 229.25 C50.098 228.051 50.098 228.051 50.07 226.828 C50.047 226.225 50.024 225.622 50 225 C44.138 221.769 44.138 221.769 38.375 224 Z M53 222 C52.295 224.908 52.007 227.366 52.062 230.375 C52 234 52 234 50.875 237.688 C49.697 240.88 49.697 240.88 50.875 243.438 C51.246 243.953 51.618 244.469 52 245 C52.66 245 53.32 245 54 245 C53.67 243.68 53.34 242.36 53 241 C56.247 242.624 56.702 245.754 58 249 C58.66 249 59.32 249 60 249 C59.801 242.444 59.801 242.444 57.438 236.5 C55.442 233.03 55.905 230.129 56.188 226.207 C56.126 225.479 56.064 224.75 56 224 C55.01 223.34 54.02 222.68 53 222 Z M19 225 C19 226.32 19 227.64 19 229 C19.99 228.01 20.98 227.02 22 226 C21.01 225.67 20.02 225.34 19 225 Z M-26 226 C-26.089 229.832 -25.879 233.266 -25 237 C-20.805 236.401 -16.99 235.425 -13 234 C-13 233.34 -13 232.68 -13 232 C-14.603 231.185 -16.207 230.373 -17.812 229.562 C-18.706 229.11 -19.599 228.658 -20.52 228.191 C-23.04 226.917 -23.04 226.917 -26 226 Z M196 226 C195.134 226.743 194.267 227.485 193.375 228.25 C191.197 230.076 189.076 231.61 186.688 233.188 C183.933 234.725 183.933 234.725 183 237 C183.99 238.485 183.99 238.485 185 240 C185.66 240 186.32 240 187 240 C187.577 239.423 188.155 238.845 188.75 238.25 C191 236 191 236 194.125 234 C196.892 232.075 197.892 231.102 199 228 C198.01 227.34 197.02 226.68 196 226 Z M-41 227 C-41.33 227.66 -41.66 228.32 -42 229 C-40.68 228.67 -39.36 228.34 -38 228 C-38.99 227.67 -39.98 227.34 -41 227 Z M-17 227 C-16.67 227.66 -16.34 228.32 -16 229 C-13.874 229.467 -13.874 229.467 -11.438 229.625 C-10.611 229.7 -9.785 229.775 -8.934 229.852 C-8.296 229.901 -7.657 229.95 -7 230 C-7.33 229.01 -7.66 228.02 -8 227 C-10.97 227 -13.94 227 -17 227 Z M99 227 C99 227.66 99 228.32 99 229 C106.209 232.451 106.209 232.451 114 234 C114.928 234.112 114.928 234.112 115.875 234.227 C123.329 234.747 130.294 232.04 137 229 C137.33 228.34 137.66 227.68 138 227 C134.499 227.649 131.156 228.532 127.75 229.562 C118.549 232.063 111.937 230.979 103 228 C101.67 227.653 100.338 227.315 99 227 Z M-105 228 C-103.68 229.32 -102.36 230.64 -101 232 C-101.66 230.68 -102.32 229.36 -103 228 C-103.66 228 -104.32 228 -105 228 Z M-98 228 C-97.67 228.99 -97.34 229.98 -97 231 C-95.68 230.67 -94.36 230.34 -93 230 C-93 229.34 -93 228.68 -93 228 C-94.65 228 -96.3 228 -98 228 Z M-99 233 C-101.62 235.98 -102 239.073 -102 243 C-97.851 243.604 -94.121 243.876 -90 243 C-87.059 240.075 -85.396 236.888 -84 233 C-84 232.01 -84 231.02 -84 230 C-89.203 230 -94.178 231.045 -99 233 Z M87.938 232.312 C86.652 232.956 86.652 232.956 85.34 233.613 C83.159 234.906 81.6 236.043 80 238 C80 238.66 80 239.32 80 240 C80.965 239.934 80.965 239.934 81.949 239.867 C94.775 239.904 103.765 250.494 112.465 258.871 C119.108 264.449 124.904 265.204 133.25 264.562 C134.368 264.484 134.368 264.484 135.508 264.404 C137.339 264.275 139.17 264.138 141 264 C142.418 253.188 143.206 242.35 139 232 C134.824 230.608 132.865 232.177 129 234 C129.66 235.65 130.32 237.3 131 239 C125.72 238.34 120.44 237.68 115 237 C115 237.66 115 238.32 115 239 C114.34 238.67 113.68 238.34 113 238 C113 237.34 113 236.68 113 236 C112.18 235.734 111.36 235.469 110.516 235.195 C109.438 234.842 108.36 234.489 107.25 234.125 C105.649 233.603 105.649 233.603 104.016 233.07 C101 232 101 232 98.859 230.867 C94.709 228.932 91.696 230.391 87.938 232.312 Z M155 230 C155 230.66 155 231.32 155 232 C155.66 231.67 156.32 231.34 157 231 C156.34 230.67 155.68 230.34 155 230 Z M165 230 C165 230.66 165 231.32 165 232 C165.66 232 166.32 232 167 232 C167 231.34 167 230.68 167 230 C166.34 230 165.68 230 165 230 Z M58 231 C58.33 231.99 58.66 232.98 59 234 C59.33 233.01 59.66 232.02 60 231 C59.34 231 58.68 231 58 231 Z M-122 232 C-121.34 233.32 -120.68 234.64 -120 236 C-119.67 235.01 -119.34 234.02 -119 233 C-119.99 232.67 -120.98 232.34 -122 232 Z M194 235.625 C192.67 236.634 192.67 236.634 191.312 237.664 C188.683 240.321 187.905 242.412 187 246 C186.423 245.175 185.845 244.35 185.25 243.5 C184.507 242.675 183.765 241.85 183 241 C181.68 241 180.36 241 179 241 C176.603 243.225 176.603 243.225 175 246 C175.33 246.99 175.66 247.98 176 249 C176.784 249.083 177.567 249.165 178.375 249.25 C179.241 249.498 180.108 249.745 181 250 C181.699 251.316 182.367 252.65 183 254 C185.05 254.805 185.05 254.805 187 255 C186.963 255.717 186.925 256.433 186.887 257.172 C187.01 260.246 187.674 262.402 188.812 265.25 C189.149 266.121 189.485 266.993 189.832 267.891 C190.874 270.334 190.874 270.334 194 271 C194.098 270.068 194.196 269.136 194.297 268.176 C195.326 259.401 197.101 251.384 200 243 C200.917 240.249 201.109 238.641 201.062 235.812 C201.042 234.554 201.021 233.296 201 232 C197.911 232 196.404 233.759 194 235.625 Z M-62 240 C-62 240.66 -62 241.32 -62 242 C-56.03 242.578 -50.068 240.664 -45.438 236.938 C-43.801 235.134 -43.801 235.134 -44 233 C-50.798 232.32 -57.017 235.432 -62 240 Z M20 231 C14.423 232.212 8.934 232.021 3.246 231.969 C-0.904 232.009 -4.89 232.443 -9 233 C-9 233.66 -9 234.32 -9 235 C-7.02 235 -5.04 235 -3 235 C-3 235.66 -3 236.32 -3 237 C-3.639 236.835 -4.279 236.67 -4.938 236.5 C-8.987 235.839 -12.918 235.414 -17 236 C-19.57 237.813 -19.57 237.813 -21 240 C-20.505 240.99 -20.505 240.99 -20 242 C-25.72 238.36 -25.72 238.36 -27.75 235.75 C-30.96 233.254 -33.693 233.56 -37.66 233.566 C-40.43 234.08 -41.369 234.727 -43 237 C-43 237.99 -43 238.98 -43 240 C-42.01 240.33 -41.02 240.66 -40 241 C-39.505 241.99 -39.505 241.99 -39 243 C-39.577 242.67 -40.155 242.34 -40.75 242 C-43.199 240.729 -43.199 240.729 -47 241 C-47 241.66 -47 242.32 -47 243 C-48.279 242.959 -49.558 242.917 -50.875 242.875 C-53.019 242.758 -53.019 242.758 -55 243 C-55.66 243.66 -56.32 244.32 -57 245 C-57 246.32 -57 247.64 -57 249 C-57.66 249 -58.32 249 -59 249 C-59 247.68 -59 246.36 -59 245 C-60.65 244.67 -62.3 244.34 -64 244 C-64.66 245.98 -65.32 247.96 -66 250 C-66.922 250.056 -66.922 250.056 -67.863 250.113 C-69.076 250.212 -69.076 250.212 -70.312 250.312 C-71.113 250.371 -71.914 250.429 -72.738 250.488 C-75.363 251.082 -76.308 251.958 -78 254 C-77.031 254.681 -76.061 255.361 -75.062 256.062 C-72.482 258.237 -71.976 259.069 -70.812 262.438 C-71.008 266.149 -71.635 267.902 -74.219 270.586 C-83.678 278.095 -94.476 279.361 -106.125 279.375 C-107.183 279.399 -108.242 279.424 -109.332 279.449 C-115.714 279.473 -119.004 278.938 -124 275 C-125.32 275 -126.64 275 -128 275 C-129.745 277.08 -129.745 277.08 -131.25 279.75 C-135.263 285.865 -139.272 287.757 -146 290 C-146.704 295.722 -146.704 295.722 -144.77 300.98 C-143.751 302.12 -142.698 303.229 -141.605 304.297 C-140 306 -140 306 -138.812 308.59 C-136.572 311.569 -134.685 311.911 -131.084 312.506 C-130.334 312.607 -129.585 312.708 -128.812 312.812 C-127.717 312.993 -127.717 312.993 -126.6 313.178 C-120.862 314.067 -114.742 314.975 -109.188 313 C-103.432 311.194 -97.316 310.91 -91.812 313.5 C-91.214 313.995 -90.616 314.49 -90 315 C-91.25 318.653 -91.671 319.781 -95 322 C-98.328 322.012 -98.328 322.012 -102.25 321.688 C-104.176 321.539 -104.176 321.539 -106.141 321.387 C-108.582 321.142 -111.018 320.839 -113.441 320.457 C-117.563 319.928 -121.541 319.927 -125.688 320 C-133.949 320.143 -133.949 320.143 -138 319 C-135.896 323.566 -133.552 326.69 -129 329 C-123.294 329.774 -117.661 329.21 -111.951 328.76 C-103.913 328.148 -95.909 327.83 -87.851 327.669 C-72.52 327.348 -57.24 326.53 -41.938 325.562 C-0.378 322.962 41.143 321.774 82.776 321.157 C128.461 320.497 128.461 320.497 174 317 C173.166 312.871 171.477 311.134 168.438 308.188 C167.529 307.306 166.62 306.424 165.684 305.516 C162.864 302.873 160.005 300.298 157.07 297.785 C154.636 295.686 152.257 293.533 149.875 291.375 C146.315 288.162 142.716 285.031 139 282 C138.34 282.33 137.68 282.66 137 283 C137.516 283.846 138.031 284.691 138.562 285.562 C140.302 289.722 140.253 291.692 139 296 C133.542 303.113 125.527 305.592 117 307 C113.848 307.277 110.726 307.335 107.562 307.312 C106.732 307.308 105.902 307.303 105.046 307.298 C97.439 307.152 90.726 306.313 84.5 301.625 C82.086 299.09 80.953 297.334 80 294 C80.66 294 81.32 294 82 294 C82.062 294.557 82.124 295.114 82.188 295.688 C83.598 299.703 86.108 301.994 89.852 303.984 C101.539 308.362 116.83 307.406 128.418 303.211 C133.177 300.979 136.059 298.411 139 294 C139 288.996 138.624 286.165 135.125 282.5 C132.775 280.28 132.385 280 129 280 C128.34 281.65 127.68 283.3 127 285 C127.516 285.371 128.031 285.743 128.562 286.125 C130 288 130 288 130.125 291 C129 294 129 294 126.375 295.938 C116.997 299.238 105.114 296.038 96 293 C96 291.68 96 290.36 96 289 C94.08 287.226 94.08 287.226 92 286 C92.99 286 93.98 286 95 286 C95 284.68 95 283.36 95 282 C95.66 282 96.32 282 97 282 C97.433 282.928 97.433 282.928 97.875 283.875 C98.937 286.133 98.937 286.133 101 288 C104.971 287.678 107.707 286.164 111 284 C110.952 282.121 110.952 282.121 110 280 C104.645 275.926 100.736 274.519 94 275 C92.015 276.231 92.015 276.231 91 278 C91 278.66 91 279.32 91 280 C86.125 281 86.125 281 85 281 C93.476 274.122 93.476 274.122 98 274 C98.745 274.157 99.491 274.314 100.259 274.476 C103.262 275.05 106.12 275.211 109.176 275.316 C110.333 275.358 111.49 275.4 112.682 275.443 C113.88 275.483 115.078 275.522 116.312 275.562 C117.53 275.606 118.748 275.649 120.002 275.693 C123.001 275.799 126.001 275.901 129 276 C123.106 268.576 123.106 268.576 115 264 C113.615 262.345 112.232 260.689 110.855 259.027 C107.328 255.173 103.148 252.151 99 249 C98.193 248.319 97.386 247.639 96.555 246.938 C89.981 241.696 85.225 241.193 77 242 C75.795 242.083 74.589 242.165 73.348 242.25 C70.228 242.467 67.115 242.719 64 243 C64.018 245.436 64.018 245.436 65 248 C67.741 249.567 67.741 249.567 71.125 250.562 C83.581 254.96 83.581 254.96 87 259.875 C88.464 264.45 87.734 267.288 85.875 271.625 C80.739 278.13 72.996 279.393 65.203 280.34 C62.803 280.587 60.405 280.809 58 281 C58 280.34 58 279.68 58 279 C59.017 279.052 59.017 279.052 60.055 279.105 C68.08 279.339 75.067 278.511 81.938 274.125 C85.116 270.851 87 268.687 87 264 C85.117 258.35 81.188 255.939 76.125 253.25 C72.006 251.283 68.54 250.296 64 250 C63.67 251.32 63.34 252.64 63 254 C63.626 254.387 64.253 254.773 64.898 255.172 C65.716 255.693 66.533 256.213 67.375 256.75 C68.593 257.516 68.593 257.516 69.836 258.297 C72.086 260.067 72.959 261.369 74 264 C72.928 263.361 71.855 262.721 70.75 262.062 C68.158 260.567 65.92 259.674 63 259 C62.67 258.34 62.34 257.68 62 257 C58.854 256.738 57.382 256.752 54.688 258.5 C54.131 258.995 53.574 259.49 53 260 C53.33 258.68 53.66 257.36 54 256 C52.35 255.67 50.7 255.34 49 255 C47.607 257.672 47.607 257.672 47 261 C49.48 266.524 53.603 269.574 59 272 C62.128 273.037 64.726 273.511 68 273 C71.013 271.346 73.501 269.349 76 267 C72.099 272.73 72.099 272.73 67.188 273.938 C65.792 273.987 64.396 274.008 63 274 C61.701 274.082 60.401 274.165 59.062 274.25 C53.691 273.449 50.831 269.029 47.723 264.945 C45.34 260.871 45.221 258.589 46 254 C44.303 252.691 44.303 252.691 42 252 C39.155 253.355 37.226 254.774 35 257 C35.33 255.02 35.66 253.04 36 251 C34.338 249.661 32.67 248.329 31 247 C30.392 246.474 29.783 245.948 29.156 245.406 C26.576 243.724 24.803 243.513 21.75 243.312 C20.858 243.247 19.966 243.181 19.047 243.113 C18.371 243.076 17.696 243.039 17 243 C16.67 243.66 16.34 244.32 16 245 C15.01 245 14.02 245 13 245 C13 246.65 13 248.3 13 250 C12.01 249.01 12.01 249.01 11 248 C11.33 247.34 11.66 246.68 12 246 C11.237 245.752 10.474 245.505 9.688 245.25 C6.729 243.874 5.821 242.627 4 240 C4.601 240.036 5.201 240.071 5.82 240.108 C8.526 240.265 11.232 240.414 13.938 240.562 C14.883 240.619 15.829 240.675 16.803 240.732 C18.151 240.805 18.151 240.805 19.527 240.879 C20.36 240.926 21.193 240.973 22.051 241.022 C24.006 241.227 24.006 241.227 25 240 C25.072 238.147 25.084 236.292 25.062 234.438 C25.053 233.426 25.044 232.414 25.035 231.371 C25.024 230.589 25.012 229.806 25 229 C22.676 228.815 22.676 228.815 20 231 Z M170 233 C169.01 233.99 168.02 234.98 167 236 C168.107 238.063 168.107 238.063 170 240 C173.053 240.898 173.053 240.898 176 241 C177.296 239.934 177.296 239.934 177.062 237.438 C177.042 236.633 177.021 235.829 177 235 C174.69 234.34 172.38 233.68 170 233 Z M162 234 C162.66 235.32 163.32 236.64 164 238 C164.66 238 165.32 238 166 238 C165.34 236.68 164.68 235.36 164 234 C163.34 234 162.68 234 162 234 Z M-125 235 C-126.666 236.165 -126.666 236.165 -128 238 C-127.758 241.318 -127.758 241.318 -126 244 C-123.47 244.073 -120.967 244.092 -118.438 244.062 C-117.727 244.058 -117.016 244.053 -116.283 244.049 C-114.522 244.037 -112.761 244.019 -111 244 C-111 243.34 -111 242.68 -111 242 C-111.675 241.662 -112.351 241.325 -113.047 240.977 C-117.031 238.984 -121.016 236.992 -125 235 Z M156 235 C155.34 235.66 154.68 236.32 154 237 C154.11 240.176 155.27 241.312 157.375 243.75 C159.803 246.325 159.803 246.325 163 246 C163.959 243.805 163.959 243.805 164 241 C162.602 238.523 161.079 237.032 159 235 C158.01 235 157.02 235 156 235 Z M-74 240 C-75.811 241.929 -75.811 241.929 -77.5 244.375 C-79.613 247.294 -80.963 248.975 -84 251 C-84 251.66 -84 252.32 -84 253 C-81.367 252.494 -79.563 251.757 -77.188 250.438 C-73.546 248.795 -70.95 248.763 -67 249 C-67 248.01 -67 247.02 -67 246 C-67.99 245.34 -68.98 244.68 -70 244 C-70.688 241.875 -70.688 241.875 -71 240 C-71.99 240 -72.98 240 -74 240 Z M-132 241 C-132.317 241.482 -132.634 241.964 -132.961 242.461 C-135.954 246.512 -138.004 248.379 -143.062 249.188 C-143.924 249.306 -144.785 249.425 -145.672 249.547 C-148.904 250.176 -150.637 251.772 -153 254 C-154.663 255.006 -156.329 256.007 -158 257 C-158.66 257.66 -159.32 258.32 -160 259 C-159.836 261.325 -159.836 261.325 -159.188 263.875 C-158.995 264.739 -158.803 265.602 -158.605 266.492 C-158.406 267.32 -158.206 268.147 -158 269 C-157.785 270.106 -157.785 270.106 -157.566 271.234 C-156.685 273.983 -154.436 274.56 -152 276 C-148.858 279.442 -146.272 282.934 -144 287 C-139.136 286.583 -137.101 284.673 -134 281 C-132.984 279.008 -131.983 277.008 -131 275 C-130.257 274.299 -129.515 273.597 -128.75 272.875 C-128.173 272.256 -127.595 271.637 -127 271 C-127.19 268.782 -127.415 267.585 -129 266 C-129.051 264.399 -129.036 262.796 -128.992 261.195 C-128.975 260.219 -128.959 259.244 -128.941 258.238 C-128.897 256.17 -128.845 254.103 -128.785 252.035 C-128.771 251.057 -128.757 250.078 -128.742 249.07 C-128.72 248.171 -128.698 247.271 -128.675 246.344 C-129.061 243.563 -129.842 242.72 -132 241 Z M151 243 C148.674 246.634 148.837 249.771 149 254 C149.66 254 150.32 254 151 254 C151.66 250.7 152.32 247.4 153 244 C152.34 243.67 151.68 243.34 151 243 Z M165.125 246.188 C163.978 249.055 163.738 250.948 164 254 C167.763 252.746 169.391 250.953 172 248 C172.861 245.827 172.861 245.827 173 244 C168.458 243.399 168.458 243.399 165.125 246.188 Z M-112 248 C-112.33 248 -112.66 248 -113 248 C-113 247.34 -113 246.68 -113 246 C-114.979 245.973 -116.958 245.954 -118.938 245.938 C-120.591 245.92 -120.591 245.92 -122.277 245.902 C-124.914 245.687 -124.914 245.687 -126 247 C-126.234 248.849 -126.413 250.705 -126.562 252.562 C-126.646 253.574 -126.73 254.586 -126.816 255.629 C-126.877 256.411 -126.938 257.194 -127 258 C-124.046 256.827 -121.106 255.634 -118.188 254.375 C-116.61 253.694 -116.61 253.694 -115 253 C-115.326 254.986 -115.651 256.971 -115.977 258.957 C-116.196 261.318 -116.196 261.318 -114 264 C-113.01 263.67 -112.02 263.34 -111 263 C-111.33 262.01 -111.66 261.02 -112 260 C-111.34 260 -110.68 260 -110 260 C-109.959 260.577 -109.917 261.155 -109.875 261.75 C-108.51 265.259 -106.265 266.305 -103 268 C-100.204 267.878 -100.204 267.878 -98 267 C-98 266.34 -98 265.68 -98 265 C-97.01 265 -96.02 265 -95 265 C-95 265.33 -95 265.66 -95 266 C-92.584 266.25 -92.584 266.25 -90 266 C-89.34 265.01 -88.68 264.02 -88 263 C-85.375 262.312 -85.375 262.312 -83 262 C-82.126 260.264 -82.126 260.264 -82 258 C-84.516 253.935 -86.675 252.688 -91 251 C-91.743 250.154 -92.485 249.309 -93.25 248.438 C-96.518 245.541 -98.455 245.125 -102.711 244.848 C-106.303 245.087 -108.822 246.345 -112 248 Z M-93 245 C-91.505 249.092 -91.505 249.092 -88.688 249.938 C-85.261 250.017 -83.685 249.071 -81 247 C-81 246.34 -81 245.68 -81 245 C-84.96 245 -88.92 245 -93 245 Z M51 250 C52 252 52 252 52 252 Z M54 250 C54.33 250.66 54.66 251.32 55 252 C55.66 251.67 56.32 251.34 57 251 C56.01 250.67 55.02 250.34 54 250 Z M211.449 254.535 C210.24 255.976 209.112 257.483 208 259 C209.389 262.336 210.836 263.937 213.875 265.875 C214.553 266.326 215.231 266.777 215.93 267.242 C218.012 268.254 218.012 268.254 220.156 267.234 C222.057 266.048 222.057 266.048 223.625 264.375 C224.306 263.694 224.306 263.694 225 263 C225.66 263 226.32 263 227 263 C228.331 259.007 228.136 255.163 228 251 C226.865 249.649 226.865 249.649 223.875 249.75 C218.992 250.065 215.024 250.996 211.449 254.535 Z M168 254 C165.306 258.459 164.568 261.878 164.562 267.062 C164.543 268.25 164.524 269.437 164.504 270.66 C165.089 274.597 166.147 276.265 169 279 C172.168 279.418 172.168 279.418 175 279 C175.33 278.01 175.66 277.02 176 276 C175.031 275.402 174.061 274.804 173.062 274.188 C170 272 170 272 169 269 C168.872 266.326 168.956 263.679 169 261 C172.825 258.609 176.597 258.44 181 258 C181 257.34 181 256.68 181 256 C180.01 255.67 179.02 255.34 178 255 C177.505 254.484 177.01 253.969 176.5 253.438 C173.693 250.748 170.856 252.037 168 254 Z M156 256 C156.66 257.32 157.32 258.64 158 260 C158.99 260 159.98 260 161 260 C160.67 258.68 160.34 257.36 160 256 C158.68 256 157.36 256 156 256 Z M-81 254 C-80.845 255.578 -80.845 255.578 -80.688 257.188 C-81 261 -81 261 -83.062 263.75 C-88.872 268.2 -93.729 269.692 -101.008 269.48 C-106.496 268.599 -111.616 266.42 -116 263 C-117.34 259.789 -117.34 259.789 -118 257 C-122.774 257.792 -122.774 257.792 -127 260 C-128.08 262.401 -128.08 262.401 -128 265 C-126.667 266.5 -126.667 266.5 -125 268 C-124.711 268.969 -124.423 269.939 -124.125 270.938 C-122.671 274.895 -121.665 275.871 -118 278 C-114.096 278.573 -110.251 278.512 -106.312 278.438 C-104.755 278.448 -104.755 278.448 -103.166 278.459 C-91.483 278.364 -82.589 275.271 -73.5 268 C-71.852 266.068 -71.852 266.068 -71.375 263.562 C-72.33 259.649 -74.848 258.43 -78 256 C-78 255.34 -78 254.68 -78 254 C-78.99 254 -79.98 254 -81 254 Z M172 261 C172.33 261.99 172.66 262.98 173 264 C175.64 264.33 178.28 264.66 181 265 C179.68 265.33 178.36 265.66 177 266 C177.289 266.557 177.577 267.114 177.875 267.688 C179.041 270.085 180.034 272.516 181 275 C183.31 274.01 185.62 273.02 188 272 C188.102 272.572 188.204 273.145 188.309 273.734 C189.123 276.403 190.347 278.06 192.062 280.25 C192.884 281.31 192.884 281.31 193.723 282.391 C194.355 283.187 194.355 283.187 195 284 C199.007 283.444 201.077 281.442 204 278.75 C204.846 277.982 205.691 277.213 206.562 276.422 C208.951 274.049 211.106 271.787 213 269 C212.505 267.515 212.505 267.515 212 266 C208.364 266.251 207.176 266.816 204.613 269.504 C203.474 271.018 203.474 271.018 202.312 272.562 C200.915 274.406 199.486 276.227 198 278 C197.34 278 196.68 278 196 278 C191.182 272.916 187.304 267.623 185 261 C180.71 261 176.42 261 172 261 Z M203 262 C202.67 263.98 202.34 265.96 202 268 C203.32 267.34 204.64 266.68 206 266 C206 264.68 206 263.36 206 262 C205.01 262 204.02 262 203 262 Z M159 265 C158.75 268.416 158.75 268.416 159 272 C160.485 272.99 160.485 272.99 162 274 C162.81 271.085 163.218 269.539 162.062 266.688 C161.712 266.131 161.361 265.574 161 265 C160.34 265 159.68 265 159 265 Z M224 265 C222.611 266.961 221.274 268.962 220 271 C219.136 270.706 218.273 270.412 217.383 270.109 C214.146 269.667 214.146 269.667 212.444 271.088 C210.828 272.745 209.343 274.459 207.875 276.25 C206.855 277.445 205.831 278.638 204.805 279.828 C204.327 280.388 203.85 280.948 203.358 281.525 C201.745 283.277 199.912 284.591 198 286 C198 286.66 198 287.32 198 288 C205.184 288.405 212.508 288.273 218.555 283.867 C220.758 281.02 221.911 277.769 223.188 274.438 C223.46 273.752 223.733 273.067 224.014 272.361 C225.494 268.788 225.494 268.788 226 265 C225.34 265 224.68 265 224 265 Z M172 266 C172 266.66 172 267.32 172 268 C172.66 268 173.32 268 174 268 C174 267.34 174 266.68 174 266 C173.34 266 172.68 266 172 266 Z M126 268 C127.22 270.691 127.22 270.691 129 273 C132.873 273.44 134.565 273.283 137.875 271.125 C138.576 270.424 139.277 269.723 140 269 C140 268.34 140 267.68 140 267 C135.215 266.902 130.723 267.229 126 268 Z M138.875 272.5 C138.151 273.15 137.426 273.799 136.68 274.469 C136.125 274.974 135.571 275.479 135 276 C138.124 279.225 141.363 282.294 144.688 285.312 C145.454 286.01 146.221 286.707 147.012 287.426 C148.839 289.207 148.839 289.207 151 289 C152.354 287.014 153.685 285.012 155 283 C155.743 282.278 156.485 281.556 157.25 280.812 C159.347 279.06 159.347 279.06 159 276 C158.408 275.914 157.817 275.827 157.207 275.738 C151.577 274.737 148.857 273.442 145 269 C142.056 269 141.024 270.559 138.875 272.5 Z M178 280 C178 280.99 178 281.98 178 283 C179.725 283.677 181.455 284.341 183.188 285 C184.15 285.371 185.113 285.743 186.105 286.125 C188.922 286.976 191.082 287.171 194 287 C192.909 285.159 191.802 283.327 190.688 281.5 C190.073 280.479 189.458 279.458 188.824 278.406 C188.222 277.612 187.62 276.818 187 276 C182.945 276 181.152 277.549 178 280 Z M110 277 C110.752 280.278 110.752 280.278 114 282 C117.464 281.654 119.049 280.967 122 279 C122 278.34 122 277.68 122 277 C118.04 277 114.08 277 110 277 Z M157 283 C154.437 286.447 153.424 288.717 154 293 C155.898 295.544 155.898 295.544 158.5 297.875 C159.415 298.748 160.33 299.62 161.273 300.52 C164.155 303.141 167.09 305.686 170.062 308.203 C172.284 310.263 174.176 312.495 176.125 314.812 C180.082 319.357 182.959 320.676 188.938 321.312 C192.809 320.917 195.499 319.68 199 318 C198.67 317.01 198.34 316.02 198 315 C195.44 313.97 195.44 313.97 192.438 313.312 C190.92 312.935 190.92 312.935 189.371 312.551 C188.589 312.369 187.806 312.187 187 312 C189.647 310.539 190.894 310 194 310 C194.99 310.33 195.98 310.66 197 311 C199.985 310.726 202.887 310.016 205.812 309.375 C206.607 309.222 207.402 309.068 208.221 308.91 C213.761 307.71 216.995 306.043 221 302 C222.903 297.935 223.304 294.461 223 290 C222.505 289.01 222.505 289.01 222 288 C221.406 288.193 220.811 288.387 220.199 288.586 C210.839 291.527 202.47 293.479 192.648 292.297 C187.654 291.737 182.794 291.402 178 293 C178.33 291.68 178.66 290.36 179 289 C178.154 288.464 177.309 287.928 176.438 287.375 C173.234 285.269 170.489 282.806 167.711 280.172 C163.262 277.125 160.287 279.881 157 283 Z M121 281 C121 281.99 121 282.98 121 284 C122.65 283.67 124.3 283.34 126 283 C126 282.01 126 281.02 126 280 C123.075 279.776 123.075 279.776 121 281 Z M116.195 287.352 C114.736 288.962 114.736 288.962 115.312 291.188 C115.539 291.786 115.766 292.384 116 293 C113.69 292.34 111.38 291.68 109 291 C108.01 291.99 107.02 292.98 106 294 C107.968 295.968 111.5 295.541 114.188 295.75 C115.501 295.869 116.815 295.987 118.168 296.109 C122.318 295.991 124.528 295.218 128 293 C129.141 291.029 129.141 291.029 129 289 C126.67 286.67 125.753 286.58 122.562 286.188 C121.389 286.023 121.389 286.023 120.191 285.855 C117.918 285.805 117.918 285.805 116.195 287.352 Z M221 306 C220.34 307.32 219.68 308.64 219 310 C220.98 310 222.96 310 225 310 C224.34 308.68 223.68 307.36 223 306 C222.34 306 221.68 306 221 306 Z M228 310 C230.193 314.386 231.914 315.513 236 318 C236.99 317.01 237.98 316.02 239 315 C238.67 314.01 238.34 313.02 238 312 C234.7 311.34 231.4 310.68 228 310 Z M201 312 C201.33 312.99 201.66 313.98 202 315 C205.61 314.344 205.61 314.344 209 313 C209 312.34 209 311.68 209 311 C205.956 310.918 203.928 311.024 201 312 Z M-140 312 C-140.33 313.32 -140.66 314.64 -141 316 C-134.565 318.875 -129.433 319.355 -122.438 319.125 C-116.467 318.981 -110.898 319.055 -105 320 C-102.678 319.653 -102.678 319.653 -101 319 C-101 318.34 -101 317.68 -101 317 C-99.35 316.34 -97.7 315.68 -96 315 C-96 314.34 -96 313.68 -96 313 C-101.327 312.698 -101.327 312.698 -106.375 314 C-115.914 317.634 -130.297 314.083 -140 312 Z M240 315 C241 317 241 317 241 317 Z M244 316 C243.01 316.99 242.02 317.98 241 319 C241.33 319.99 241.66 320.98 242 322 C243.98 322 245.96 322 248 322 C248 320.68 248 319.36 248 318 C246.68 317.34 245.36 316.68 244 316 Z M-145 319 C-145.33 319.99 -145.66 320.98 -146 322 C-144.075 325.002 -141.483 327.452 -139 330 C-138.397 330.663 -137.793 331.325 -137.172 332.008 C-131.714 337.488 -126.618 338.707 -119 339 C-111.987 338.993 -104.994 338.471 -98 338 C-92.834 337.656 -87.667 337.321 -82.5 337 C-81.786 336.955 -81.072 336.911 -80.337 336.865 C-67.976 336.106 -55.631 335.775 -43.25 335.562 C-24.979 335.242 -6.735 334.538 11.517 333.66 C13.533 333.564 15.549 333.47 17.565 333.376 C35.301 332.554 35.301 332.554 52.977 330.934 C65.539 329.521 78.161 329.627 90.788 329.519 C96.975 329.461 103.161 329.372 109.348 329.281 C110.025 329.271 110.701 329.262 111.399 329.252 C123.53 329.071 135.636 328.661 147.75 328 C148.532 327.958 149.314 327.916 150.12 327.873 C158.099 327.437 166.058 326.902 174 326 C174.66 324.35 175.32 322.7 176 321 C172.151 318.434 169.264 318.918 164.844 319.207 C164.027 319.252 163.211 319.297 162.37 319.343 C159.746 319.489 157.123 319.651 154.5 319.812 C152.796 319.91 151.091 320.008 149.387 320.104 C139.56 320.661 139.56 320.661 129.737 321.283 C115.4 322.194 101.042 322.227 86.681 322.364 C41.679 322.795 -3.212 324.041 -48.129 326.96 C-62.034 327.859 -75.912 328.452 -89.84 328.816 C-94.783 328.948 -99.693 329.205 -104.625 329.562 C-106.379 329.665 -106.379 329.665 -108.168 329.77 C-110.293 329.897 -112.417 330.036 -114.538 330.22 C-130.496 331.543 -130.496 331.543 -134.759 328.916 C-137.157 326.684 -138.802 324.205 -140.477 321.406 C-141.231 320.215 -141.231 320.215 -142 319 C-142.99 319 -143.98 319 -145 319 Z M-207 325 C-209.467 329.392 -209.638 333.054 -209 338 C-208.061 341.27 -206.9 344.168 -205 347 C-202.524 348.375 -202.524 348.375 -200 349 C-198.141 351.073 -197.018 352.959 -195.875 355.5 C-193.775 358.3 -192.814 358.588 -189.625 359.75 C-184.646 361.699 -183.035 364.459 -180.777 369.172 C-180.521 369.775 -180.264 370.378 -180 371 C-172.209 370.827 -165.92 366.561 -160.254 361.414 C-155.635 356.233 -154.661 350.894 -154.797 344.191 C-155.068 341.266 -155.889 338.709 -157 336 C-157.522 336.266 -158.044 336.531 -158.582 336.805 C-164.612 339.698 -170.395 341.062 -177 342 C-177 341.34 -177 340.68 -177 340 C-176.01 340 -175.02 340 -174 340 C-174 339.34 -174 338.68 -174 338 C-175.65 338 -177.3 338 -179 338 C-179 338.99 -179 339.98 -179 341 C-186.578 340.154 -193.137 339.171 -199 334 C-201.36 330.975 -202.792 328.624 -204 325 C-204.99 325 -205.98 325 -207 325 Z M149 330 C145.502 340.96 143.865 354.097 148 365 C150.475 364.505 150.475 364.505 153 364 C154.898 357.646 156.434 351.258 157.688 344.75 C157.819 344.089 157.95 343.429 158.085 342.748 C158.887 338.449 159.119 334.367 159 330 C155.306 328.769 152.794 329.356 149 330 Z M-224 335 C-224.33 336.32 -224.66 337.64 -225 339 C-224.01 338.67 -223.02 338.34 -222 338 C-222.33 337.01 -222.66 336.02 -223 335 C-223.33 335 -223.66 335 -224 335 Z M-234.625 344.5 C-236.129 345.753 -236.129 345.753 -237.664 347.031 C-238.82 348.006 -238.82 348.006 -240 349 C-236.198 349 -234.888 347.8 -231.812 345.625 C-230.911 344.999 -230.01 344.372 -229.082 343.727 C-228.395 343.157 -227.708 342.587 -227 342 C-227 341.34 -227 340.68 -227 340 C-230.327 340 -232.143 342.422 -234.625 344.5 Z M-124 341 C-125.73 347.426 -123.736 353.28 -122.312 359.625 C-122.055 360.865 -121.798 362.105 -121.533 363.383 C-121.271 364.569 -121.009 365.755 -120.738 366.977 C-120.501 368.06 -120.265 369.144 -120.021 370.26 C-118.87 373.348 -117.793 374.341 -115 376 C-110.702 369.552 -111.847 360.565 -111.875 353.062 C-111.871 352.01 -111.867 350.957 -111.863 349.873 C-111.865 348.375 -111.865 348.375 -111.867 346.848 C-111.868 345.94 -111.869 345.033 -111.871 344.098 C-111.767 342.012 -111.767 342.012 -113 341 C-114.853 340.928 -116.708 340.916 -118.562 340.938 C-119.574 340.947 -120.586 340.956 -121.629 340.965 C-122.411 340.976 -123.194 340.988 -124 341 Z M-204 356 C-203 358 -203 358 -203 358 Z M-199 357 C-197.167 362.348 -194.858 365.9 -189.938 368.812 C-187.065 370.187 -187.065 370.187 -184 370 C-184.51 366.427 -185.35 364.49 -188.254 362.301 C-191.773 360.185 -195.098 358.301 -199 357 Z " fill="#333" transform="translate(284,5)"/>
    <path d="M0 0 C2.312 0.375 2.312 0.375 5 2 C6.376 5.246 7.221 8.567 8 12 C6.07 11.223 6.07 11.223 4 10 C3.269 7.686 2.599 5.352 2 3 C1.34 2.67 0.68 2.34 0 2 C0 1.34 0 0.68 0 0 Z " fill="#333" transform="translate(188,37)"/>
    <path d="M0 0 C9.908 6.601 15.155 18.119 17.541 29.474 C20.535 48.2 16.825 65.467 5.938 80.957 C1.567 86.571 -3.304 91.757 -9.062 95.957 C-9.722 95.957 -10.382 95.957 -11.062 95.957 C-11.062 96.617 -11.062 97.277 -11.062 97.957 C-1.33 96.502 4.202 93.065 10.938 85.957 C10.938 89.424 10.606 89.79 8.312 92.207 C0.989 99.203 -8.942 103.783 -19.062 103.957 C-19.392 102.967 -19.722 101.977 -20.062 100.957 C-22.91 100.096 -25.764 99.619 -28.691 99.094 C-42.578 94.411 -54.044 78.509 -60.578 66.027 C-61.068 65.014 -61.558 64.001 -62.062 62.957 C-62.429 62.233 -62.795 61.508 -63.172 60.762 C-67.534 50.927 -66.632 39.837 -63.062 29.957 C-57.518 16.715 -49.819 7.496 -36.375 1.77 C-23.723 -2.855 -12.485 -6.664 0 0 Z M-15.688 0.457 C-19.629 1.683 -22.675 1.908 -26.809 1.766 C-38.235 2.736 -46.595 9.78 -53.871 18 C-59.705 25.289 -63.236 33.344 -63.125 42.707 C-63.116 43.692 -63.107 44.677 -63.098 45.691 C-63.086 46.439 -63.074 47.187 -63.062 47.957 C-62.403 47.957 -61.743 47.957 -61.062 47.957 C-61.062 49.607 -61.062 51.257 -61.062 52.957 C-57.402 52.372 -55.517 50.874 -52.812 48.395 C-51.753 47.434 -51.753 47.434 -50.672 46.453 C-50.141 45.959 -49.61 45.466 -49.062 44.957 C-49.484 45.439 -49.906 45.921 -50.34 46.418 C-50.888 47.05 -51.436 47.681 -52 48.332 C-52.545 48.959 -53.091 49.585 -53.652 50.23 C-55.132 51.913 -55.132 51.913 -56.062 53.957 C-47.35 53.287 -39.597 47.805 -33.816 41.512 C-25.974 31.922 -20.546 22.504 -16.062 10.957 C-14.3 13.6 -12.889 16.201 -11.438 19.02 C-6.09 28.858 1.534 38.688 10.938 44.957 C11.928 44.957 12.918 44.957 13.938 44.957 C12.947 40.502 12.947 40.502 11.938 35.957 C13.257 35.627 14.577 35.297 15.938 34.957 C15.938 34.297 15.938 33.637 15.938 32.957 C14.618 32.957 13.298 32.957 11.938 32.957 C11.442 28.997 11.442 28.997 10.938 24.957 C11.928 27.927 11.928 27.927 12.938 30.957 C13.597 30.957 14.257 30.957 14.938 30.957 C13.168 20.338 8.929 9.465 -0.062 2.957 C-5.916 -0.268 -9.302 -1.678 -15.688 0.457 Z M-17.062 15.957 C-17.824 17.55 -17.824 17.55 -18.602 19.176 C-22.202 26.605 -25.679 33.634 -31.062 39.957 C-31.497 40.545 -31.931 41.133 -32.379 41.738 C-38.782 50.056 -48.35 54.565 -58.062 57.957 C-57.661 63.784 -56.734 67.363 -53.062 71.957 C-52.431 72.84 -51.799 73.723 -51.148 74.633 C-45.26 82.488 -40.359 85.415 -31 87.707 C-16.503 88.941 -6.87 85.042 4.25 75.707 C10.893 69.46 15.072 61.868 15.594 52.625 C14.194 46.935 8.498 44.136 3.938 40.957 C-3.44 34.775 -8.992 26.381 -13.703 18.059 C-14.152 17.365 -14.6 16.672 -15.062 15.957 C-15.722 15.957 -16.382 15.957 -17.062 15.957 Z M-9.5 86.895 C-17.119 90.01 -24.928 90.138 -33.062 89.957 C-32.274 92.116 -32.274 92.116 -30.281 92.578 C-27.989 92.97 -25.886 93.055 -23.562 93.02 C-22.81 93.011 -22.057 93.001 -21.281 92.992 C-20.183 92.975 -20.183 92.975 -19.062 92.957 C-17.743 92.957 -16.423 92.957 -15.062 92.957 C-12.501 91.992 -12.501 91.992 -9.938 90.645 C-9.069 90.215 -8.2 89.786 -7.305 89.344 C-4.795 88.007 -4.795 88.007 -3.062 84.957 C-5.618 84.957 -7.167 85.846 -9.5 86.895 Z M-28.062 94.957 C-28.062 95.617 -28.062 96.277 -28.062 96.957 C-25.092 97.287 -22.123 97.617 -19.062 97.957 C-19.392 96.967 -19.722 95.977 -20.062 94.957 C-22.702 94.957 -25.342 94.957 -28.062 94.957 Z " fill="#333" transform="translate(310.0625,69.04296875)"/>
    <path d="M0 0 C0.66 0 1.32 0 2 0 C2 2.97 2 5.94 2 9 C1.34 9 0.68 9 0 9 C0 6.03 0 3.06 0 0 Z " fill="#333" transform="translate(446,88)"/>
    <path d="M0 0 C0.99 0.33 1.98 0.66 3 1 C2.67 2.32 2.34 3.64 2 5 C0.68 4.67 -0.64 4.34 -2 4 C-1.34 2.68 -0.68 1.36 0 0 Z " fill="#333" transform="translate(173,114)"/>
    <path d="M0 0 C0.99 0.33 1.98 0.66 3 1 C2.67 1.99 2.34 2.98 2 4 C0.35 4.33 -1.3 4.66 -3 5 C-3 3 -3 3 -1.5 1.375 C-1.005 0.921 -0.51 0.468 0 0 Z " fill="#333" transform="translate(189,122)"/>
    <path d="M0 0 C1.98 0.495 1.98 0.495 4 1 C3.67 1.99 3.34 2.98 3 4 C1.68 3.67 0.36 3.34 -1 3 C-0.67 2.01 -0.34 1.02 0 0 Z " fill="#333" transform="translate(295,125)"/>
    <path d="M0 0 C1.32 0.33 2.64 0.66 4 1 C3.67 2.32 3.34 3.64 3 5 C2.01 5 1.02 5 0 5 C0 3.35 0 1.7 0 0 Z " fill="#333" transform="translate(289,135)"/>
    <path d="M0 0 C0.66 0.33 1.32 0.66 2 1 C0.264 5.112 -1.616 6.412 -5.586 8.238 C-11.409 10.076 -17.563 9.88 -23.188 7.5 C-24.116 7.005 -25.044 6.51 -26 6 C-25.67 5.01 -25.34 4.02 -25 3 C-24.371 3.228 -23.742 3.456 -23.094 3.691 C-17.188 5.675 -13.086 6.521 -7 5 C-4.406 3.491 -2.124 2.124 0 0 Z " fill="#333" transform="translate(302,140)"/>
    <path d="M0 0 C0.99 0.33 1.98 0.66 3 1 C2.67 2.32 2.34 3.64 2 5 C1.01 4.67 0.02 4.34 -1 4 C-0.67 2.68 -0.34 1.36 0 0 Z " fill="#333" transform="translate(371,147)"/>
    <path d="M0 0 C0.66 0.33 1.32 0.66 2 1 C2.625 4.062 2.625 4.062 3 7 C1.35 6.67 -0.3 6.34 -2 6 C-1.494 3.831 -1 2 0 0 Z " fill="#333" transform="translate(362,153)"/>
    <path d="M0 0 C0.66 0.33 1.32 0.66 2 1 C1.505 1.66 1.01 2.32 0.5 3 C-1.559 7.118 -1.51 9.413 -1 14 C0.875 16.377 0.875 16.377 3 18 C3 18.66 3 19.32 3 20 C0.963 18.982 -1.041 17.976 -3 16.812 C-5.466 15.81 -6.488 16.352 -9 17 C-12.329 14.781 -12.75 13.653 -14 10 C-10.522 8.841 -8.541 9.292 -5 10 C-4.732 8.907 -4.464 7.814 -4.188 6.688 C-3.123 3.383 -2.653 2.05 0 0 Z M-9 12 C-9 12.99 -9 13.98 -9 15 C-8.01 15 -7.02 15 -6 15 C-6 14.34 -6 13.68 -6 13 C-6.99 12.67 -7.98 12.34 -9 12 Z " fill="#333" transform="translate(374,155)"/>
    <path d="M0 0 C0.99 0.33 1.98 0.66 3 1 C2.67 2.32 2.34 3.64 2 5 C1.01 4.67 0.02 4.34 -1 4 C-0.67 2.68 -0.34 1.36 0 0 Z " fill="#333" transform="translate(122,171)"/>
    <path d="M0 0 C1.96 0.969 3.906 1.949 5.824 3 C10.759 5.648 15.495 7.032 21 8 C21 8.66 21 9.32 21 10 C13.872 9.655 7.925 8.156 2 4 C0.715 1.832 0.715 1.832 0 0 Z " fill="#333" transform="translate(262,172)"/>
    <path d="M0 0 C0.99 0.33 1.98 0.66 3 1 C-2.678 5.298 -6.816 7.739 -14 8 C-14 7.34 -14 6.68 -14 6 C-12.804 5.752 -11.608 5.505 -10.375 5.25 C-6.293 4.26 -3.479 2.346 0 0 Z " fill="#333" transform="translate(302,174)"/>
    <path d="M0 0 C3.3 0.33 6.6 0.66 10 1 C10 1.66 10 2.32 10 3 C8.52 2.886 7.041 2.759 5.562 2.625 C4.739 2.555 3.915 2.486 3.066 2.414 C2.384 2.277 1.703 2.141 1 2 C0.67 1.34 0.34 0.68 0 0 Z " fill="#333" transform="translate(254,195)"/>
    <path d="M0 0 C0.99 0 1.98 0 3 0 C3 1.65 3 3.3 3 5 C1.35 4.67 -0.3 4.34 -2 4 C-1.34 2.68 -0.68 1.36 0 0 Z " fill="#333" transform="translate(444,225)"/>
    <path d="M0 0 C0.66 0.33 1.32 0.66 2 1 C1.814 2.031 1.629 3.062 1.438 4.125 C0.762 7.903 0.762 7.903 1.875 11.062 C2 14 2 14 0.547 15.637 C-0.716 16.697 -2.011 17.721 -3.336 18.703 C-5.137 19.915 -5.137 19.915 -6 22 C-6.575 27.63 -6.223 31.235 -3 36 C-3.33 36.99 -3.66 37.98 -4 39 C-4.825 39.351 -5.65 39.701 -6.5 40.062 C-9.21 41.722 -9.21 41.722 -9.445 44.309 C-9.563 46.078 -9.638 47.852 -9.664 49.625 C-10.069 52.486 -10.941 53.085 -13 55 C-13.667 58.457 -13.667 58.457 -13 62 C-10.404 64.666 -8.523 65.826 -5 67 C-5 67.66 -5 68.32 -5 69 C-8.111 68.926 -10.286 68.582 -12.734 66.586 C-15.38 63.726 -16.852 61.74 -17.625 57.875 C-17 55 -17 55 -15 52.562 C-12.638 50.09 -12.638 50.09 -13.062 46.562 C-12.995 42.734 -12.866 42.456 -10.438 39.875 C-7.681 37.286 -7.681 37.286 -8.125 34.312 C-8.414 33.549 -8.703 32.786 -9 32 C-10.206 28.381 -10.323 25.808 -10 22 C-8.279 18.804 -6.946 16.603 -3.867 14.641 C-1.755 13.147 -1.755 13.147 -1.68 10.625 C-1.744 9.759 -1.809 8.893 -1.875 8 C-2.197 3.296 -2.197 3.296 0 0 Z " fill="#333" transform="translate(75,234)"/>
    <path d="M0 0 C-6.625 3.125 -6.625 3.125 -10 2 C-3.375 -1.125 -3.375 -1.125 0 0 Z " fill="#333" transform="translate(503,248)"/>
    <path d="M0 0 C3.678 0.551 4.948 1.785 7.188 4.688 C9.779 7.827 12.212 9.948 15.688 12.062 C20.12 14.858 22.074 17.096 24 22 C23.75 25.438 23.75 25.438 23 28 C26.469 27.542 29.674 27.109 33 26 C33.33 25.34 33.66 24.68 34 24 C34.66 24 35.32 24 36 24 C36 24.99 36 25.98 36 27 C37.114 26.402 38.228 25.804 39.375 25.188 C40.001 24.851 40.628 24.515 41.273 24.168 C43.305 22.952 43.305 22.952 45 20 C44.863 15.061 41.92 11.739 39 8 C43.235 9.568 45.515 12.308 48 16 C47.812 19.375 47.812 19.375 47 22 C48.65 21.34 50.3 20.68 52 20 C52.495 20.99 52.495 20.99 53 22 C55.365 21.879 55.365 21.879 58 21 C59.354 19.35 60.687 17.683 62 16 C63.656 15.307 65.321 14.635 67 14 C67.33 13.01 67.66 12.02 68 11 C70.865 12.284 73.154 13.416 75 16 C75.688 18.75 75.688 18.75 75 22 C69.533 28.845 61.404 32.475 52.875 33.75 C51.926 33.832 50.978 33.915 50 34 C50 33.34 50 32.68 50 32 C50.846 31.769 51.691 31.539 52.562 31.301 C62.544 28.649 62.544 28.649 71 23 C72.129 19.835 72.129 19.835 72 17 C70.251 16.144 70.251 16.144 68 16 C65.592 17.583 65.592 17.583 63.25 19.812 C58.694 23.653 55.833 25.059 50 26 C44.866 27.11 44.866 27.11 40 29 C37.924 29.393 35.839 29.741 33.75 30.062 C32.631 30.239 31.512 30.416 30.359 30.598 C16.267 32.285 4.224 26.102 -7 18 C-8.975 16.403 -10.395 14.992 -12 13 C-12 12.01 -12 11.02 -12 10 C-15.122 11.309 -15.122 11.309 -17 14 C-17.666 18.759 -17.518 22.085 -15.125 26.312 C-7.595 33.843 4.014 34.058 14 35 C14 35.66 14 36.32 14 37 C3.701 37.618 -6.941 35.862 -15.289 29.531 C-18.983 26.225 -19.881 24.055 -20.438 19.125 C-20.254 14.507 -18.684 11.728 -16 8 C-13.859 6.805 -13.859 6.805 -12 6 C-11.636 6.814 -11.636 6.814 -11.266 7.645 C-8.231 14.122 -5.707 16.385 0.984 19.105 C4.797 20.797 8.385 22.926 12 25 C12 25.66 12 26.32 12 27 C15.96 26.505 15.96 26.505 20 26 C21.051 23.859 21.051 23.859 21 21 C18.735 17.255 15.808 14.538 12.188 12.125 C7.549 9.033 3.752 5.11 0 1 C0 0.67 0 0.34 0 0 Z " fill="#333" transform="translate(238,249)"/>
    <path d="M0 0 C3.776 0.524 6.224 1.327 9 4 C9 4.99 9 5.98 9 7 C5.397 7.412 4.216 7.154 1.188 5 C0.466 4.34 -0.256 3.68 -1 3 C-0.67 2.01 -0.34 1.02 0 0 Z " fill="#333" transform="translate(241,263)"/>
    <path d="M0 0 C1 3 1 3 0.75 6.875 C0.738 10.159 0.927 10.893 2.875 13.75 C8.953 18.126 15.572 20.354 23 21 C23 21.66 23 22.32 23 23 C14.993 23.696 8.083 21.023 1.938 15.875 C0.146 14.248 -0.914 13.173 -2 11 C-2.356 3.533 -2.356 3.533 0 0 Z " fill="#333" transform="translate(317,263)"/>
    <path d="M0 0 C3.107 0.694 5.935 1.724 8.875 2.938 C11.573 4.035 14.236 5.079 17 6 C17.99 6.33 18.98 6.66 20 7 C20.795 7.263 21.591 7.526 22.41 7.797 C28.195 9.876 31.905 11.556 35 17 C35.26 20.638 35.01 22.756 32.672 25.637 C25.521 32.269 16.822 35.179 7.188 35.062 C6.212 35.053 5.236 35.044 4.23 35.035 C3.126 35.018 3.126 35.018 2 35 C2 34.34 2 33.68 2 33 C2.944 32.914 3.887 32.827 4.859 32.738 C13.332 31.811 21.638 30.656 29 26 C30.992 23.268 32 21.835 32 18.438 C30.664 15.182 28.932 13.885 26 12 C25.01 12 24.02 12 23 12 C23.526 13.299 23.526 13.299 24.062 14.625 C25.148 18.531 25.499 20.214 24 24 C20.404 28.274 16.13 30.016 10.668 30.598 C6.562 30.891 2.463 30.956 -1.652 30.968 C-3.803 30.997 -5.919 31.119 -8.062 31.289 C-14.126 31.642 -18.032 31.699 -22.812 27.688 C-25.087 25.374 -25.958 24.125 -27 21 C-26.34 21 -25.68 21 -25 21 C-23.313 22.983 -21.646 24.983 -20 27 C-17.088 28.456 -14.493 28.17 -11.25 28.188 C-9.432 28.209 -9.432 28.209 -7.578 28.23 C-4.038 28.002 -1.293 27.278 2 26 C2 25.34 2 24.68 2 24 C1.109 24.047 1.109 24.047 0.199 24.095 C-2.533 24.221 -5.266 24.298 -8 24.375 C-9.402 24.45 -9.402 24.45 -10.832 24.527 C-17.057 24.658 -20.602 23.647 -25.441 19.69 C-28.444 16.434 -29 14.482 -29 10 C-31.31 11.65 -33.62 13.3 -36 15 C-35.002 11.407 -34.052 10.043 -31.125 7.625 C-28 6 -28 6 -25.625 6.25 C-25.089 6.498 -24.553 6.745 -24 7 C-24.99 8.32 -25.98 9.64 -27 11 C-26.421 12.999 -26.421 12.999 -25 15 C-21.958 16.292 -21.958 16.292 -19 17 C-19 17.66 -19 18.32 -19 19 C-19.66 19 -20.32 19 -21 19 C-21 19.66 -21 20.32 -21 21 C-10.11 21 0.78 21 12 21 C12 21.66 12 22.32 12 23 C9.03 23.99 6.06 24.98 3 26 C3 26.66 3 27.32 3 28 C10.918 27.857 15.982 27.334 22 22 C21.505 21.01 21.505 21.01 21 20 C20.01 20.66 19.02 21.32 18 22 C16.68 22 15.36 22 14 22 C14 21.34 14 20.68 14 20 C14.969 19.752 15.939 19.505 16.938 19.25 C17.948 18.837 18.959 18.425 20 18 C20.969 15.968 20.969 15.968 21 14 C18.846 12.692 17.547 11.949 15 12.188 C12.915 12.92 12.915 12.92 11.176 14.491 C8.727 16.19 7.125 16.559 4.191 16.949 C3.279 17.075 2.367 17.201 1.428 17.33 C0.482 17.448 -0.463 17.566 -1.438 17.688 C-2.85 17.882 -2.85 17.882 -4.291 18.08 C-8.567 18.65 -12.681 19.068 -17 19 C-17 18.34 -17 17.68 -17 17 C-10.189 15.461 -3.388 14.489 3.553 13.786 C7.092 13.392 8.976 13.016 12 11 C11.927 9.069 11.927 9.069 11 7 C8.47 5.42 8.47 5.42 5.438 4.25 C4.426 3.822 3.414 3.394 2.371 2.953 C1.589 2.639 0.806 2.324 0 2 C0 1.34 0 0.68 0 0 Z " fill="#333" transform="translate(217,283)"/>
    <path d="M0 0 C0 0.66 0 1.32 0 2 C-3.3 2.33 -6.6 2.66 -10 3 C-10 2.34 -10 1.68 -10 1 C-6.565 0.375 -3.509 0 0 0 Z " fill="#333" transform="translate(286,282)"/>
    <path d="M0 0 C0 0.66 0 1.32 0 2 C-6.373 2.745 -12.583 3.103 -19 3 C-19 2.34 -19 1.68 -19 1 C-12.627 0.255 -6.417 -0.103 0 0 Z " fill="#333" transform="translate(274,284)"/>
    <path d="M0 0 C0 0.66 0 1.32 0 2 C-1.32 2 -2.64 2 -4 2 C-4 2.66 -4 3.32 -4 4 C-3.01 4.33 -2.02 4.66 -1 5 C-1 5.33 -1 5.66 -1 6 C-3.31 6 -5.62 6 -8 6 C-5.788 8.518 -4.077 9.465 -0.875 10.375 C1.258 11.105 1.258 11.105 3 12 C4 14.688 4 14.688 4 17 C3.443 16.691 2.886 16.381 2.312 16.062 C0.037 14.887 0.037 14.887 -2.5 14.625 C-5.651 13.837 -6.735 12.265 -9 10 C-11.642 9.203 -11.642 9.203 -14 9 C-13.237 9.743 -12.474 10.485 -11.688 11.25 C-9 14 -9 14 -7.625 16.25 C-5.145 18.921 -2.509 18.735 1 19 C1 19.66 1 20.32 1 21 C-2.188 21.375 -2.188 21.375 -6 21 C-8.562 18.25 -8.562 18.25 -9.734 16.594 C-11.11 14.861 -12.437 13.907 -14.312 12.75 C-15.199 12.173 -16.086 11.595 -17 11 C-17 10.34 -17 9.68 -17 9 C-19.726 11.215 -20.884 12.455 -21.625 15.938 C-20.942 19.285 -20.041 20.825 -17.266 22.836 C-6.679 28.275 5.355 28.715 17 29 C17 29.66 17 30.32 17 31 C3.652 31.639 -10.997 31.459 -21.715 22.367 C-23.638 20.321 -23.992 19.067 -24.312 16.25 C-23.924 12.206 -22.342 10.264 -20 7 C-19.231 4.774 -19.231 4.774 -19 3 C-14.108 3.951 -14.108 3.951 -12.062 4.875 C-7.123 5.174 -5.563 0 0 0 Z " fill="#333" transform="translate(291,287)"/>
    <path d="M0 0 C3.63 0 7.26 0 11 0 C11 0.66 11 1.32 11 2 C9.68 2 8.36 2 7 2 C7 2.66 7 3.32 7 4 C7.99 4.33 8.98 4.66 10 5 C10 6.32 10 7.64 10 9 C10.33 8.67 10.66 8.34 11 8 C13.333 7.959 15.667 7.958 18 8 C17.546 7.546 17.092 7.092 16.625 6.625 C15.417 5.417 14.208 4.208 13 3 C14.98 2.67 16.96 2.34 19 2 C19.33 2.99 19.66 3.98 20 5 C21.874 5.802 21.874 5.802 24.062 6.188 C24.796 6.346 25.529 6.505 26.285 6.668 C26.851 6.778 27.417 6.887 28 7 C28 7.66 28 8.32 28 9 C27.34 9 26.68 9 26 9 C27.32 10.65 28.64 12.3 30 14 C28.63 17.161 28.011 17.993 25 20 C19.046 21.536 13.135 22.273 7 22 C7 21.34 7 20.68 7 20 C7.99 20 8.98 20 10 20 C10 19.34 10 18.68 10 18 C9.01 17.67 8.02 17.34 7 17 C7 16.67 7 16.34 7 16 C8.98 16 10.96 16 13 16 C13 17.32 13 18.64 13 20 C15.31 19.34 17.62 18.68 20 18 C19.338 14.91 19.338 14.91 17.062 13.875 C14.203 13.058 11.886 12.848 8.938 12.688 C5.023 12.384 4.316 12.309 1.375 9.438 C0.921 8.633 0.467 7.829 0 7 C2.475 7.99 2.475 7.99 5 9 C5 8.34 5 7.68 5 7 C3.041 5.286 1.041 3.616 -1 2 C-0.67 1.34 -0.34 0.68 0 0 Z M20 9 C19.01 10.485 19.01 10.485 18 12 C21.96 13.98 21.96 13.98 26 16 C26.33 15.34 26.66 14.68 27 14 C25.201 11.439 25.201 11.439 23 9 C22.01 9 21.02 9 20 9 Z " fill="#333" transform="translate(293,288)"/>
    <path d="M0 0 C2.812 -0.188 2.812 -0.188 6 0 C6.99 0.99 7.98 1.98 9 3 C6.03 2.67 3.06 2.34 0 2 C0 1.34 0 0.68 0 0 Z " fill="#333" transform="translate(315,289)"/>
    <path d="M0 0 C4.639 0.113 8.707 0.301 12.5 3.188 C15.333 6.374 16.173 7.749 16 12 C14.062 15.375 14.062 15.375 12 18 C11.01 17.67 10.02 17.34 9 17 C9.681 16.278 10.361 15.556 11.062 14.812 C13.235 12.209 13.235 12.209 13.062 9.375 C11.677 6.278 9.996 5.46 7 4 C6.752 4.969 6.505 5.939 6.25 6.938 C5.837 7.948 5.425 8.959 5 10 C2.875 10.875 2.875 10.875 1 11 C1 10.34 1 9.68 1 9 C1.66 8.67 2.32 8.34 3 8 C2.453 4.625 1.945 2.918 0 0 Z " fill="#333" transform="translate(324,292)"/>
    <path d="M0 0 C0.887 0.743 1.774 1.485 2.688 2.25 C12.535 9.183 24.385 9.702 36 10 C36 10.66 36 11.32 36 12 C23.9 12.716 12.461 12.06 2.074 5.016 C1.39 4.35 0.705 3.685 0 3 C0 2.01 0 1.02 0 0 Z " fill="#333" transform="translate(181,307)"/>
    <path d="M0 0 C-5.041 2.815 -9.226 4.519 -15 5 C-15 4.34 -15 3.68 -15 3 C-13.066 2.302 -11.128 1.617 -9.188 0.938 C-8.109 0.555 -7.03 0.172 -5.918 -0.223 C-3 -1 -3 -1 0 0 Z " fill="#333" transform="translate(333,311)"/>
  </g>
</svg>
