<svg xmlns="http://www.w3.org/2000/svg" viewBox="0 0 500 600">
  <g transform="translate(15.0,136.4) scale(0.8545)">
    <path d="M0 0 C1.529 -0.043 1.529 -0.043 3.09 -0.086 C6.916 0.507 8.381 1.594 11.062 4.375 C11.567 7.687 11.567 7.687 11.41 11.59 C11.385 12.629 11.385 12.629 11.36 13.689 C11.306 15.898 11.219 18.105 11.125 20.312 C11.037 22.517 10.956 24.72 10.901 26.925 C10.85 28.929 10.77 30.931 10.688 32.933 C11.131 37.006 12.074 38.613 15.062 41.375 C21.009 41.672 24.396 39.988 28.957 36.309 C31.311 34.147 33.446 31.837 35.625 29.5 C46.072 18.893 59.82 13.721 74.625 13 C79.633 13.546 81.837 15.014 85.168 18.715 C88.288 23.521 87.622 29.285 87.625 34.812 C87.66 43.409 87.696 49.731 92.875 56.875 C94.981 58.612 94.981 58.612 97.688 58.438 C110.108 54.527 117.011 48.396 123.718 37.497 C127.456 31.519 131.883 26.045 139.062 24.375 C143.597 24.105 147.726 23.93 152.062 25.375 C151.732 24.715 151.403 24.055 151.062 23.375 C150.077 14.682 152.13 9.18 157.375 2.375 C160.062 0.375 160.062 0.375 163.688 -0.125 C167.062 0.375 167.062 0.375 169 1.438 C170.713 4.562 170.478 6.875 170.062 10.375 C168.036 14.079 166.582 16.029 163.062 18.375 C162.241 20.265 162.241 20.265 161.688 22.375 C160.395 26.189 160.395 26.189 157.375 27.875 C156.23 28.122 156.23 28.122 155.062 28.375 C155.797 29.38 155.797 29.38 156.547 30.406 C158.443 34.12 158.396 36.724 158.312 40.875 C158.297 42.164 158.282 43.453 158.266 44.781 C158.096 47.791 157.668 50.439 157.062 53.375 C156.899 55.559 156.798 57.748 156.75 59.938 C156.713 61.053 156.675 62.168 156.637 63.316 C157.154 67.035 158.121 68.123 161.062 70.375 C168.541 72.868 173.751 71.48 180.625 68.062 C187.287 64.65 193.311 60.519 199.397 56.185 C204.666 52.494 209.758 49.878 216.062 48.375 C216.863 48.182 217.664 47.988 218.488 47.789 C222.473 47.079 225.248 47.106 228.875 49 C234.713 53.35 236.822 56.991 237.957 64.121 C238.125 69.307 236.981 74.08 235.789 79.09 C234.919 82.465 234.919 82.465 235.062 86.375 C236.712 85.055 238.363 83.735 240.062 82.375 C239.712 81.797 239.361 81.22 239 80.625 C237.913 78.017 238.132 76.981 239.062 74.375 C240.712 74.705 242.363 75.035 244.062 75.375 C244.062 76.365 244.062 77.355 244.062 78.375 C245.02 77.697 245.978 77.019 246.965 76.32 C255.35 70.439 263.859 64.963 272.75 59.879 C275.738 58.167 278.66 56.38 281.562 54.527 C295.247 45.875 295.247 45.875 301.539 46.562 C306.148 48.046 310.296 50.334 314.473 52.746 C319.942 55.228 324.087 56.479 329.893 54.324 C333.134 52.73 336.25 50.998 339.375 49.188 C340.514 48.55 341.653 47.912 342.827 47.255 C346.259 45.329 349.663 43.357 353.062 41.375 C354.029 40.814 354.996 40.253 355.992 39.675 C365.633 34.05 375.094 28.167 384.41 22.02 C388.798 19.299 392.986 18.483 398.062 19.375 C404.881 22.358 410.162 26.866 415.062 32.375 C415.613 32.992 416.163 33.61 416.73 34.246 C418.519 36.28 420.291 38.326 422.062 40.375 C423.618 42.173 425.18 43.965 426.75 45.75 C427.476 46.583 428.201 47.415 428.949 48.273 C432.311 51.617 434.974 52.673 439.688 52.75 C447.208 52.606 453.865 49.507 460.062 45.375 C459.683 47.755 459.371 49.069 457.637 50.789 C451.182 54.932 444.377 56.75 436.68 56.207 C427.101 53.924 420.324 44.053 414.5 36.688 C409.992 31.016 404.615 25.651 398.062 22.375 C389.31 21.675 383.301 24.802 376.625 30.188 C360.669 42.438 341.879 51.159 324.062 60.375 C324.418 60.827 324.774 61.279 325.14 61.745 C328.101 65.591 330.806 69.493 333.324 73.645 C334.168 75.007 334.168 75.007 335.029 76.396 C336.18 78.263 337.307 80.143 338.412 82.037 C341.631 87.137 343.806 89.794 349.777 91.301 C350.687 91.448 351.597 91.595 352.535 91.747 C356.924 92.837 359.241 96.031 362.062 99.375 C362.991 100.282 363.919 101.19 364.875 102.125 C367.668 104.998 369.028 106.488 369.188 110.562 C369.126 111.955 369.126 111.955 369.062 113.375 C387.521 103.59 387.521 103.59 405.812 93.5 C406.419 93.158 407.026 92.816 407.65 92.463 C410.88 90.633 414.092 88.775 417.297 86.902 C418.01 86.49 418.723 86.078 419.458 85.654 C420.806 84.875 422.15 84.088 423.487 83.292 C431.097 78.91 439.309 77.187 448.062 78.375 C452.212 79.755 456.135 81.456 460.062 83.375 C459.732 84.365 459.403 85.355 459.062 86.375 C458.248 85.959 458.248 85.959 457.418 85.535 C456.345 84.992 456.345 84.992 455.25 84.438 C454.542 84.078 453.835 83.718 453.105 83.348 C446.139 80.031 437.981 80.427 430.75 82.812 C424.988 85.166 419.783 88.4 414.508 91.664 C409.142 94.969 403.668 98.079 398.188 101.188 C397.225 101.738 396.262 102.289 395.271 102.857 C380.229 111.375 380.229 111.375 376.062 111.375 C376.062 112.035 376.062 112.695 376.062 113.375 C378.029 113.344 378.029 113.344 380.035 113.312 C384.936 113.239 389.837 113.193 394.739 113.155 C396.854 113.135 398.968 113.108 401.082 113.073 C404.136 113.024 407.188 113.002 410.242 112.984 C411.175 112.964 412.108 112.943 413.069 112.922 C419.822 112.92 424.987 114.482 431.062 117.375 C432.072 117.853 433.081 118.331 434.121 118.824 C434.906 119.233 435.691 119.641 436.5 120.062 C441.816 122.819 446.3 123.621 452.25 123.938 C453 123.981 453.749 124.024 454.521 124.068 C456.368 124.174 458.215 124.275 460.062 124.375 C460.062 125.035 460.062 125.695 460.062 126.375 C446.342 127.518 437.88 125.226 426.062 118.375 C422.517 116.735 419.712 116.114 415.813 116.056 C414.793 116.036 413.772 116.016 412.72 115.996 C411.631 115.984 410.541 115.973 409.418 115.961 C408.293 115.942 407.168 115.922 406.009 115.902 C402.423 115.843 398.836 115.796 395.25 115.75 C392.816 115.712 390.381 115.673 387.947 115.633 C381.986 115.537 376.024 115.452 370.062 115.375 C370.353 116.017 370.643 116.66 370.942 117.322 C373.2 122.574 374.48 126.428 373.93 132.227 C373.706 140.109 376.218 145.087 380.188 151.75 C380.81 152.849 381.433 153.948 382.075 155.081 C384.041 158.53 386.048 161.953 388.062 165.375 C389.39 167.666 390.715 169.957 392.039 172.25 C394.922 177.227 397.833 182.186 400.772 187.13 C404.113 192.942 404.113 192.942 403.75 196.062 C403.062 198.375 403.062 198.375 402.062 199.375 C400.063 199.416 398.062 199.418 396.062 199.375 C395.98 200.386 395.897 201.396 395.812 202.438 C394.685 209.902 389.429 215.844 385.148 221.844 C382.027 226.257 380.93 229.192 381 234.562 C381.014 235.914 381.014 235.914 381.027 237.293 C381.039 237.98 381.051 238.667 381.062 239.375 C385.452 237.081 389.28 234.483 393.188 231.438 C409.238 219.275 432.48 201.855 453.438 202.25 C454.683 202.268 455.928 202.286 457.211 202.305 C458.152 202.328 459.093 202.351 460.062 202.375 C460.062 203.365 460.062 204.355 460.062 205.375 C459.249 205.366 458.436 205.357 457.598 205.348 C434.226 205.952 412.628 221.641 394.3 234.845 C392.171 236.301 390.011 237.56 387.754 238.805 C383.812 241.133 380.263 243.239 378.062 247.375 C376.44 255.267 377.192 263.424 378.062 271.375 C378.897 271.241 379.731 271.107 380.59 270.968 C382.58 270.648 384.569 270.328 386.559 270.008 C389.177 269.535 391.717 268.99 394.301 268.375 C399.439 267.218 404.569 266.687 409.812 266.25 C410.808 266.166 411.804 266.082 412.83 265.995 C447.748 263.27 447.748 263.27 460.062 267.375 C460.062 268.035 460.062 268.695 460.062 269.375 C458.766 269.37 457.47 269.365 456.135 269.359 C451.306 269.341 446.477 269.33 441.648 269.32 C439.562 269.315 437.476 269.308 435.389 269.3 C432.383 269.287 429.377 269.282 426.371 269.277 C425.445 269.272 424.518 269.267 423.564 269.262 C418.621 269.261 413.957 269.601 409.062 270.375 C407.846 270.344 406.629 270.313 405.375 270.281 C399.787 270.206 394.477 271.621 389.062 272.875 C388.002 273.113 386.941 273.352 385.848 273.598 C383.251 274.183 380.656 274.775 378.062 275.375 C378.083 275.935 378.104 276.495 378.126 277.072 C378.209 279.61 378.261 282.148 378.312 284.688 C378.346 285.569 378.38 286.45 378.414 287.357 C378.513 293.878 378.513 293.878 376.219 296.406 C373.853 297.469 371.502 298.494 369.062 299.375 C367.795 304.792 368.351 308.099 370.293 313.285 C371.152 315.617 371.667 317.924 372.062 320.375 C368.627 323.535 365.707 324.295 361.062 324.375 C358.187 322.687 358.187 322.687 355.062 320.375 C353.578 319.675 352.076 319.01 350.562 318.375 C346.668 316.675 343.283 315.182 340.062 312.375 C339.312 309.375 339.312 309.375 340.062 306.375 C342.998 303.961 345.464 302.575 349.062 301.375 C349.392 300.715 349.723 300.055 350.062 299.375 C349.433 299.603 348.804 299.831 348.156 300.066 C339.868 302.85 334.344 302.48 326.062 299.375 C325.972 304.276 325.911 308.929 326.875 313.75 C327.062 317.375 327.062 317.375 325.062 319.875 C321.318 321.747 319.2 322.04 315.062 321.375 C312.625 319.375 312.625 319.375 310.062 316.375 C307.994 314.387 305.914 312.412 303.832 310.438 C301.293 307.478 300.219 304.661 299.75 300.812 C300.062 298.375 300.062 298.375 303.062 294.375 C295.803 294.045 288.543 293.715 281.062 293.375 C282.318 295.886 283.563 296.246 286.062 297.375 C285.918 298.097 285.774 298.819 285.625 299.562 C285.782 302.721 285.782 302.721 289.125 304.688 C289.757 305.09 290.388 305.492 291.039 305.906 C294.617 308.503 297.281 311.968 300.062 315.375 C299.733 316.035 299.402 316.695 299.062 317.375 C294.072 315.989 292.856 313.565 290.062 309.375 C288.299 308.018 288.299 308.018 286.375 306.812 C283.136 304.683 283.136 304.683 282.438 301.75 C282.314 300.966 282.19 300.183 282.062 299.375 C279.601 297.531 279.601 297.531 277.062 296.375 C276.916 296.949 276.769 297.522 276.617 298.113 C274.338 306.747 271.625 315.231 268.907 323.734 C267.461 328.257 266.022 332.783 264.582 337.309 C264.29 338.227 263.997 339.145 263.696 340.091 C260.69 349.532 257.717 358.984 254.75 368.438 C254.271 369.962 253.793 371.486 253.314 373.01 C252.23 376.465 251.146 379.92 250.062 383.375 C249.072 383.375 248.082 383.375 247.062 383.375 C247.719 377.319 249.323 371.746 251.125 365.938 C251.407 365.015 251.688 364.093 251.979 363.143 C252.669 360.885 253.363 358.63 254.062 356.375 C253.266 356.254 252.469 356.133 251.648 356.008 C242.607 354.578 242.607 354.578 238.875 353.188 C234.838 352.021 231.096 352.205 227.062 353.375 C222.441 356.067 218.825 359.329 215.125 363.125 C214.601 363.654 214.078 364.184 213.538 364.729 C210.669 367.652 207.909 370.633 205.25 373.75 C202.225 377.277 199.048 380.923 195.062 383.375 C193.743 383.375 192.423 383.375 191.062 383.375 C190.221 381.942 189.39 380.503 188.562 379.062 C188.098 378.262 187.634 377.461 187.156 376.637 C186.062 374.375 186.062 374.375 186.062 371.375 C186.723 371.375 187.382 371.375 188.062 371.375 C189.053 373.685 190.043 375.995 191.062 378.375 C194.981 378.757 194.981 378.757 197.344 376.777 C199.338 374.461 199.338 374.461 199.156 371.379 C196.894 354.814 196.894 354.814 188.062 341.375 C182.204 339.55 176.791 339.086 170.688 338.938 C161.201 338.569 153.464 337.018 145.062 332.375 C145.722 330.395 146.382 328.415 147.062 326.375 C148.713 326.375 150.363 326.375 152.062 326.375 C153.125 328.188 153.125 328.188 154.062 330.375 C153.732 331.365 153.403 332.355 153.062 333.375 C158.602 335.216 163.622 335.717 169.438 335.875 C176.761 336.076 184.257 336.3 190.812 339.875 C196.874 346.61 198.751 354.287 200.075 363.017 C200.628 367.127 200.628 367.127 203.062 370.375 C206.528 366.415 206.528 366.415 210.062 362.375 C209.341 361.715 208.619 361.055 207.875 360.375 C200.677 353.075 198.429 344.844 196.355 335.027 C194.355 324.8 194.355 324.8 188.117 316.766 C183.557 314.69 179.021 314.581 174.062 314.25 C172.104 314.104 170.146 313.956 168.188 313.805 C166.892 313.716 166.892 313.716 165.57 313.625 C163.018 313.371 160.568 312.919 158.062 312.375 C158.393 314.685 158.722 316.995 159.062 319.375 C157.5 320.938 157.5 320.938 155.062 322.375 C148.735 322.048 148.735 322.048 146.062 319.375 C145.625 316.937 145.625 316.937 146.062 314.375 C148.446 312.556 150.021 311.375 153.062 311.375 C153.062 310.715 153.062 310.055 153.062 309.375 C152.217 309.127 151.371 308.88 150.5 308.625 C147.778 307.635 145.797 306.677 143.375 305.188 C142.282 304.589 141.189 303.991 140.062 303.375 C139.072 303.705 138.083 304.035 137.062 304.375 C136.81 303.639 136.557 302.903 136.297 302.145 C134.98 299.189 133.524 297.407 131.312 295.062 C128.657 292.193 126.278 289.344 124.062 286.125 C120.637 281.41 116.191 278.939 111.062 276.375 C109.085 276.278 107.105 276.245 105.125 276.25 C103.534 276.246 103.534 276.246 101.91 276.242 C98.987 276.249 98.987 276.249 96.062 277.375 C81.281 278.848 67.112 274.293 55.688 265 C51.068 260.784 47.573 255.846 44.131 250.655 C40.332 245.114 36.587 242.375 29.992 240.504 C26.562 240.353 24.372 241.058 21.188 242.312 C11.291 245.781 4.496 244.498 -5.082 240.291 C-17.259 234.279 -27.493 223.98 -36.875 214.375 C-41.47 209.747 -45.295 207.713 -51.938 207.375 C-57.708 207.99 -62.039 209.997 -65.938 214.375 C-67.25 216.151 -68.54 217.945 -69.812 219.75 C-74.159 225.908 -79.306 232.413 -86.938 234.375 C-87.927 234.375 -88.918 234.375 -89.938 234.375 C-89.938 233.715 -89.938 233.055 -89.938 232.375 C-89.32 232.142 -88.703 231.908 -88.066 231.668 C-80.109 228.241 -76.062 223.185 -70.938 216.375 C-69.684 214.861 -68.414 213.359 -67.125 211.875 C-66.603 211.267 -66.081 210.658 -65.543 210.031 C-61.182 205.532 -57.773 204.589 -51.625 204.125 C-42.964 204.712 -38.926 207.941 -33.141 214.051 C-22.763 224.998 -6.93 239.397 8.762 240.578 C13.805 240.657 18.118 240.602 22.875 238.812 C27.674 237.009 31.108 237.152 35.922 239.145 C43.621 243.256 48.627 250.991 53.902 257.723 C61.472 266.967 71.428 271.254 83.062 273.375 C89.017 273.897 95.36 274.276 101.062 272.375 C109.173 271.664 116.243 273.873 122.688 278.938 C126.536 282.484 129.412 286.786 132.363 291.082 C133.859 293.462 133.859 293.462 136.062 294.375 C135.403 291.735 134.743 289.095 134.062 286.375 C134.722 286.375 135.382 286.375 136.062 286.375 C136.186 287.099 136.31 287.824 136.438 288.57 C137.519 293.642 138.393 297.501 142.625 300.75 C144.08 301.665 145.561 302.54 147.062 303.375 C147.818 303.836 148.573 304.298 149.352 304.773 C156.023 308.533 162.527 309.538 170.062 310.375 C172.051 310.603 174.04 310.831 176.027 311.073 C177.9 311.3 179.776 311.508 181.652 311.715 C187.573 312.861 191.917 315.327 195.684 319.969 C198.717 325.263 199.725 331.471 201.062 337.375 C202.948 345.428 205.083 352.396 211.062 358.375 C215.31 358.223 218.048 355.047 221.062 352.375 C219.386 347.852 217.073 344.032 214.5 339.973 C211.737 334.98 210.781 330.193 210.316 324.543 C210.201 323.249 210.086 321.956 209.967 320.623 C209.794 318.596 209.626 316.569 209.461 314.542 C208.575 301.233 208.575 301.233 202.875 289.5 C194.258 282.99 184.843 284.132 174.622 284.437 C163.909 284.727 153.641 284.575 144.98 277.453 C139.404 271.411 136.065 263.344 132.359 256.074 C131.886 255.153 131.413 254.232 130.925 253.283 C129.999 251.474 129.084 249.658 128.182 247.836 C123.976 239.567 119.248 232.47 110.352 228.984 C106.803 228.04 103.715 228.109 100.062 228.375 C99.82 228.932 99.578 229.489 99.328 230.062 C98.255 232.507 97.159 234.941 96.062 237.375 C95.751 238.102 95.439 238.829 95.117 239.578 C92.881 244.502 90.659 247.433 86.062 250.375 C82.222 251.095 80.593 250.668 77.176 248.777 C73.65 246.056 71.537 243.118 69.25 239.375 C68.572 238.298 68.572 238.298 67.879 237.2 C64.829 232.327 61.863 227.403 58.887 222.484 C58.521 221.88 58.155 221.276 57.778 220.654 C55.957 217.645 54.143 214.633 52.341 211.613 C39.988 189.833 39.988 189.833 21.062 174.375 C17.345 173.371 17.345 173.371 14.062 174.375 C8.666 180.765 8.866 186.68 8.637 194.711 C7.995 198.809 6.959 200.473 4.062 203.375 C0.25 205.281 -3.291 204.899 -7.234 203.645 C-20.252 197.903 -29.222 184.912 -37.59 173.887 C-46.217 162.576 -54.139 152.687 -68.938 150.375 C-68.938 149.715 -68.938 149.055 -68.938 148.375 C-55.73 149.109 -47.911 156.498 -39.344 165.797 C-36.946 168.487 -34.752 171.3 -32.609 174.195 C-29.979 177.625 -27.05 180.77 -24.129 183.953 C-22.142 186.149 -20.26 188.404 -18.375 190.688 C-14.514 195.063 -10.422 198.957 -4.43 199.676 C-2.239 199.686 -0.115 199.602 2.062 199.375 C3.765 195.584 4.454 192.18 4.938 188.062 C5.891 181.484 7.31 176.413 11.875 171.375 C15.282 169.818 17.332 169.825 21.062 170.375 C32.67 175.877 40.998 186.978 47.75 197.5 C48.423 198.528 49.096 199.557 49.789 200.616 C55.873 209.961 61.793 219.412 67.66 228.895 C68.794 230.721 69.928 232.548 71.062 234.375 C71.695 235.4 72.328 236.426 72.98 237.482 C73.604 238.482 74.228 239.482 74.871 240.512 C75.435 241.42 75.999 242.328 76.58 243.264 C77.892 245.488 77.892 245.488 80.062 246.375 C82.062 246.415 84.063 246.418 86.062 246.375 C86.393 245.715 86.722 245.055 87.062 244.375 C86.732 243.385 86.403 242.395 86.062 241.375 C86.722 241.045 87.382 240.715 88.062 240.375 C89.053 240.705 90.042 241.035 91.062 241.375 C91.233 240.723 91.403 240.07 91.578 239.398 C93.069 234.021 94.578 229.759 98.062 225.375 C101.871 223.471 105.571 223.941 109.535 225.094 C126.026 231.262 132.999 247.381 140.062 262.375 C140.062 258.745 140.062 255.115 140.062 251.375 C140.722 251.375 141.382 251.375 142.062 251.375 C142.16 252.195 142.258 253.015 142.359 253.859 C142.584 255.476 142.584 255.476 142.812 257.125 C142.952 258.192 143.091 259.26 143.234 260.359 C144.186 263.825 145.293 265.143 148.062 267.375 C150.695 268.629 150.695 268.629 153.062 269.375 C153.062 269.705 153.062 270.035 153.062 270.375 C146.539 269.76 146.539 269.76 144.125 267.812 C143.774 267.338 143.424 266.864 143.062 266.375 C144.079 270.748 145.481 273.557 149.137 276.284 C157.938 281.271 167.986 280.668 177.75 280.375 C197.4 279.791 197.4 279.791 204.812 285.938 C214.46 295.057 213.586 310.666 214.262 323.02 C214.81 332.513 218.059 340.88 224.062 348.375 C224.723 348.375 225.382 348.375 226.062 348.375 C226.339 347.801 226.616 347.226 226.901 346.634 C228.175 344.002 229.463 341.376 230.75 338.75 C231.185 337.846 231.62 336.943 232.068 336.012 C234.593 330.888 237.059 326.478 241.062 322.375 C244.004 321.395 245.888 321.259 248.949 321.277 C249.887 321.281 250.825 321.284 251.791 321.287 C252.767 321.295 253.744 321.304 254.75 321.312 C255.738 321.317 256.726 321.322 257.744 321.326 C260.184 321.338 262.623 321.354 265.062 321.375 C265.355 320.543 265.647 319.71 265.949 318.852 C267.038 315.759 268.13 312.668 269.225 309.577 C269.698 308.24 270.169 306.902 270.639 305.564 C271.315 303.639 271.997 301.716 272.68 299.793 C273.088 298.636 273.497 297.478 273.917 296.286 C275.062 293.375 275.062 293.375 277.062 290.375 C278.382 290.375 279.702 290.375 281.062 290.375 C277.057 285.556 272.944 281.11 268.125 277.094 C266.776 275.97 265.461 274.803 264.188 273.594 C259.4 269.33 254.714 267.403 248.688 265.562 C230.294 259.943 214.139 249.201 198.605 238.102 C195.746 236.16 192.794 234.435 189.812 232.688 C178.721 225.898 169.677 217.076 160.625 207.812 C155.373 202.452 150.066 197.492 144 193.062 C143.417 192.637 142.835 192.212 142.235 191.773 C130.658 183.643 117.77 180.686 103.875 179.375 C81.729 177.182 61.961 165.933 46.125 150.562 C38.09 143.424 24.579 141.287 14.438 138.688 C11.819 138.003 9.2 137.317 6.582 136.629 C5.902 136.451 5.222 136.272 4.522 136.089 C-5.462 133.461 -15.398 130.657 -25.34 127.876 C-26.778 127.475 -28.215 127.073 -29.652 126.672 C-30.348 126.477 -31.043 126.282 -31.76 126.081 C-35.182 125.126 -38.608 124.194 -42.049 123.306 C-48.622 121.609 -54.923 119.848 -61.125 117.062 C-61.784 116.768 -62.444 116.473 -63.123 116.169 C-68.38 113.764 -73.294 110.892 -78.23 107.887 C-82.018 105.771 -85.772 104.555 -89.938 103.375 C-89.938 102.715 -89.938 102.055 -89.938 101.375 C-81.7 102.798 -75.498 106.03 -68.281 110.123 C-53.638 118.159 -37.15 121.519 -21.096 125.65 C13.805 134.647 13.805 134.647 29.75 139.562 C30.861 139.9 31.973 140.237 33.118 140.585 C40.401 142.896 45.458 145.673 51 151 C67.216 165.586 85.944 173.931 107.438 176.812 C135.136 180.545 152.615 195.669 171.617 214.973 C174.732 218.1 177.969 220.96 181.438 223.688 C182.027 224.152 182.616 224.616 183.224 225.095 C189.204 229.682 195.627 233.38 202.164 237.105 C205.295 238.899 208.261 240.823 211.188 242.938 C224.937 252.809 239.832 260.702 256.219 265.16 C264.562 268.724 270.95 275.91 277.326 282.16 C281.711 286.372 284.799 289.034 291.012 289.684 C296.609 289.117 301.008 286.169 305.062 282.375 C306.227 279.282 306.382 276.647 306.062 273.375 C305.194 273.421 304.325 273.468 303.43 273.516 C293.999 273.811 293.999 273.811 289.438 271.688 C286.127 268.464 284.246 266.191 283.773 261.516 C284.12 257.747 285.178 256.386 287.562 253.5 C290.75 249.193 290.75 249.193 291.812 244.062 C290.918 239.662 289.514 238.153 286.062 235.375 C285.733 235.045 285.402 234.715 285.062 234.375 C282.962 234.099 280.856 233.855 278.75 233.625 C271.551 232.643 265.562 230.562 259.062 227.375 C258.326 227.021 257.59 226.666 256.832 226.301 C254.379 225.021 252.391 223.775 250.625 221.625 C249.483 217.059 249.178 213.125 251.301 208.926 C253.189 206.192 255.265 203.897 257.562 201.5 C261.155 197.562 263.648 194.528 265.062 189.375 C264.867 186.544 264.867 186.544 264.062 184.375 C259.971 186.594 256.991 189.235 253.75 192.562 C252.425 193.914 252.425 193.914 251.074 195.293 C250.41 195.98 249.746 196.667 249.062 197.375 C249.062 194.375 249.062 194.375 250.256 192.841 C250.8 192.312 251.345 191.783 251.906 191.238 C252.493 190.661 253.079 190.085 253.684 189.49 C254.304 188.895 254.924 188.3 255.562 187.688 C256.183 187.081 256.803 186.474 257.441 185.85 C258.975 184.351 260.518 182.862 262.062 181.375 C259.415 178.362 257.315 177.733 253.281 177.367 C246.101 177.393 238.614 180.192 231.75 182.125 C230.43 182.465 230.43 182.465 229.084 182.812 C223.419 184.429 223.419 184.429 219.457 188.578 C218.997 189.501 218.537 190.424 218.062 191.375 C217.733 190.385 217.402 189.395 217.062 188.375 C217.392 187.715 217.723 187.055 218.062 186.375 C217.35 186.532 216.637 186.69 215.902 186.852 C210.77 187.798 204.913 188.709 200.051 186.434 C197.682 184.604 196.218 182.722 195 180 C195.16 173.265 199.112 168.769 203.625 164.25 C206.958 160.886 209.631 157.999 211.062 153.375 C199.871 155.128 190.199 158.954 179.925 163.575 C177.186 164.752 175.177 165.376 172.172 165.34 C165.284 165.178 165.284 165.178 159.652 168.664 C157.932 171.172 156.42 173.655 155.062 176.375 C154.732 175.385 154.403 174.395 154.062 173.375 C155.094 171.602 156.127 169.83 157.188 168.074 C158.225 166.379 158.225 166.379 158.062 164.25 C157.077 162.194 157.077 162.194 155 160.25 C152.563 156.634 152.373 154.232 152.539 149.938 C153.445 145.505 156.062 142.638 159.062 139.375 C161.453 136.786 161.453 136.786 163.062 134.375 C162.937 132.111 162.937 132.111 162.062 130.375 C157.643 134.38 154.358 138.983 150.93 143.852 C149.411 145.904 147.929 147.648 146.062 149.375 C146.528 144.284 149.088 141.141 152.062 137.188 C155.322 132.945 155.322 132.945 158.062 128.375 C153.477 129.316 148.891 130.258 144.305 131.201 C142.752 131.52 141.198 131.839 139.645 132.158 C137.386 132.622 135.126 133.086 132.867 133.551 C132.123 133.703 131.38 133.856 130.613 134.013 C127.077 134.742 123.545 135.483 120.019 136.262 C118.791 136.532 117.562 136.803 116.297 137.082 C114.688 137.443 114.688 137.443 113.046 137.812 C107.907 138.782 102.512 139.744 97.805 137.113 C96.062 135.375 96.062 135.375 95.672 133.332 C95.802 131.346 95.932 129.361 96.062 127.375 C90.455 133.267 85.99 139.249 82.062 146.375 C81.062 143.375 81.062 143.375 81.79 141.391 C86.806 132.725 93.82 126.172 100.938 119.25 C102.212 117.996 103.485 116.741 104.758 115.484 C107.849 112.437 110.952 109.403 114.062 106.375 C112.072 105.106 112.072 105.106 109.785 105.969 C108.014 106.572 106.243 107.176 104.473 107.781 C102.062 108.375 102.062 108.375 99.062 107.375 C104.795 104.522 109.661 102.841 116.062 102.375 C116.75 104.687 116.75 104.687 117.062 107.375 C115.625 109.188 115.625 109.188 114.062 110.375 C115.713 110.375 117.363 110.375 119.062 110.375 C116.837 112.848 114.749 114.102 111.75 115.5 C106.508 118.339 103.6 122.018 101.062 127.375 C100.393 129.817 100.171 131.826 100.062 134.375 C108.385 136.161 115.61 134.17 123.676 132.145 C127.573 131.169 131.48 130.242 135.391 129.324 C136.528 129.057 136.528 129.057 137.688 128.785 C145.749 126.929 153.808 125.851 162.062 125.375 C162.062 120.813 161.224 120.349 158.367 117.129 C154.105 111.399 153.28 103.237 152.062 96.375 C150.083 96.375 148.102 96.375 146.062 96.375 C145.66 97.272 145.66 97.272 145.25 98.188 C143.351 101.686 141.862 103.108 138.062 104.375 C132.758 104.717 129.338 104.896 125.062 101.375 C123.75 99.188 123.75 99.188 123.062 97.375 C120.093 98.365 120.093 98.365 117.062 99.375 C115.062 97.375 115.062 97.375 114.867 95.43 C114.932 93.411 114.997 91.393 115.062 89.375 C116.382 88.715 117.702 88.055 119.062 87.375 C119.722 88.035 120.382 88.695 121.062 89.375 C124.372 89.196 125.817 88.593 128.312 86.375 C132.048 83.658 135.458 82.875 140.062 83.375 C143.102 85.591 144.628 87.138 145.875 90.688 C145.937 91.244 145.999 91.801 146.062 92.375 C148.042 92.375 150.023 92.375 152.062 92.375 C151.244 80.622 151.244 80.622 146.062 70.375 C142.419 67.803 138.465 68.037 134.18 68.59 C123.858 71.19 114.481 76.958 105.625 82.688 C95.943 88.916 86.82 92.197 75.062 90.375 C68.788 87.639 63.669 83.293 61.047 76.898 C60.004 74.072 59.028 71.229 58.062 68.375 C57.486 66.81 56.904 65.247 56.312 63.688 C55.694 62.048 55.694 62.048 55.062 60.375 C51.141 59.964 51.141 59.964 48.956 62.027 C48.223 62.781 47.49 63.536 46.734 64.312 C45.935 65.125 45.136 65.937 44.312 66.773 C43.488 67.632 42.662 68.49 41.812 69.375 C40.972 70.234 40.132 71.092 39.266 71.977 C37.189 74.101 35.122 76.234 33.062 78.375 C34.266 80.869 35.517 83.056 37.062 85.375 C38.203 91.738 36.272 96.874 33.961 102.727 C32.436 107.221 32.498 111.054 33.625 115.688 C36.829 119.449 42.286 120.82 47.062 121.375 C47.677 121.451 48.292 121.527 48.926 121.605 C55.166 122.004 60.872 120.655 66.875 119.125 C67.7 118.921 68.524 118.716 69.374 118.505 C74.112 117.228 77.42 115.833 81.062 112.375 C81.062 113.035 81.062 113.695 81.062 114.375 C82.093 113.924 82.093 113.924 83.145 113.465 C84.046 113.085 84.947 112.704 85.875 112.312 C86.768 111.93 87.662 111.547 88.582 111.152 C91.062 110.375 91.062 110.375 94.062 111.375 C91.671 112.696 89.275 114.007 86.875 115.312 C86.201 115.686 85.528 116.059 84.834 116.443 C81.214 118.403 78.167 119.745 74.062 120.375 C71.75 121.061 69.437 121.749 67.125 122.438 C56.999 125.235 46.882 126.16 37.125 121.57 C32.83 119.081 30.559 116.956 29.062 112.188 C29.062 106.273 30.874 101.065 33.25 95.688 C34.377 92.48 34.312 89.746 34.062 86.375 C33.403 85.385 32.743 84.395 32.062 83.375 C31.073 83.375 30.082 83.375 29.062 83.375 C27.717 84.769 27.717 84.769 26.582 86.656 C26.141 87.333 25.699 88.01 25.244 88.707 C24.792 89.422 24.341 90.138 23.875 90.875 C23.412 91.59 22.948 92.306 22.471 93.043 C21.325 94.814 20.193 96.594 19.062 98.375 C18.733 97.385 18.403 96.395 18.062 95.375 C19.461 92.746 19.461 92.746 21.438 89.812 C22.085 88.842 22.732 87.871 23.398 86.871 C23.948 86.047 24.497 85.224 25.062 84.375 C25.392 83.715 25.722 83.055 26.062 82.375 C13.757 83.678 13.757 83.678 4 90.062 C3.536 91.207 3.536 91.207 3.062 92.375 C2.733 91.385 2.403 90.395 2.062 89.375 C1.289 89.724 0.516 90.074 -0.281 90.434 C-8.95 94.221 -15.647 96.94 -24.887 93.461 C-28.74 91.42 -31.007 88.521 -32.75 84.5 C-33.241 78.937 -33.17 74.687 -31.438 69.375 C-29.948 64.771 -29.429 61.204 -29.938 56.375 C-31.71 53.716 -34.055 52.667 -36.938 51.375 C-36.938 50.715 -36.938 50.055 -36.938 49.375 C-33.501 50.234 -31.254 51.1 -28.562 53.438 C-26.338 57.459 -26.301 60.871 -26.938 65.375 C-27.269 66.324 -27.6 67.272 -27.941 68.25 C-29.019 71.632 -29.237 74.396 -29.25 77.938 C-29.267 79.032 -29.284 80.126 -29.301 81.254 C-28.891 84.773 -28.106 86.59 -25.938 89.375 C-21.323 92.493 -16.265 92.142 -10.938 91.375 C-1.767 89.139 5.314 85.556 10.312 77.375 C11.637 75.071 12.847 72.742 14.062 70.375 C15.377 68.03 16.72 65.704 18.062 63.375 C17.073 63.87 17.073 63.87 16.062 64.375 C6.031 65.123 -2.285 64.569 -10.312 58.188 C-14.669 54.073 -16.146 49.967 -17.41 44.23 C-18.395 39.768 -19.169 37.097 -22.938 34.375 C-31.321 30.564 -38.584 32.479 -46.953 35.246 C-50.43 36.561 -53.077 37.991 -55.938 40.375 C-56.707 41.009 -56.707 41.009 -57.492 41.656 C-61.775 45.524 -64.768 50.003 -67.875 54.812 C-72.856 62.507 -78.001 70.05 -86.938 73.375 C-87.927 73.375 -88.918 73.375 -89.938 73.375 C-88.689 69.629 -87.802 69.591 -84.375 67.875 C-78.079 64.248 -74.861 59.356 -70.938 53.375 C-62.284 40.734 -54.685 33.389 -39.344 29.762 C-31.697 28.533 -25.411 28.854 -18.938 33.375 C-15.251 36.563 -14.536 39.706 -13.5 44.312 C-12.257 49.752 -11.075 52.623 -6.938 56.375 C-1.226 59.826 3.909 60.524 10.5 60.562 C11.592 60.577 12.684 60.591 13.809 60.605 C19.938 60.171 23.217 58.716 27.305 54.031 C27.761 53.485 28.217 52.938 28.688 52.375 C34.271 45.799 34.271 45.799 38.062 44.375 C37.676 44.822 37.289 45.27 36.891 45.73 C33.879 49.227 30.919 52.749 28.062 56.375 C28.666 56.17 29.269 55.965 29.891 55.754 C31.089 55.35 31.089 55.35 32.312 54.938 C33.101 54.671 33.89 54.404 34.703 54.129 C40.398 52.309 45.43 51.616 51.312 53.312 C57.332 53.413 61.306 49.791 66.062 46.375 C67.053 45.715 68.042 45.055 69.062 44.375 C70.053 44.705 71.042 45.035 72.062 45.375 C67.062 48.708 62.062 52.042 57.062 55.375 C57.332 55.861 57.601 56.347 57.879 56.848 C59.879 61.118 61.265 65.621 62.764 70.088 C64.778 75.944 66.478 80.867 72.062 84.125 C72.743 84.532 73.424 84.94 74.125 85.359 C79.107 87.971 83.937 88.027 89.328 86.902 C97.116 84.465 103.806 80.042 110.716 75.814 C131.681 63.011 131.681 63.011 142.391 64.754 C146.917 66.221 149.725 68.134 152.062 72.375 C154.02 78.409 155.252 84.012 155.062 90.375 C156.382 90.045 157.702 89.715 159.062 89.375 C159.722 90.695 160.382 92.015 161.062 93.375 C157.062 93.375 157.062 93.375 155.062 92.375 C155.632 95.212 156.218 98.044 156.812 100.875 C156.97 101.666 157.127 102.458 157.289 103.273 C158.431 108.631 159.779 113.894 163.062 118.375 C165.389 119.881 165.389 119.881 168.062 119.375 C171.018 117.698 171.018 117.698 173.875 115.25 C174.931 114.415 175.988 113.581 177.047 112.75 C178.042 111.966 179.037 111.183 180.062 110.375 C182.692 108.499 185.218 106.926 188.062 105.375 C189.053 105.705 190.043 106.035 191.062 106.375 C190.038 107.05 189.013 107.726 187.957 108.422 C186.596 109.323 185.236 110.224 183.875 111.125 C182.865 111.79 182.865 111.79 181.834 112.469 C174.565 116.751 174.565 116.751 170.062 123.375 C184.23 119.096 184.23 119.096 197.625 112.938 C203.389 109.862 208.624 109.211 215.062 110.375 C217.442 111.473 219.013 112.693 221.062 114.375 C222.053 114.375 223.043 114.375 224.062 114.375 C224.801 120.202 225.173 125.917 225.302 131.788 C225.587 148.483 225.587 148.483 234.062 162.375 C235.053 162.705 236.043 163.035 237.062 163.375 C237.392 162.055 237.723 160.735 238.062 159.375 C239.712 159.705 241.363 160.035 243.062 160.375 C242.402 162.025 241.743 163.675 241.062 165.375 C249.675 164.458 249.675 164.458 257.812 161.75 C265.619 158.511 276.992 159.154 284.812 162.125 C290.677 164.988 294.616 168.04 297.332 174.059 C299.934 182.31 297.573 190.134 295.035 198.113 C292.756 205.755 290.808 216.016 294.75 223.375 C298.794 228.621 301.54 230.459 308.062 231.375 C308.172 230.334 308.172 230.334 308.284 229.272 C308.975 222.696 309.666 216.121 310.358 209.546 C310.713 206.166 311.068 202.787 311.424 199.407 C311.833 195.512 312.243 191.617 312.652 187.723 C312.778 186.522 312.905 185.322 313.034 184.085 C313.691 177.846 314.362 171.609 315.062 165.375 C313.949 165.289 312.835 165.202 311.688 165.113 C295.971 163.736 274.762 160.074 263.062 148.375 C262.835 145.853 262.835 145.853 262.867 142.711 C262.874 141.589 262.88 140.468 262.887 139.312 C262.903 138.137 262.92 136.961 262.938 135.75 C262.947 134.567 262.956 133.383 262.965 132.164 C262.988 129.234 263.021 126.305 263.062 123.375 C262.303 123.326 261.544 123.277 260.762 123.227 C259.271 123.114 259.271 123.114 257.75 123 C256.271 122.896 256.271 122.896 254.762 122.789 C252.062 122.375 252.062 122.375 249.062 120.375 C247.302 120.027 245.528 119.741 243.75 119.5 C236.491 118.265 232.335 115.388 228.062 109.375 C224.187 101.624 227.9 91.612 230.062 83.875 C233.86 70.406 233.86 70.406 231.812 56.812 C229.456 53.477 229.456 53.477 226.062 51.375 C213.172 49.738 203.219 56.636 193.322 63.914 C184.363 70.469 174.589 76.833 163.062 75.375 C158.418 72.881 154.749 70.434 153.062 65.375 C152.967 63.231 152.933 61.084 152.938 58.938 C152.935 57.804 152.932 56.671 152.93 55.504 C153.042 52.868 153.424 50.894 154.062 48.375 C155.015 39.125 155.015 39.125 152.25 30.562 C149.487 27.799 147.729 27.44 143.875 27.062 C139.129 27.452 135.866 28.485 132.062 31.375 C129.739 34.182 127.937 37.257 126.062 40.375 C120.847 48.621 115.735 53.818 107.062 58.375 C106.387 58.735 105.712 59.094 105.016 59.465 C101.275 61.261 98.171 61.987 94.062 61.375 C88.903 59.002 87.017 56.13 84.888 51.119 C83.315 45.89 83.503 40.545 83.5 35.125 C83.491 32.828 83.469 30.531 83.434 28.234 C83.433 26.726 83.433 26.726 83.431 25.187 C82.999 21.893 82.057 20.015 80.062 17.375 C69.956 14.306 58.012 18.635 49.062 23.375 C43.705 26.795 39.364 31.03 34.938 35.562 C29.907 40.655 25.936 44.429 18.5 44.938 C13.558 44.718 11.384 42.945 8.062 39.375 C6.871 35.8 6.93 32.894 6.938 29.125 C6.934 27.199 6.934 27.199 6.93 25.234 C7.057 21.539 7.507 18.027 8.062 14.375 C8.449 9.227 8.449 9.227 7.062 4.375 C2.672 2.911 -1.523 2.365 -5.852 4.176 C-9.976 6.645 -13.531 9.707 -17.188 12.812 C-24.229 18.645 -32.449 24.657 -42.039 23.809 C-45.426 23.035 -46.724 22.095 -48.938 19.375 C-50.055 16.59 -51 13.812 -51.848 10.934 C-53.11 7.971 -54.155 6.946 -56.938 5.375 C-61.708 4.671 -64.712 4.724 -68.688 7.562 C-73.378 12.083 -74.433 18.243 -75.938 24.375 C-78.578 34.523 -81.133 41.148 -88.938 48.375 C-88.938 44.836 -88.414 44.559 -86.25 41.938 C-82.36 36.395 -81.192 30.353 -79.851 23.823 C-78.28 16.553 -75.78 10.082 -70.312 4.875 C-65.66 1.937 -61.277 1.895 -55.938 2.375 C-52.711 3.45 -51.437 4.453 -49.82 7.438 C-48.789 9.727 -47.864 12.041 -46.938 14.375 C-45.646 17.531 -45.646 17.531 -42.938 19.375 C-34.582 20.458 -27.797 17.084 -21.193 12.043 C-18.308 9.693 -15.519 7.251 -12.75 4.766 C-8.381 1.052 -5.746 0.072 0 0 Z M156.062 7.375 C153.116 12.58 152.569 16.546 153.062 22.375 C153.722 23.035 154.382 23.695 155.062 24.375 C157.137 24.524 157.137 24.524 159.062 23.375 C159.372 22.447 159.681 21.519 160 20.562 C161.283 16.714 162.92 15.811 166.062 13.375 C167.893 9.975 168.383 7.219 168.062 3.375 C167.033 2.153 167.033 2.153 164.875 2 C160.921 2.527 158.62 4.465 156.062 7.375 Z M272.168 63.049 C270.115 64.342 268.046 65.605 265.969 66.859 C257.927 71.736 250.433 76.963 243.141 82.906 C240.592 84.95 238.015 86.797 235.312 88.625 C232.536 90.695 232.033 91.442 230.562 94.812 C229.568 101.574 229.568 101.574 231.25 108.062 C234.461 112.159 238.034 114.938 243.062 116.375 C245.395 116.451 247.731 116.466 250.062 116.375 C249.815 115.364 249.567 114.354 249.312 113.312 C248.988 108.2 250.331 106.597 253.062 102.375 C253.062 101.715 253.062 101.055 253.062 100.375 C253.64 100.684 254.217 100.994 254.812 101.312 C256.92 102.308 258.8 102.864 261.062 103.375 C262.053 103.705 263.043 104.035 264.062 104.375 C264.217 105.551 264.217 105.551 264.375 106.75 C264.838 109.705 264.838 109.705 268.062 111.375 C269.238 111.911 270.414 112.447 271.625 113 C276.006 115.158 279.512 118.042 283.266 121.137 C286.433 123.671 289.68 126.045 293 128.375 C293.556 128.773 294.112 129.171 294.684 129.581 C298.041 131.917 298.041 131.917 302.062 132.375 C302.564 130.142 303.061 127.908 303.551 125.672 C303.904 124.088 304.284 122.51 304.688 120.938 C305.506 115.341 306.216 110.258 303.188 105.312 C299.189 101.667 295.693 102.055 290.453 102.074 C285.816 102.486 281.797 103.861 277.461 105.5 C275.062 106.375 275.062 106.375 273.062 106.375 C281.061 102.48 289.025 99.522 298.062 100.375 C303.714 102.677 303.714 102.677 305.062 105.375 C305.722 105.375 306.382 105.375 307.062 105.375 C305.581 101.919 304.099 99.632 301.062 97.375 C297.695 96.78 294.351 96.769 290.938 96.75 C289.122 96.725 287.307 96.691 285.492 96.648 C284.69 96.642 283.888 96.637 283.062 96.63 C281.062 96.375 281.062 96.375 279.062 94.375 C279.062 91.438 279.062 91.438 280.062 88.375 C284.907 84.649 290.217 84.724 296.062 85.375 C301.469 86.556 306.196 88.274 310.062 92.375 C311.5 95.312 311.5 95.312 312.062 98.375 C311.125 101.063 311.125 101.063 310.062 103.375 C310.392 104.365 310.722 105.355 311.062 106.375 C311.062 107.365 311.062 108.355 311.062 109.375 C309.082 108.88 309.082 108.88 307.062 108.375 C307.104 109.447 307.145 110.52 307.188 111.625 C307.204 116.344 306.383 120.821 305.5 125.445 C305.047 128.479 304.92 131.313 305.062 134.375 C306.129 135.671 306.129 135.671 308.625 135.438 C309.429 135.417 310.234 135.396 311.062 135.375 C311.475 134.488 311.887 133.601 312.312 132.688 C314.062 129.375 314.062 129.375 316.312 126.938 C318.442 124.45 318.442 124.45 317.562 121.25 C316.6 113.793 320.065 107.336 324.438 101.438 C327.32 97.963 330.135 95.578 334.062 93.375 C333.432 90.124 332.272 87.868 330.445 85.117 C329.921 84.327 329.396 83.537 328.855 82.723 C328.305 81.907 327.755 81.091 327.188 80.25 C326.645 79.426 326.102 78.603 325.543 77.754 C325.016 76.966 324.489 76.179 323.945 75.367 C323.465 74.649 322.984 73.931 322.489 73.191 C321.012 71.116 321.012 71.116 318.062 69.375 C317.567 69.87 317.567 69.87 317.062 70.375 C317.285 73.719 317.649 77.039 318.004 80.371 C318.023 81.362 318.043 82.354 318.062 83.375 C316.062 85.375 316.062 85.375 312.938 85.5 C311.989 85.459 311.04 85.417 310.062 85.375 C310.269 84.158 310.475 82.941 310.688 81.688 C311.178 77.906 310.509 75.901 309.062 72.375 C309.245 68.905 309.673 66.222 311.125 63.062 C314.116 60.457 317.197 60.135 321.062 59.375 C321.062 58.715 321.062 58.055 321.062 57.375 C320.433 57.133 319.804 56.89 319.156 56.641 C314.932 54.987 310.853 53.313 306.875 51.125 C294.748 45.049 282.147 56.694 272.168 63.049 Z M26.062 60.375 C25.24 60.749 24.418 61.123 23.57 61.508 C19.762 64.343 17.409 68.045 14.75 71.938 C13.925 73.108 13.925 73.108 13.084 74.303 C10.158 78.015 10.158 78.015 9.062 82.375 C10.864 82.163 12.665 81.941 14.461 81.684 C17.062 81.375 17.062 81.375 20.102 81.285 C26.217 80.869 30.114 79.97 34.439 75.399 C36.267 73.288 38.029 71.132 39.766 68.947 C41.772 66.515 44.002 64.331 46.25 62.125 C46.986 61.398 47.722 60.671 48.48 59.922 C49.003 59.411 49.525 58.901 50.062 58.375 C49.567 56.89 49.567 56.89 49.062 55.375 C40.511 54.506 33.778 56.785 26.062 60.375 Z M312.688 64.062 C310.854 66.671 310.218 68.194 310.062 71.375 C310.372 72.138 310.681 72.901 311 73.688 C312.463 77.388 312.197 80.41 312.062 84.375 C313.712 83.715 315.363 83.055 317.062 82.375 C316.733 77.755 316.402 73.135 316.062 68.375 C321.313 69.425 321.897 69.884 324.753 74.037 C325.165 74.664 325.576 75.291 326 75.938 C326.876 77.212 327.752 78.487 328.629 79.762 C329.441 80.965 330.252 82.17 331.062 83.375 C332.173 85.01 333.295 86.637 334.438 88.25 C334.858 88.866 335.278 89.482 335.711 90.117 C337.243 91.829 337.243 91.829 341.062 91.375 C338.449 85.845 334.903 80.858 331.562 75.75 C330.873 74.688 330.183 73.626 329.473 72.531 C328.481 71.011 328.481 71.011 327.469 69.461 C326.864 68.533 326.258 67.606 325.635 66.65 C324.12 64.313 324.12 64.313 322.062 62.375 C318.158 61.941 315.943 61.749 312.688 64.062 Z M127.062 90.375 C126.403 91.035 125.743 91.695 125.062 92.375 C125.209 95.815 125.478 97.728 127.812 100.312 C130.651 101.653 132.113 101.276 135.062 100.375 C133.412 98.725 131.762 97.075 130.062 95.375 C131.111 92.753 131.712 91.581 134.188 90.125 C134.806 89.877 135.425 89.63 136.062 89.375 C136.062 88.385 136.062 87.395 136.062 86.375 C132.032 86.375 130.279 88.048 127.062 90.375 Z M281.062 89.375 C281.02 91.041 281.022 92.709 281.062 94.375 C282.14 95.686 282.14 95.686 284.723 95.402 C285.845 95.373 286.968 95.343 288.125 95.312 C293.542 95.277 297.952 95.577 303.062 97.375 C304.062 98.375 305.062 99.375 306.062 100.375 C308.717 100.145 308.717 100.145 311.062 99.375 C310.856 95.754 310.129 94.447 307.625 91.75 C299.416 85.48 290.053 85.06 281.062 89.375 Z M138.062 87.375 C138.062 88.365 138.062 89.355 138.062 90.375 C139.382 90.375 140.702 90.375 142.062 90.375 C141.732 89.385 141.403 88.395 141.062 87.375 C140.072 87.375 139.083 87.375 138.062 87.375 Z M118.062 90.375 C117.732 92.025 117.403 93.675 117.062 95.375 C118.713 95.045 120.363 94.715 122.062 94.375 C122.062 93.715 122.062 93.055 122.062 92.375 C120.743 91.715 119.423 91.055 118.062 90.375 Z M133.062 92.375 C133.062 93.695 133.062 95.015 133.062 96.375 C133.722 96.045 134.382 95.715 135.062 95.375 C134.732 94.385 134.403 93.395 134.062 92.375 C133.732 92.375 133.403 92.375 133.062 92.375 Z M140.062 93.375 C140.062 94.695 140.062 96.015 140.062 97.375 C140.722 97.375 141.382 97.375 142.062 97.375 C141.732 96.055 141.403 94.735 141.062 93.375 C140.732 93.375 140.403 93.375 140.062 93.375 Z M329.062 98.375 C329.062 99.035 329.062 99.695 329.062 100.375 C330.408 100.487 330.408 100.487 331.781 100.602 C340.808 101.553 348.499 103.707 356.895 107.133 C359.806 108.497 359.806 108.497 362.062 108.375 C362.39 105.189 362.284 103.719 360.523 100.988 C355.313 95.052 355.313 95.052 348.062 92.375 C340.792 92.375 334.742 93.715 329.062 98.375 Z M323.188 105.75 C320.785 110.388 319.335 115.325 318.062 120.375 C321.968 121.562 325.952 121.786 330 122.062 C330.703 122.122 331.406 122.182 332.131 122.244 C336.269 122.527 339.426 122.478 343.062 120.375 C343.956 117.827 343.956 117.827 344.062 115.375 C343.072 115.375 342.082 115.375 341.062 115.375 C341.062 116.695 341.062 118.015 341.062 119.375 C338.062 118.375 338.062 118.375 336.914 116.176 C336.024 113.249 335.658 110.61 335.438 107.562 C335.363 106.587 335.288 105.611 335.211 104.605 C335.162 103.869 335.113 103.133 335.062 102.375 C329.987 101.579 326.211 101.117 323.188 105.75 Z M338.062 103.375 C337.218 106.753 336.954 109.05 338.062 112.375 C341.033 112.87 341.033 112.87 344.062 113.375 C345.674 119.088 344.152 123.062 342.062 128.375 C348.115 134.03 348.115 134.03 355.688 136.562 C358.516 135.148 358.671 134.495 359.75 131.625 C360.197 130.211 360.635 128.795 361.062 127.375 C361.723 125.706 362.387 124.038 363.062 122.375 C362.072 122.045 361.082 121.715 360.062 121.375 C360.578 120.797 361.094 120.22 361.625 119.625 C363.236 117.548 363.236 117.548 363.062 115.438 C360.94 111.06 357.831 108.71 353.434 106.793 C352.127 106.367 350.816 105.957 349.5 105.562 C348.841 105.347 348.181 105.131 347.502 104.908 C344.163 103.851 341.601 103.375 338.062 103.375 Z M256.062 104.375 C256.392 106.355 256.723 108.335 257.062 110.375 C256.402 110.375 255.743 110.375 255.062 110.375 C255.062 111.365 255.062 112.355 255.062 113.375 C254.402 114.035 253.743 114.695 253.062 115.375 C254.053 115.705 255.043 116.035 256.062 116.375 C256.062 117.035 256.062 117.695 256.062 118.375 C255.402 118.375 254.743 118.375 254.062 118.375 C254.062 119.035 254.062 119.695 254.062 120.375 C255.52 120.429 256.979 120.468 258.438 120.5 C259.25 120.523 260.062 120.546 260.898 120.57 C263.276 120.589 263.276 120.589 265.062 118.375 C265.647 115.503 265.647 115.503 265.062 112.375 C262.41 109.207 259.434 106.748 256.062 104.375 Z M364.062 107.375 C364.062 108.695 364.062 110.015 364.062 111.375 C364.723 111.375 365.382 111.375 366.062 111.375 C366.062 110.055 366.062 108.735 366.062 107.375 C365.402 107.375 364.743 107.375 364.062 107.375 Z M194.562 116.688 C186.69 120.78 178.543 124.953 169.438 124.562 C168.6 124.535 167.762 124.508 166.898 124.48 C166.293 124.446 165.687 124.411 165.062 124.375 C164.051 127.424 164.051 127.424 165.062 130.375 C165.521 134.184 165.518 135.788 163.129 138.867 C162.303 139.654 161.476 140.44 160.625 141.25 C156.602 145.375 156.602 145.375 154.812 150.688 C155.079 154.614 155.523 156.398 158.062 159.375 C159.376 160.079 160.708 160.752 162.062 161.375 C168.922 153.882 168.922 153.882 175.625 146.25 C186.328 134.064 200.631 120.01 217.062 116.375 C216.567 114.89 216.567 114.89 216.062 113.375 C208.832 109.76 201.078 113.203 194.562 116.688 Z M267.062 114.375 C267.062 115.035 267.062 115.695 267.062 116.375 C267.723 116.375 268.382 116.375 269.062 116.375 C269.062 115.715 269.062 115.055 269.062 114.375 C268.402 114.375 267.743 114.375 267.062 114.375 Z M272.062 114.375 C269.575 116.862 269.456 118.401 268.773 121.828 C268.554 122.923 268.335 124.017 268.109 125.145 C267.888 126.293 267.666 127.442 267.438 128.625 C267.208 129.758 266.979 130.891 266.742 132.059 C265.233 139.654 265.233 139.654 265.062 147.375 C274.278 156.945 295.784 161.779 308.344 162.586 C310.943 162.619 313.476 162.636 316.062 162.375 C317.301 161.37 317.301 161.37 317.084 159.334 C317.037 158.459 316.99 157.585 316.941 156.684 C316.893 155.739 316.845 154.795 316.795 153.822 C316.711 152.332 316.711 152.332 316.625 150.812 C316.547 149.317 316.547 149.317 316.467 147.791 C316.337 145.319 316.202 142.847 316.062 140.375 C312.862 139.038 309.73 137.99 306.375 137.125 C297.014 134.308 289.933 128.698 282.704 122.334 C279.315 119.358 275.867 116.801 272.062 114.375 Z M180.25 142.875 C170.402 151.702 170.402 151.702 165.062 162.375 C176.655 164.356 186.365 158.99 196.666 154.315 C200.735 152.719 204.529 152.248 208.875 152.312 C210.06 152.326 210.06 152.326 211.27 152.34 C212.157 152.357 212.157 152.357 213.062 152.375 C212.956 156.726 211.928 158.825 208.875 161.75 C208.25 162.329 207.625 162.908 206.98 163.504 C202.873 167.511 198.371 172.471 197.75 178.312 C197.768 181.383 197.768 181.383 199.625 183.188 C205.405 186.003 211.171 185.586 217.328 184.387 C222.036 182.645 224.956 179.203 228.062 175.375 C227.567 175.994 227.072 176.613 226.562 177.25 C224.87 179.214 224.87 179.214 225.062 181.375 C229.983 180.339 234.817 179.175 239.656 177.802 C253.668 173.873 253.668 173.873 260.312 176.812 C261.674 177.586 261.674 177.586 263.062 178.375 C265.219 179.034 266.816 179.375 269.062 179.375 C268.072 179.87 268.072 179.87 267.062 180.375 C267.167 181.518 267.167 181.518 267.273 182.684 C267.634 189.566 267.073 193.874 262.859 199.402 C260.575 201.91 258.161 204.107 255.48 206.184 C253.403 207.929 253.088 209.15 252.789 211.836 C252.756 212.798 252.722 213.759 252.688 214.75 C252.614 216.185 252.614 216.185 252.539 217.648 C252.837 220.528 252.837 220.528 255.117 222.531 C258.469 224.629 261.864 226.149 265.562 227.5 C266.262 227.762 266.961 228.023 267.681 228.292 C273.156 230.252 278.485 231.266 284.293 231.758 C288.326 232.657 290.918 234.848 293.375 238.125 C294.473 241.717 294.901 244.727 294.062 248.375 C292.945 250.272 291.75 252.125 290.5 253.938 C287.573 258.209 287.573 258.209 286.812 263.312 C288.332 267.036 289.696 268.211 293.062 270.375 C296.377 270.893 296.377 270.893 299.812 270.688 C300.962 270.663 302.112 270.639 303.297 270.613 C305.97 270.682 305.97 270.682 307.062 269.375 C308.298 262.068 308.186 254.635 308.125 247.25 C308.118 245.672 308.118 245.672 308.111 244.062 C308.1 241.5 308.083 238.938 308.062 236.375 C307.243 236 306.423 235.625 305.578 235.238 C304.5 234.727 303.423 234.215 302.312 233.688 C300.711 232.939 300.711 232.939 299.078 232.176 C294.287 229.315 291.67 225.692 290.062 220.375 C288.985 212.004 290.272 204.748 292.562 196.75 C294.96 188.351 297.211 180.298 293.562 171.938 C287.029 165.241 279.701 162.376 270.375 162 C265.877 162.056 262.388 162.794 258.188 164.375 C250.709 167.14 242.312 168.16 234.816 165.012 C229.008 161.56 226.667 157.194 224.68 150.983 C223.348 145.357 223.588 139.566 223.535 133.814 C223.396 127.648 222.586 123.02 220.062 117.375 C205.593 117.375 189.865 133.359 180.25 142.875 Z M365.062 117.375 C364.417 119.554 364.057 121.28 364.188 123.562 C364.062 126.395 363.47 128.021 362.438 130.625 C360.621 135.651 361.427 139.398 363.062 144.375 C364.053 144.375 365.043 144.375 366.062 144.375 C366.713 143.128 367.358 141.877 368 140.625 C368.36 139.929 368.719 139.233 369.09 138.516 C371.336 133.572 371.981 128.424 370.391 123.145 C369.662 121.203 368.867 119.286 368.062 117.375 C367.072 117.375 366.082 117.375 365.062 117.375 Z M319.688 124.125 C317.597 127.019 317.745 128.884 318.062 132.375 C317.072 132.045 316.082 131.715 315.062 131.375 C314.402 132.695 313.743 134.015 313.062 135.375 C316.929 137.308 319.93 137.506 324.141 137.371 C326.062 137.375 326.062 137.375 328.812 138 C331.075 138.531 331.075 138.531 333.312 137.812 C335.32 136.429 335.32 136.429 335.938 133.625 C336.075 130.061 335.392 127.66 334.062 124.375 C332.152 123.93 330.234 123.52 328.312 123.125 C327.245 122.893 326.178 122.661 325.078 122.422 C321.976 122.069 321.976 122.069 319.688 124.125 Z M339.062 129.375 C338.733 131.355 338.402 133.335 338.062 135.375 C342.489 136.82 342.489 136.82 347.062 137.375 C345.56 133.169 342.777 131.636 339.062 129.375 Z M318.062 139.375 C315.91 156.912 324.37 175.895 334.438 189.812 C344.47 202.323 356.225 212.055 371.062 218.375 C372.382 218.375 373.702 218.375 375.062 218.375 C374.947 216.957 374.82 215.541 374.688 214.125 C374.583 212.942 374.583 212.942 374.477 211.734 C373.762 207.665 372.158 205.161 368.98 202.57 C368.378 202.069 367.775 201.567 367.154 201.051 C366.212 200.283 366.212 200.283 365.25 199.5 C360.665 195.753 356.722 192.045 353.062 187.375 C354.229 188.396 355.396 189.417 356.562 190.438 C357.29 191.068 358.017 191.698 358.766 192.348 C360.279 193.683 361.769 195.045 363.234 196.434 C363.92 197.074 364.606 197.715 365.312 198.375 C365.936 198.973 366.56 199.571 367.203 200.188 C369.015 201.628 369.015 201.628 371.297 201.062 C371.88 200.836 372.462 200.609 373.062 200.375 C372.814 196.649 372.612 194.892 369.84 192.285 C368.434 191.371 368.434 191.371 367 190.438 C359.719 185.474 353.547 180.214 347.855 173.48 C345.917 171.204 343.898 169.014 341.875 166.812 C338.653 163.189 336.125 159.769 334.062 155.375 C334.392 154.715 334.723 154.055 335.062 153.375 C334.035 150.945 332.956 148.651 331.75 146.312 C331.268 145.337 331.268 145.337 330.775 144.342 C329.108 140.725 329.108 140.725 326.062 138.375 C321.748 137.836 321.748 137.836 318.062 139.375 Z M353.75 138.375 C350.056 139.256 347.771 139.302 344.062 138.375 C339.839 138.165 336.097 138.03 332.062 139.375 C332.618 149.937 341.14 158.179 348.062 165.375 C348.855 166.219 349.648 167.064 350.465 167.934 C354.236 171.856 356.94 174.448 362.062 176.375 C366.434 179.417 369.512 182.677 372.062 187.375 C374.63 188.659 376.509 188.508 379.375 188.5 C380.32 188.503 381.265 188.505 382.238 188.508 C384.948 188.38 387.422 187.981 390.062 187.375 C388.369 181.535 385.667 176.282 382.938 170.875 C382.45 169.905 381.963 168.935 381.462 167.935 C377.579 160.261 373.463 152.764 369.062 145.375 C368.403 145.375 367.743 145.375 367.062 145.375 C364.734 148.868 364.827 150.235 364.867 154.355 C364.877 156.101 364.877 156.101 364.887 157.881 C364.903 159.096 364.92 160.311 364.938 161.562 C364.947 162.789 364.956 164.016 364.965 165.279 C364.988 168.311 365.021 171.343 365.062 174.375 C364.403 174.375 363.743 174.375 363.062 174.375 C363.078 173.746 363.094 173.118 363.11 172.47 C363.858 155.133 363.858 155.133 360.062 138.375 C357.464 137.076 356.514 137.632 353.75 138.375 Z M371.062 140.375 C369.887 143.901 370.52 144.874 372.108 148.083 C372.428 148.704 372.748 149.325 373.078 149.965 C373.569 150.944 373.569 150.944 374.07 151.943 C375.14 154.071 376.226 156.192 377.312 158.312 C378.048 159.765 378.783 161.217 379.518 162.67 C385.12 173.708 390.954 184.608 397.062 195.375 C398.382 195.375 399.702 195.375 401.062 195.375 C400.472 191.619 399.403 188.773 397.578 185.445 C397.061 184.496 396.544 183.546 396.011 182.567 C395.451 181.555 394.89 180.543 394.312 179.5 C393.738 178.452 393.163 177.405 392.571 176.325 C390.743 173.004 388.904 169.689 387.062 166.375 C386.456 165.278 385.849 164.181 385.224 163.051 C383.469 159.884 381.705 156.722 379.938 153.562 C379.394 152.585 378.85 151.607 378.29 150.6 C377.779 149.694 377.268 148.789 376.742 147.855 C376.296 147.06 375.85 146.265 375.39 145.446 C374.118 143.461 372.796 141.962 371.062 140.375 Z M344.062 165.375 C346.35 170.599 350.452 174.093 354.438 178.062 C355.206 178.847 355.974 179.631 356.766 180.439 C357.511 181.185 358.256 181.931 359.023 182.699 C359.702 183.381 360.38 184.062 361.08 184.764 C363.129 186.429 364.482 186.976 367.062 187.375 C367.392 186.055 367.723 184.735 368.062 183.375 C367.589 183.095 367.116 182.816 366.629 182.527 C358.478 177.586 351.233 171.63 344.062 165.375 Z M318.062 167.375 C312.808 215.211 312.808 215.211 309.125 263.188 C309.066 264.185 309.006 265.183 308.945 266.211 C308.233 278.285 308.233 278.285 308.062 290.375 C309.011 290.643 309.96 290.911 310.938 291.188 C312.313 291.583 313.688 291.979 315.062 292.375 C316.221 292.702 316.221 292.702 317.402 293.035 C321.837 294.317 326.023 295.762 330.25 297.625 C334.595 299.416 337.426 299.557 342.062 298.375 C347.763 296.934 353.647 297.067 359.494 296.945 C365.3 296.735 369.727 295.693 375.062 293.375 C375.232 282.245 374.784 271.146 374.318 260.028 C374.188 256.882 374.068 253.736 373.949 250.59 C373.721 244.847 373.424 239.111 373.062 233.375 C372.999 232.28 372.999 232.28 372.934 231.164 C372.644 224.465 372.644 224.465 369.627 218.728 C367.742 217.443 365.928 216.6 363.812 215.75 C362.356 215.051 360.904 214.341 359.457 213.621 C358.723 213.263 357.989 212.904 357.233 212.535 C338.955 202.769 328.692 185.517 320.062 167.375 C319.402 167.375 318.743 167.375 318.062 167.375 Z M369.062 187.375 C369.475 190.26 369.92 191.245 372.125 193.25 C374.062 195.375 374.062 195.375 374.375 198.438 C374.062 201.375 374.062 201.375 373.062 204.375 C373.723 205.035 374.382 205.695 375.062 206.375 C375.095 208.363 375.12 210.353 375.059 212.34 C374.991 214.534 374.991 214.534 375.688 217.25 C375.811 217.951 375.935 218.653 376.062 219.375 C375.402 220.035 374.743 220.695 374.062 221.375 C373.972 223.712 373.972 223.712 374.305 226.383 C374.401 227.369 374.498 228.355 374.598 229.371 C374.71 230.404 374.822 231.436 374.938 232.5 C375.042 233.54 375.146 234.581 375.254 235.652 C375.514 238.228 375.784 240.802 376.062 243.375 C377.053 243.375 378.043 243.375 379.062 243.375 C378.975 242.033 378.975 242.033 378.887 240.664 C378.566 232.057 379.419 226.589 384.062 219.375 C384.609 218.515 384.609 218.515 385.167 217.637 C386.769 215.115 388.375 212.597 390.027 210.107 C392.795 205.928 394.208 202.887 394.25 197.875 C394.271 196.715 394.271 196.715 394.293 195.531 C394.199 193.078 394.199 193.078 392.062 190.375 C389.071 190.041 386.247 189.862 383.25 189.812 C373.471 189.602 373.471 189.602 369.062 187.375 Z M298.062 289.375 C298.392 290.035 298.723 290.695 299.062 291.375 C301.384 291.782 303.719 292.119 306.062 292.375 C306.062 290.395 306.062 288.415 306.062 286.375 C302.487 286.375 301.01 287.463 298.062 289.375 Z M316.062 294.375 C314.759 295.476 314.759 295.476 314.688 298.188 C314.754 301.54 314.754 301.54 317.375 303.75 C319.967 305.634 319.967 305.634 323.062 305.375 C323.392 302.735 323.723 300.095 324.062 297.375 C320.258 295.174 320.258 295.174 316.062 294.375 Z M302.062 301.375 C302.392 302.035 302.723 302.695 303.062 303.375 C306.163 303.7 306.163 303.7 308.25 301.5 C310.279 299.587 310.279 299.587 310.062 297.375 C306.781 297.375 304.684 299.552 302.062 301.375 Z M357.062 299.375 C356.733 300.035 356.402 300.695 356.062 301.375 C357.097 304.644 357.097 304.644 359.062 307.375 C361.562 307.542 361.562 307.542 364.062 307.375 C365.478 306.191 365.478 306.191 365.125 302.812 C365.104 301.678 365.084 300.544 365.062 299.375 C362.423 299.375 359.783 299.375 357.062 299.375 Z M309.062 301.375 C308.402 302.035 307.743 302.695 307.062 303.375 C307.062 304.695 307.062 306.015 307.062 307.375 C308.382 307.045 309.702 306.715 311.062 306.375 C311.392 304.725 311.723 303.075 312.062 301.375 C311.072 301.375 310.082 301.375 309.062 301.375 Z M346.062 305.375 C348.954 306.708 348.954 306.708 351.25 305.438 C351.848 305.087 352.446 304.736 353.062 304.375 C353.062 303.715 353.062 303.055 353.062 302.375 C350.167 302.375 348.466 303.857 346.062 305.375 Z M312.062 306.375 C311.402 307.695 310.743 309.015 310.062 310.375 C314.381 314.793 314.381 314.793 320 316.75 C320.681 316.626 321.361 316.502 322.062 316.375 C322.723 315.055 323.382 313.735 324.062 312.375 C322.949 311.725 322.949 311.725 321.812 311.062 C319.062 309.375 319.062 309.375 316.938 307.688 C315.034 306.088 315.034 306.088 312.062 306.375 Z M345.062 306.375 C345.062 307.695 345.062 309.015 345.062 310.375 C345.392 309.055 345.723 307.735 346.062 306.375 C345.733 306.375 345.402 306.375 345.062 306.375 Z M348.312 308.875 C347.57 309.7 346.827 310.525 346.062 311.375 C346.723 312.035 347.382 312.695 348.062 313.375 C350.928 313.19 351.875 312.583 353.812 310.438 C355.235 308.492 355.235 308.492 355.062 306.375 C350.936 305.927 350.936 305.927 348.312 308.875 Z M355.062 310.375 C354.072 311.86 354.072 311.86 353.062 313.375 C354.801 314.436 356.554 315.473 358.312 316.5 C359.774 317.37 359.774 317.37 361.266 318.258 C363.975 319.694 363.975 319.694 366.422 318.555 C366.963 318.165 367.505 317.776 368.062 317.375 C367.683 314.084 367.683 314.084 366.062 311.375 C364.214 311.141 362.358 310.962 360.5 310.812 C359.488 310.729 358.476 310.645 357.434 310.559 C356.26 310.468 356.26 310.468 355.062 310.375 Z M148.062 315.375 C148.56 318.131 148.56 318.131 150.062 320.375 C152.521 320.625 152.521 320.625 155.062 320.375 C155.722 319.715 156.382 319.055 157.062 318.375 C156.742 315.772 156.742 315.772 156.062 313.375 C152.347 313.174 151.29 313.223 148.062 315.375 Z M313.062 316.375 C314.053 317.86 314.053 317.86 315.062 319.375 C315.723 319.375 316.382 319.375 317.062 319.375 C317.062 318.715 317.062 318.055 317.062 317.375 C315.743 317.045 314.423 316.715 313.062 316.375 Z M239.062 329.375 C237.454 332.008 236.085 334.719 234.75 337.5 C234.391 338.215 234.032 338.931 233.662 339.668 C231.612 343.826 231.612 343.826 231.062 348.375 C231.617 348.491 232.172 348.607 232.743 348.726 C235.266 349.254 237.789 349.783 240.312 350.312 C241.185 350.495 242.058 350.677 242.957 350.865 C243.801 351.042 244.646 351.22 245.516 351.402 C246.291 351.565 247.066 351.727 247.864 351.894 C250.062 352.375 250.062 352.375 252.159 353.123 C254.121 353.596 254.121 353.596 255.698 352.284 C257.418 349.878 258.088 347.68 258.887 344.832 C259.193 343.759 259.499 342.686 259.814 341.58 C260.123 340.461 260.432 339.341 260.75 338.188 C261.07 337.056 261.391 335.925 261.721 334.76 C262.51 331.967 263.29 329.172 264.062 326.375 C259.421 324.912 255.345 324.037 250.438 323.938 C249.352 323.898 248.267 323.858 247.148 323.816 C242.948 324.577 241.705 326.053 239.062 329.375 Z M149.062 328.375 C149.062 329.365 149.062 330.355 149.062 331.375 C149.722 331.375 150.382 331.375 151.062 331.375 C151.062 330.385 151.062 329.395 151.062 328.375 C150.403 328.375 149.743 328.375 149.062 328.375 Z " fill="#333" transform="translate(89.9375,-0.375)"/>
    <path d="M0 0 C3.062 0.188 3.062 0.188 5.062 2.188 C4.733 5.485 4.44 6.81 2.062 9.188 C-1.235 8.858 -2.56 8.565 -4.938 6.188 C-4.216 0.269 -4.216 0.269 0 0 Z M-1.938 2.188 C-1.938 3.508 -1.938 4.828 -1.938 6.188 C0.042 6.683 0.042 6.683 2.062 7.188 C2.393 5.867 2.722 4.547 3.062 3.188 C1.412 2.857 -0.238 2.527 -1.938 2.188 Z " fill="#333" transform="translate(173.9375,2.8125)"/>
    <path d="M0 0 C2.625 0.375 2.625 0.375 5 1 C5.625 2.875 5.625 2.875 6 5 C4 7 4 7 1.375 7.125 C0.591 7.084 -0.192 7.043 -1 7 C-1.625 4.625 -1.625 4.625 -2 2 C-1.34 1.34 -0.68 0.68 0 0 Z M1 2 C1 2.99 1 3.98 1 5 C1.66 5 2.32 5 3 5 C3 4.01 3 3.02 3 2 C2.34 2 1.68 2 1 2 Z " fill="#333" transform="translate(252,28)"/>
    <path d="M0 0 C3.297 0.33 4.623 0.623 7 3 C6.633 5.935 6.136 6.864 4 9 C1.438 9.188 1.438 9.188 -1 9 C-2 8 -2 8 -2.188 5.062 C-2 2 -2 2 0 0 Z M2 2 C1.34 3.32 0.68 4.64 0 6 C1.32 6 2.64 6 4 6 C4 4.68 4 3.36 4 2 C3.34 2 2.68 2 2 2 Z " fill="#333" transform="translate(319,37)"/>
    <path d="M0 0 C0.66 0.66 1.32 1.32 2 2 C1.546 8.131 1.546 8.131 -0.082 10.723 C-1.691 14.714 -0.666 19.051 -0.189 23.244 C0.299 28.553 0.299 28.553 -1.316 30.973 C-3.71 32.433 -5.249 32.413 -8 32 C-9.812 30.5 -9.812 30.5 -11 29 C-10.649 28.113 -10.299 27.226 -9.938 26.312 C-8.741 22.086 -9.151 19.579 -11.227 15.719 C-12.16 14.237 -13.098 12.758 -14.039 11.281 C-15.26 8.384 -14.984 6.953 -14 4 C-9.275 -1.471 -6.772 -2.738 0 0 Z M-10.375 2.062 C-12.281 4.006 -12.281 4.006 -12.562 7.25 C-11.929 11.477 -10.684 13.067 -8.117 16.309 C-5.874 19.705 -6.841 23.088 -7.5 26.875 C-7.665 27.576 -7.83 28.278 -8 29 C-6.35 28.67 -4.7 28.34 -3 28 C-1.865 24.596 -2.22 23.768 -3.188 20.438 C-4.397 15.11 -3.23 11.986 -0.75 7.227 C0.27 4.979 0.27 4.979 -0.875 2.711 C-1.246 2.146 -1.618 1.582 -2 1 C-5.181 0.783 -7.44 0.749 -10.375 2.062 Z " fill="#333" transform="translate(340,41)"/>
    <path d="M0 0 C0 0.66 0 1.32 0 2 C-1.297 2.889 -2.641 3.71 -4 4.5 C-11.062 9.056 -15.483 15.562 -19.938 22.562 C-26.608 32.648 -34.819 38.669 -46 43 C-47.32 43 -48.64 43 -50 43 C-50 42.34 -50 41.68 -50 41 C-49.25 40.732 -48.5 40.464 -47.727 40.188 C-34.458 35.107 -27.039 27.521 -19 16 C-7.781 0 -7.781 0 0 0 Z " fill="#333" transform="translate(50,50)"/>
    <path d="M0 0 C1.98 0.495 1.98 0.495 4 1 C3.67 2.32 3.34 3.64 3 5 C1.68 4.67 0.36 4.34 -1 4 C-0.67 2.68 -0.34 1.36 0 0 Z " fill="#333" transform="translate(251,84)"/>
    <path d="M0 0 C1.732 0.155 1.732 0.155 3.5 0.312 C5.5 3.312 5.5 3.312 5.312 5.812 C4.428 8.534 3.91 9.763 1.5 11.312 C-1.842 11.068 -3.105 10.707 -5.5 8.312 C-5.75 5.312 -5.75 5.312 -5.5 2.312 C-3.5 0.312 -3.5 0.312 0 0 Z M-2.5 2.312 C-3.181 4.204 -3.181 4.204 -3.5 6.312 C-2.84 6.972 -2.18 7.632 -1.5 8.312 C0.608 7.994 0.608 7.994 2.5 7.312 C3.091 5.366 3.091 5.366 3.5 3.312 C2.434 2.016 2.434 2.016 -0.062 2.25 C-0.867 2.271 -1.671 2.291 -2.5 2.312 Z " fill="#333" transform="translate(157.5,90.6875)"/>
    <path d="M0 0 C3.953 2.794 5.453 5.193 6.566 9.883 C6.608 10.976 6.649 12.069 6.691 13.195 C6.031 13.855 5.371 14.515 4.691 15.195 C3.351 14.893 2.019 14.551 0.691 14.195 C-1.58 14.201 -3.851 14.247 -6.121 14.32 C-11.755 14.367 -15.464 14.058 -20.309 11.195 C-20.969 10.535 -21.629 9.875 -22.309 9.195 C-22.309 8.205 -22.309 7.215 -22.309 6.195 C-21.649 6.195 -20.989 6.195 -20.309 6.195 C-19.772 6.853 -19.236 7.51 -18.684 8.188 C-15.37 10.989 -12.421 10.566 -8.309 10.32 C0.276 9.9 0.276 9.9 3.691 12.195 C3.276 7.347 1.317 5.315 -2.309 2.195 C-5.578 0.156 -8.109 -0.049 -11.934 0.008 C-12.895 0.014 -13.857 0.021 -14.848 0.027 C-17.313 0.037 -17.313 0.037 -19.309 1.195 C-19.639 2.185 -19.969 3.175 -20.309 4.195 C-20.969 4.195 -21.629 4.195 -22.309 4.195 C-22.121 1.82 -22.121 1.82 -21.309 -0.805 C-15.11 -5.004 -6.132 -3.543 0 0 Z " fill="#333" transform="translate(26.30859375,131.8046875)"/>
    <path d="M0 0 C2.938 0.875 2.938 0.875 4.938 3.875 C4.778 7.06 4.356 8.442 2.125 10.75 C-0.062 11.875 -0.062 11.875 -2.188 11.688 C-4.062 10.875 -4.062 10.875 -6.062 8.875 C-6.396 5.745 -6.539 3.696 -4.938 0.938 C-3.062 -0.125 -3.062 -0.125 0 0 Z M-2.062 1.875 C-2.723 2.535 -3.382 3.195 -4.062 3.875 C-3.742 6.478 -3.742 6.478 -3.062 8.875 C-1.413 8.545 0.238 8.215 1.938 7.875 C1.608 6.225 1.277 4.575 0.938 2.875 C-0.053 2.545 -1.043 2.215 -2.062 1.875 Z " fill="#333" transform="translate(336.0625,138.125)"/>
    <path d="M0 0 C1.32 0.66 2.64 1.32 4 2 C4 2.66 4 3.32 4 4 C3.01 4.33 2.02 4.66 1 5 C0.34 4.67 -0.32 4.34 -1 4 C-0.67 2.68 -0.34 1.36 0 0 Z " fill="#333" transform="translate(35,143)"/>
    <path d="M0 0 C0.66 0 1.32 0 2 0 C2.208 0.92 2.415 1.841 2.629 2.789 C5.611 15.043 10.125 25.977 18 36 C17.67 36.66 17.34 37.32 17 38 C8.049 27.716 0 14.03 0 0 Z " fill="#333" transform="translate(414,143)"/>
    <path d="M0 0 C-0.33 0.66 -0.66 1.32 -1 2 C-3.801 2.484 -3.801 2.484 -7.312 2.75 C-8.464 2.848 -9.615 2.946 -10.801 3.047 C-13.92 3.001 -15.417 2.658 -18 1 C-17 -1 -17 -1 -14.375 -2.188 C-9.154 -3.444 -4.617 -2.77 0 0 Z M-12 -1 C-12 -0.34 -12 0.32 -12 1 C-11.34 1 -10.68 1 -10 1 C-10 0.34 -10 -0.32 -10 -1 C-10.66 -1 -11.32 -1 -12 -1 Z " fill="#333" transform="translate(113,148)"/>
    <path d="M0 0 C1.32 0.66 2.64 1.32 4 2 C3.67 3.32 3.34 4.64 3 6 C1.35 6.33 -0.3 6.66 -2 7 C-2.33 5.35 -2.66 3.7 -3 2 C-2.01 1.34 -1.02 0.68 0 0 Z M0 2 C0 2.99 0 3.98 0 5 C0.66 4.34 1.32 3.68 2 3 C1.34 2.67 0.68 2.34 0 2 Z " fill="#333" transform="translate(347,149)"/>
    <path d="M0 0 C0.66 0.33 1.32 0.66 2 1 C1.526 1.722 1.051 2.444 0.562 3.188 C-4.918 13.052 -1.378 25.655 0.666 36.078 C2.068 43.75 2.785 50.965 -0.438 58.25 C-4.045 62.122 -8.263 64.673 -13 67 C-13.66 67 -14.32 67 -15 67 C-14.652 64.176 -14.267 63.213 -12.004 61.402 C-11.198 60.919 -10.393 60.436 -9.562 59.938 C-6.44 58.048 -5.07 57.106 -3 54 C-2.802 51.433 -2.717 49.002 -2.75 46.438 C-2.754 45.711 -2.758 44.984 -2.762 44.235 C-2.823 40.44 -3.071 36.947 -4 33.25 C-5.224 28.107 -5.263 23.011 -5.312 17.75 C-5.33 16.885 -5.347 16.021 -5.365 15.13 C-5.36 9.005 -4.506 4.506 0 0 Z " fill="#333" transform="translate(15,151)"/>
    <path d="M0 0 C1.328 3.985 0.232 5.4 -1.438 9.188 C-1.911 10.274 -2.384 11.361 -2.871 12.48 C-3.43 13.728 -3.43 13.728 -4 15 C-4.66 15 -5.32 15 -6 15 C-3.109 4.442 -3.109 4.442 0 0 Z " fill="#333" transform="translate(233,153)"/>
    <path d="M0 0 C3.438 1.562 3.438 1.562 6 3 C6 3.99 6 4.98 6 6 C0.06 6 -5.88 6 -12 6 C-12 4.68 -12 3.36 -12 2 C-7.987 -1.526 -5.022 -1.234 0 0 Z M-7 1 C-7.66 1.66 -8.32 2.32 -9 3 C-8.017 4.206 -8.017 4.206 -6.152 4.098 C-4.102 4.065 -2.051 4.033 0 4 C0 3.34 0 2.68 0 2 C-3.403 1.323 -3.403 1.323 -7 1 Z " fill="#333" transform="translate(85,159)"/>
    <path d="M0 0 C2.64 0 5.28 0 8 0 C8 0.66 8 1.32 8 2 C5.36 2 2.72 2 0 2 C0 1.34 0 0.68 0 0 Z " fill="#333" transform="translate(141,174)"/>
    <path d="M0 0 C1.361 4.082 0.115 5.458 -1.688 9.312 C-6.122 19.158 -9.254 29.183 -10 40 C-10.66 40 -11.32 40 -12 40 C-13.288 25.837 -6.662 12.114 0 0 Z " fill="#333" transform="translate(321,193)"/>
    <path d="M0 0 C0.66 0 1.32 0 2 0 C5.823 7.647 2.704 18.899 0.289 26.578 C-1.73 31.938 -4.244 36.985 -7 42 C-7.99 42 -8.98 42 -10 42 C-9.529 41.056 -9.059 40.113 -8.574 39.141 C-2.108 25.927 0.543 14.715 0 0 Z " fill="#333" transform="translate(428,203)"/>
    <path d="M0 0 C1.875 0.875 1.875 0.875 3.875 3.875 C3.688 6.438 3.688 6.438 2.875 8.875 C-0.125 10.875 -0.125 10.875 -2.75 10.562 C-5.125 9.875 -5.125 9.875 -6.125 8.875 C-6.438 6 -6.438 6 -6.125 2.875 C-4.085 0.616 -3.07 -0.181 0 0 Z M-2.125 1.875 C-2.785 2.535 -3.445 3.195 -4.125 3.875 C-3.805 6.478 -3.805 6.478 -3.125 8.875 C-1.805 8.545 -0.485 8.215 0.875 7.875 C1.205 6.555 1.535 5.235 1.875 3.875 C0.555 3.215 -0.765 2.555 -2.125 1.875 Z " fill="#333" transform="translate(490.125,206.125)"/>
    <path d="M0 0 C5.455 0.455 5.455 0.455 8 3 C7.812 5 7.812 5 7 7 C4 9 4 9 1.375 8.688 C-1 8 -1 8 -2 7 C-2.188 4.562 -2.188 4.562 -2 2 C-1.34 1.34 -0.68 0.68 0 0 Z M1 2 C0.67 3.32 0.34 4.64 0 6 C1.32 6.33 2.64 6.66 4 7 C4.66 6.01 5.32 5.02 6 4 C5.34 3.34 4.68 2.68 4 2 C3.01 2 2.02 2 1 2 Z " fill="#333" transform="translate(324,207)"/>
    <path d="M0 0 C3.257 0.562 5.038 1.29 7 4 C7.688 7.188 7.688 7.188 8 10 C4.894 10 3.647 9.461 1 8 C1 7.34 1 6.68 1 6 C1.99 6 2.98 6 4 6 C4.228 3.756 4.228 3.756 2 1.875 C1.34 1.256 0.68 0.637 0 0 Z " fill="#333" transform="translate(192,210)"/>
    <path d="M0 0 C2.519 2.112 2.94 3.799 3.875 6.938 C4.028 10.686 3.294 12.073 1 15 C-1.411 17.411 -2.655 17.951 -6.062 18.438 C-9 18 -9 18 -10.812 16.562 C-12.576 12.758 -13.351 9.201 -13 5 C-9.496 -0.538 -6.074 -0.882 0 0 Z M-10 5 C-10.469 9.379 -10.469 11.296 -8 15 C-4.93 15.392 -2.886 15.473 -0.125 14 C1.753 10.661 1.301 7.79 1 4 C-0.815 1.779 -0.815 1.779 -3.375 1.688 C-6.597 2.071 -7.86 2.543 -10 5 Z " fill="#333" transform="translate(137,216)"/>
    <path d="M0 0 C1.238 0.743 1.238 0.743 2.5 1.5 C2.17 2.16 1.84 2.82 1.5 3.5 C-1.14 3.5 -3.78 3.5 -6.5 3.5 C-6.5 2.84 -6.5 2.18 -6.5 1.5 C-7.49 1.995 -7.49 1.995 -8.5 2.5 C-10.5 2.54 -12.5 2.543 -14.5 2.5 C-14.5 1.51 -14.5 0.52 -14.5 -0.5 C-9.245 -2.252 -5.011 -2.148 0 0 Z " fill="#333" transform="translate(227.5,220.5)"/>
    <path d="M0 0 C0.99 0 1.98 0 3 0 C3.33 0.99 3.66 1.98 4 3 C3.67 3.66 3.34 4.32 3 5 C1.68 4.67 0.36 4.34 -1 4 C-0.67 2.68 -0.34 1.36 0 0 Z " fill="#333" transform="translate(480,220)"/>
    <path d="M0 0 C0.66 0 1.32 0 2 0 C3.298 15.493 -3.066 31.844 -12.938 43.812 C-13.618 44.534 -14.299 45.256 -15 46 C-15.33 45.34 -15.66 44.68 -16 44 C-14.857 41.805 -13.665 39.731 -12.375 37.625 C-5.237 25.559 -1.09 14.001 0 0 Z " fill="#333" transform="translate(437,230)"/>
    <path d="M0 0 C2.438 1.562 2.438 1.562 4 4 C4.704 8.226 4.408 10.977 1.938 14.438 C-1 17 -1 17 -4.562 17.625 C-8 17 -8 17 -10.375 15.438 C-12.552 12.172 -13 9.92 -13 6 C-9.412 0.309 -6.628 -0.571 0 0 Z M-10 5 C-10.521 9.683 -10.521 9.683 -8.812 13.938 C-6.264 15.432 -4.906 15.567 -2 15 C0.954 12.286 1.926 10.768 2.312 6.75 C2.3 4.092 2.3 4.092 1 3 C-4.876 2.537 -4.876 2.537 -10 5 Z " fill="#333" transform="translate(339,234)"/>
    <path d="M0 0 C2.062 0.438 2.062 0.438 4 1 C3.67 2.65 3.34 4.3 3 6 C1.68 5.67 0.36 5.34 -1 5 C-1 1 -1 1 0 0 Z " fill="#333" transform="translate(134,237)"/>
    <path d="M0 0 C0.763 0.206 1.526 0.412 2.312 0.625 C2.312 0.955 2.312 1.285 2.312 1.625 C0.332 2.285 -1.648 2.945 -3.688 3.625 C-3.358 8.64 -3.358 8.64 -0.688 12.625 C1.301 13.023 3.302 13.363 5.312 13.625 C4.983 14.285 4.653 14.945 4.312 15.625 C-0.113 15.455 -2.074 15.269 -5.188 12 C-6.993 7.938 -6.911 5.865 -5.688 1.625 C-2.688 -0.375 -2.688 -0.375 0 0 Z " fill="#333" transform="translate(43.6875,244.375)"/>
    <path d="M0 0 C2.668 0.368 3.82 0.82 5.75 2.75 C7.211 5.379 7.247 7.037 7 10 C5.02 10.99 5.02 10.99 3 12 C3.248 10.948 3.495 9.896 3.75 8.812 C4.389 4.946 4.389 4.946 2.062 2.062 C1.382 1.382 0.701 0.701 0 0 Z " fill="#333" transform="translate(46,246)"/>
    <path d="M0 0 C1.938 0.812 1.938 0.812 3.812 1.875 C6.594 3.102 8.932 2.949 11.938 2.812 C11.938 3.803 11.938 4.792 11.938 5.812 C8.308 5.812 4.678 5.812 0.938 5.812 C0.938 4.822 0.938 3.833 0.938 2.812 C-0.053 2.812 -1.043 2.812 -2.062 2.812 C-2.392 3.472 -2.723 4.132 -3.062 4.812 C-2.072 4.812 -1.082 4.812 -0.062 4.812 C-0.062 5.472 -0.062 6.132 -0.062 6.812 C-2.373 6.812 -4.683 6.812 -7.062 6.812 C-7.062 5.493 -7.062 4.173 -7.062 2.812 C-4.66 0.877 -3.143 -0.286 0 0 Z " fill="#333" transform="translate(262.0625,248.1875)"/>
    <path d="M0 0 C1.65 0 3.3 0 5 0 C5.33 1.65 5.66 3.3 6 5 C3.625 5.625 3.625 5.625 1 6 C0.34 5.34 -0.32 4.68 -1 4 C-0.625 1.875 -0.625 1.875 0 0 Z M2 2 C2.33 2.66 2.66 3.32 3 4 C3.33 3.34 3.66 2.68 4 2 C3.34 2 2.68 2 2 2 Z " fill="#333" transform="translate(118,250)"/>
    <path d="M0 0 C4.037 1.346 5.625 4.031 7.852 7.441 C8.932 9.156 8.932 9.156 11 10 C13.217 13.887 15.077 17.961 17 22 C17.473 22.989 17.946 23.977 18.434 24.996 C20.743 29.937 22.704 34.699 24 40 C27.465 39.505 27.465 39.505 31 39 C30 41 30 41 25 43 C24.34 50.26 23.68 57.52 23 65 C22.34 65 21.68 65 21 65 C21.023 63.747 21.046 62.494 21.07 61.203 C21.089 59.552 21.107 57.901 21.125 56.25 C21.142 55.425 21.159 54.6 21.176 53.75 C21.182 52.951 21.189 52.152 21.195 51.328 C21.206 50.595 21.216 49.862 21.227 49.106 C20.968 46.701 20.09 45.138 19 43 C19.329 41.332 19.662 39.666 20 38 C18.439 30.484 15.024 23.758 11.172 17.18 C10 15 10 15 10 13 C9.01 12.67 8.02 12.34 7 12 C5.945 10.028 4.954 8.022 4 6 C2.725 3.954 1.37 1.985 0 0 Z " fill="#333" transform="translate(33,257)"/>
    <path d="M0 0 C0.66 0 1.32 0 2 0 C2 2.64 2 5.28 2 8 C1.34 8 0.68 8 0 8 C0 5.36 0 2.72 0 0 Z " fill="#333" transform="translate(438,257)"/>
    <path d="M0 0 C0.99 0.66 1.98 1.32 3 2 C3 2.66 3 3.32 3 4 C3.522 3.787 4.044 3.575 4.582 3.355 C8.087 2.84 10.422 4.014 13.688 5.312 C15.426 5.987 15.426 5.987 17.199 6.676 C20 8 20 8 21 10 C17.089 9.311 13.445 8.217 9.688 6.938 C8.619 6.575 7.55 6.213 6.449 5.84 C5.641 5.563 4.833 5.286 4 5 C4.495 6.155 4.99 7.31 5.5 8.5 C7.879 15.458 7.24 22.75 7 30 C8.32 29.67 9.64 29.34 11 29 C11.99 30.98 12.98 32.96 14 35 C13.01 35 12.02 35 11 35 C11 34.34 11 33.68 11 33 C8.525 33.495 8.525 33.495 6 34 C5.902 34.583 5.804 35.165 5.703 35.766 C4.429 42.75 2.367 49.314 0 56 C-0.66 56 -1.32 56 -2 56 C-1.807 55.238 -1.613 54.476 -1.414 53.691 C-0.6 50.463 0.202 47.232 1 44 C1.224 43.111 1.449 42.221 1.68 41.305 C1.868 40.524 2.056 39.742 2.25 38.938 C2.42 38.245 2.59 37.553 2.766 36.84 C3.164 34.77 3.164 34.77 2 32 C2.66 31.67 3.32 31.34 4 31 C4.347 19.819 4.141 11.125 -1 1 C-0.67 0.67 -0.34 0.34 0 0 Z " fill="#333" transform="translate(71,260)"/>
    <path d="M0 0 C1.322 0.903 2.632 1.823 3.938 2.75 C4.668 3.26 5.399 3.771 6.152 4.297 C8.222 6.205 8.824 7.203 9 10 C8.34 10.66 7.68 11.32 7 12 C4.875 11.625 4.875 11.625 3 11 C4.32 10.67 5.64 10.34 7 10 C6.216 9.216 5.433 8.433 4.625 7.625 C3.083 6.083 1.542 4.542 0 3 C0 2.01 0 1.02 0 0 Z " fill="#333" transform="translate(240,260)"/>
    <path d="M0 0 C0.66 0.33 1.32 0.66 2 1 C1.34 2.65 0.68 4.3 0 6 C-1.65 5.67 -3.3 5.34 -5 5 C-5 3.68 -5 2.36 -5 1 C-4.34 1.33 -3.68 1.66 -3 2 C-3.33 2.66 -3.66 3.32 -4 4 C-2.68 4 -1.36 4 0 4 C0 2.68 0 1.36 0 0 Z " fill="#333" transform="translate(58,265)"/>
    <path d="M0 0 C0.66 0 1.32 0 2 0 C2 2.97 2 5.94 2 9 C1.34 9 0.68 9 0 9 C0 6.03 0 3.06 0 0 Z " fill="#333" transform="translate(439,267)"/>
    <path d="M0 0 C2 1 2 1 2.816 3.266 C4.712 10.846 5.635 18.198 6 26 C9.3 26.33 12.6 26.66 16 27 C16 27.66 16 28.32 16 29 C12.7 29 9.4 29 6 29 C5.746 29.808 5.492 30.616 5.23 31.449 C4.886 32.518 4.542 33.586 4.188 34.688 C3.851 35.743 3.515 36.799 3.168 37.887 C2.053 40.858 0.721 43.343 -1 46 C-2.277 42.17 -1.426 40.745 -0.062 37 C1.554 32.606 1.554 32.606 2 28 C-2.455 26.02 -2.455 26.02 -7 24 C-3.063 22.688 -0.875 23.757 3 25 C2.688 22.333 2.375 19.667 2.062 17 C1.975 16.256 1.888 15.512 1.799 14.746 C1.221 9.828 0.62 4.913 0 0 Z " fill="#333" transform="translate(137,271)"/>
    <path d="M0 0 C0.33 0.99 0.66 1.98 1 3 C1.66 2.34 2.32 1.68 3 1 C3 2.65 3 4.3 3 6 C1.68 5.67 0.36 5.34 -1 5 C-1.33 3.68 -1.66 2.36 -2 1 C-1.34 0.67 -0.68 0.34 0 0 Z " fill="#333" transform="translate(252,270)"/>
    <path d="M0 0 C4.292 3.322 4.56 8.538 5.742 13.555 C7.159 17.436 8.909 19.317 12 22 C10.68 22.33 9.36 22.66 8 23 C8 31.25 8 39.5 8 48 C8.66 48.33 9.32 48.66 10 49 C10 49.66 10 50.32 10 51 C8.515 51.495 8.515 51.495 7 52 C5.77 55.512 5.77 55.512 5 59 C4.34 59 3.68 59 3 59 C3.119 58.397 3.237 57.793 3.359 57.172 C3.753 54.734 4.047 52.471 4 50 C2.249 47.409 2.249 47.409 0 46 C2.475 45.505 2.475 45.505 5 45 C5.029 41.771 5.047 38.542 5.062 35.312 C5.071 34.4 5.079 33.488 5.088 32.549 C5.091 31.663 5.094 30.776 5.098 29.863 C5.103 29.052 5.108 28.24 5.114 27.404 C4.991 24.803 4.723 22.505 4 20 C1.2 18.037 1.2 18.037 -2.25 16.5 C-7.044 14.201 -10.408 11.943 -14 8 C-10.104 9.489 -6.409 11.244 -2.688 13.125 C-1.619 13.664 -0.55 14.203 0.551 14.758 C1.763 15.373 1.763 15.373 3 16 C2.308 10.582 1.242 5.318 0 0 Z " fill="#333" transform="translate(117,272)"/>
    <path d="M0 0 C-10.358 5.49 -18.198 8.435 -30 8 C-30 7.34 -30 6.68 -30 6 C-29.056 5.914 -28.113 5.827 -27.141 5.738 C-19.169 4.866 -12.699 3.47 -5.391 -0.074 C-3 -1 -3 -1 0 0 Z " fill="#333" transform="translate(32,276)"/>
    <path d="M0 0 C10.06 8.213 16.335 15.854 19.375 28.625 C20.702 33.867 22.931 37.43 27 41 C27.33 41 27.66 41 28 41 C28.66 36.71 29.32 32.42 30 28 C30.66 28 31.32 28 32 28 C31.857 29.897 31.857 29.897 31.711 31.832 C31.598 33.492 31.486 35.152 31.375 36.812 C31.311 37.646 31.246 38.479 31.18 39.338 C31.128 40.14 31.077 40.943 31.023 41.77 C30.971 42.508 30.919 43.246 30.865 44.007 C30.856 46.323 30.856 46.323 33 49 C32.01 49 31.02 49 30 49 C29.67 50.65 29.34 52.3 29 54 C35.342 58.839 41.208 61.34 49 63 C49 63.66 49 64.32 49 65 C42.01 64.612 37.095 62.327 31 59 C29.669 58.328 28.337 57.659 27 57 C26.01 57.66 25.02 58.32 24 59 C24 55.667 24 52.333 24 49 C24.66 49.33 25.32 49.66 26 50 C27.051 47.859 27.051 47.859 27 45 C24.909 41.764 22.476 38.738 19 37 C19.468 41.056 19.88 44.466 22 48 C20.68 47.34 19.36 46.68 18 46 C17.907 47.238 17.907 47.238 17.812 48.5 C16.767 53.004 14.595 56.227 12 60 C10.774 56.322 11.386 55.563 12.938 52.125 C14.55 48.55 15.327 45.939 15 42 C14.67 41.34 14.34 40.68 14 40 C14.99 40 15.98 40 17 40 C16.724 33.795 15.894 29.898 12 25 C12.33 24.34 12.66 23.68 13 23 C13.66 23.33 14.32 23.66 15 24 C11.424 16.044 8.201 9.299 1.504 3.453 C1.008 2.974 0.511 2.494 0 2 C0 1.34 0 0.68 0 0 Z " fill="#333" transform="translate(198,279)"/>
    <path d="M0 0 C1.44 0.257 2.877 0.531 4.312 0.812 C5.113 0.963 5.914 1.114 6.738 1.27 C9.234 2.076 10.324 3.021 12 5 C7.916 4.257 3.981 3.171 0 2 C0 1.34 0 0.68 0 0 Z " fill="#333" transform="translate(190,291)"/>
    <path d="M0 0 C4.146 1.36 6.417 3.136 9.375 6.312 C13.018 10.095 16.623 13.113 21 16 C20.01 16.33 19.02 16.66 18 17 C17.371 16.432 16.742 15.863 16.094 15.277 C11.241 10.9 6.369 6.556 1.398 2.312 C0.937 1.879 0.475 1.446 0 1 C0 0.67 0 0.34 0 0 Z " fill="#333" transform="translate(92,299)"/>
    <path d="M0 0 C2 1.125 2 1.125 3 3 C3.438 6 3.438 6 3 9 C1.217 11.229 -0.129 11.874 -2.941 12.281 C-5.961 12.415 -8.381 12.338 -11.062 10.875 C-12.516 7.968 -11.89 6.053 -11 3 C-8.652 -1.143 -4.235 -0.635 0 0 Z M-8.938 3.188 C-10.268 5.041 -10.268 5.041 -9.688 7.688 C-9.461 8.451 -9.234 9.214 -9 10 C-3.639 10.537 -3.639 10.537 1 8.5 C1.33 8.005 1.66 7.51 2 7 C0.78 4.309 0.78 4.309 -1 2 C-5.172 1.624 -5.172 1.624 -8.938 3.188 Z " fill="#333" transform="translate(154,305)"/>
    <path d="M0 0 C3.63 0 7.26 0 11 0 C11 0.66 11 1.32 11 2 C7.37 2 3.74 2 0 2 C0 1.34 0 0.68 0 0 Z " fill="#333" transform="translate(8,312)"/>
    <path d="M0 0 C1.98 0 3.96 0 6 0 C6 0.99 6 1.98 6 3 C7.32 3 8.64 3 10 3 C10 4.32 10 5.64 10 7 C11.32 7.33 12.64 7.66 14 8 C14 9.32 14 10.64 14 12 C15.052 11.505 16.104 11.01 17.188 10.5 C20.255 9.172 22.621 8.693 26 9 C26.33 9.99 26.66 10.98 27 12 C26.361 12.433 25.721 12.866 25.062 13.312 C22.733 14.912 22.733 14.912 22 18 C21.34 18 20.68 18 20 18 C20.33 16.35 20.66 14.7 21 13 C19.02 13.66 17.04 14.32 15 15 C14.67 14.402 14.34 13.804 14 13.188 C11.858 10.845 10.872 10.489 7.938 9.562 C4.164 8.314 4.164 8.314 2.625 5.375 C2.419 4.591 2.212 3.808 2 3 C1.34 2.67 0.68 2.34 0 2 C0 1.34 0 0.68 0 0 Z " fill="#333" transform="translate(389,319)"/>
    <path d="M0 0 C0.33 0.99 0.66 1.98 1 3 C3.498 4.699 3.498 4.699 6 6 C5.722 7.763 5.722 7.763 5.438 9.562 C4.922 13.55 5.388 17.024 6 21 C5.753 25.202 2.98 27.347 0 30 C-0.77 30.657 -1.539 31.315 -2.332 31.992 C-3.151 32.696 -3.969 33.4 -4.812 34.125 C-5.603 34.788 -6.393 35.45 -7.207 36.133 C-9.346 37.929 -9.346 37.929 -9 41 C-5.188 40.619 -2.328 39.749 1 37.938 C4.492 36.101 6.997 35.441 11 36 C11.99 36.66 12.98 37.32 14 38 C13.812 39.812 13.812 39.812 13 42 C10.093 44.142 8.645 45 5 45 C5.495 48.465 5.495 48.465 6 52 C4.68 52.66 3.36 53.32 2 54 C1.103 53.134 1.103 53.134 0.188 52.25 C-2.836 50.116 -4.901 49.32 -8.375 48.25 C-14.29 46.23 -17.601 43.197 -21 38 C-21.371 37.051 -21.743 36.103 -22.125 35.125 C-22.844 32.719 -22.844 32.719 -25.625 31.688 C-26.409 31.461 -27.193 31.234 -28 31 C-28 30.01 -28 29.02 -28 28 C-27.34 27.67 -26.68 27.34 -26 27 C-25.34 27.66 -24.68 28.32 -24 29 C-24.227 28.154 -24.454 27.309 -24.688 26.438 C-25.076 22.168 -24.28 19.526 -22 16 C-19.768 13.324 -17.453 10.766 -15.059 8.234 C-12.874 5.979 -12.874 5.979 -11 3 C-9.16 1.797 -9.16 1.797 -7.062 0.75 C-6.028 0.216 -6.028 0.216 -4.973 -0.328 C-3 -1 -3 -1 0 0 Z M-4 1 C-4.65 2.176 -4.65 2.176 -5.312 3.375 C-7.338 6.525 -8.586 6.7 -12 8 C-17.353 12.308 -20.35 17.756 -21.387 24.523 C-21.652 30.462 -20.497 35.151 -17 40 C-14.432 42.46 -14.432 42.46 -12 44 C-10.867 42.024 -10.867 42.024 -10.75 39.688 C-9.728 36.026 -7.768 34.584 -5 32 C-3.921 30.828 -2.858 29.64 -1.812 28.438 C-1.324 27.879 -0.835 27.321 -0.332 26.746 C2.881 22.535 3.319 19.316 3.375 14 C3.418 12.175 3.418 12.175 3.461 10.312 C2.921 6.433 1.952 5.443 -1 3 C-1.33 2.34 -1.66 1.68 -2 1 C-2.66 1 -3.32 1 -4 1 Z M-6 43 C-7.33 43.673 -8.662 44.342 -10 45 C-8.969 45.507 -8.969 45.507 -7.918 46.023 C-7.017 46.469 -6.116 46.915 -5.188 47.375 C-3.848 48.036 -3.848 48.036 -2.48 48.711 C0 50 0 50 3 52 C3.33 51.34 3.66 50.68 4 50 C3.066 47.969 2.068 45.965 1 44 C2.609 43.876 2.609 43.876 4.25 43.75 C8.274 42.945 9.482 42.123 12 39 C10.885 37.681 10.885 37.681 8.062 37.625 C2.771 37.669 -1.486 40.505 -6 43 Z " fill="#333" transform="translate(89,324)"/>
    <path d="M0 0 C1.454 0.031 1.454 0.031 2.938 0.062 C2.607 1.053 2.278 2.043 1.938 3.062 C0.618 2.733 -0.702 2.402 -2.062 2.062 C-2.062 3.053 -2.062 4.043 -2.062 5.062 C-1.403 5.062 -0.743 5.062 -0.062 5.062 C-0.062 5.723 -0.062 6.382 -0.062 7.062 C-2.537 6.072 -2.537 6.072 -5.062 5.062 C-3.938 0.08 -3.938 0.08 0 0 Z " fill="#333" transform="translate(132.0625,326.9375)"/>
    <path d="M0 0 C4.145 5.406 4.639 9.215 4 16 C2.5 19.125 2.5 19.125 1 21 C0.34 20.34 -0.32 19.68 -1 19 C-0.34 18.01 0.32 17.02 1 16 C1.835 10.309 1.042 5.943 -2 1 C-1.34 0.67 -0.68 0.34 0 0 Z " fill="#333" transform="translate(119,332)"/>
    <path d="M0 0 C2.475 0.495 2.475 0.495 5 1 C4.814 2.196 4.629 3.392 4.438 4.625 C4.328 6.864 4.328 6.864 5 9 C7.059 10.822 9.23 12.061 11.609 13.434 C16.051 16.344 18.771 20.728 21.266 25.34 C23.559 28.857 26.372 31.585 29.375 34.5 C29.94 35.056 30.504 35.611 31.086 36.184 C32.194 37.274 33.305 38.363 34.417 39.449 C36.629 41.616 38.815 43.807 41 46 C38.941 46.422 38.941 46.422 36 46 C33.368 44.022 31.183 41.65 28.938 39.25 C28.326 38.616 27.714 37.982 27.084 37.328 C25.902 36.102 24.726 34.87 23.557 33.632 C22.285 32.299 20.974 31.005 19.652 29.723 C18 28 18 28 16.625 25.188 C13.949 19.939 10.654 16.061 5.688 12.875 C3 11 3 11 2.125 8.438 C2.032 6.627 2 4.813 2 3 C1.34 3 0.68 3 0 3 C0 2.01 0 1.02 0 0 Z " fill="#333" transform="translate(412,337)"/>
    <path d="M0 0 C3 2 3 2 3.75 4.5 C4 7 4 7 3 9 C2.34 9 1.68 9 1 9 C0.639 7.689 0.286 6.376 -0.062 5.062 C-0.358 3.966 -0.358 3.966 -0.66 2.848 C-0.772 2.238 -0.884 1.628 -1 1 C-0.67 0.67 -0.34 0.34 0 0 Z " fill="#333" transform="translate(107,339)"/>
    <path d="M0 0 C1.245 2.491 0.777 3.411 0 6 C0.66 6.33 1.32 6.66 2 7 C0.68 7 -0.64 7 -2 7 C-2.125 4.625 -2.125 4.625 -2 2 C-1.34 1.34 -0.68 0.68 0 0 Z " fill="#333" transform="translate(76,347)"/>
    <path d="M0 0 C0.66 0 1.32 0 2 0 C2.598 0.908 3.196 1.815 3.812 2.75 C7.715 8.548 13.062 12.058 19.875 13.688 C20.927 13.842 20.927 13.842 22 14 C22 14.66 22 15.32 22 16 C14.922 15.743 10.386 13.608 5 9 C0 3.395 0 3.395 0 0 Z " fill="#333" transform="translate(42,357)"/>
    <path d="M0 0 C4.95 0.99 4.95 0.99 10 2 C10 2.66 10 3.32 10 4 C2.25 3.125 2.25 3.125 0 2 C0 1.34 0 0.68 0 0 Z " fill="#333" transform="translate(46,374)"/>
  </g>
</svg>
